<svg width="87" height="63" viewBox="0 0 87 63" fill="none" xmlns="http://www.w3.org/2000/svg">
<path d="M61.6481 8.26093C61.6481 8.26093 60.1634 13.6077 56.9818 16.5307L58.8342 18.2702C58.9615 18.389 59.0133 18.5743 58.9615 18.7406C58.7446 19.4346 57.9669 21.1645 55.6102 21.1645C53.4326 21.1645 52.8058 19.5343 52.6314 18.6836C52.5748 18.4127 52.8655 17.6089 53.3604 17.6089C53.5914 17.5899 54.1804 17.9653 54.4602 18.4174C54.798 18.9634 54.9315 19.8528 56.1758 19.4725C57.9339 18.9355 51.8725 15.6704 51.8725 15.6704C51.8725 15.6704 50.2558 16.754 48.0217 17.5382C47.9839 17.4336 47.9462 17.3338 47.9086 17.2245C47.5221 16.1694 46.9281 15.1476 46.174 14.3158C45.3209 13.3653 44.2698 12.7474 43.0538 12.4148C43.2894 12.4813 43.5675 12.7237 43.7655 12.8663C44.0577 13.0754 44.3217 13.3225 44.5621 13.5887C45.0475 14.1257 45.4246 14.7578 45.698 15.428C46.1693 16.5972 46.4239 18.0325 46.306 19.2967C46.1127 21.3927 45.3869 25.6036 42.6531 28.498C38.8824 32.4903 39.0238 33.3933 40.5792 38.1936C41.6869 41.606 40.862 43.5546 40.2917 44.3958C40.1079 44.6667 39.7166 44.662 39.5375 44.391L38.9484 43.4975C38.8824 43.393 38.8588 43.2694 38.8824 43.1506C39.0332 42.4044 39.316 39.3056 35.451 33.5406C35.3379 33.3742 35.3474 33.1509 35.4746 32.994C36.29 31.9865 39.1275 28.2223 39.4527 24.0352C39.8298 19.1399 35.4934 19.4725 34.8807 15.1951C34.8807 15.1951 30.6952 18.4602 31.0487 27.229C31.3974 35.8314 30.6528 40.7315 25.4821 42.8654C25.303 42.9367 25.1003 42.8892 24.9731 42.7466C24.794 42.547 24.827 42.2333 25.0391 42.0717C26.3117 41.1212 29.8892 37.3713 27.655 26.2309C24.9684 12.8282 37.7652 5.62788 44.2697 5.62788C50.7742 5.62788 56.4303 10.9747 57.7736 5.62788C57.7736 5.62788 54.7665 4.37316 54.5968 0.475932C54.5874 0.205027 54.8042 -0.0135982 55.0729 0.000659987C56.256 0.0481872 59.2867 0.475932 60.2482 3.49391L63.1752 4.01671C63.3355 4.04522 63.4675 4.15454 63.524 4.30662L64.0048 5.59936C64.0472 5.70867 64.1273 5.79898 64.231 5.85126L66.2719 6.85408C66.5217 6.97765 66.6066 7.29133 66.451 7.51946C66.0268 8.15637 64.8391 9.11167 61.6481 8.26093Z" fill="white"/>
<path d="M0 51.0806H5.1543C6.4989 51.0806 7.56604 51.4163 8.35572 52.0877C9.15608 52.7487 9.55626 53.699 9.55626 54.9384C9.55626 56.1779 9.15608 57.1333 8.35572 57.8047C7.56604 58.4761 6.4989 58.8118 5.1543 58.8118H3.31348V61.9105H0V51.0806ZM4.53002 56.2709C5.04225 56.2709 5.44242 56.1727 5.73055 55.9765C6.01868 55.7803 6.16274 55.4342 6.16274 54.9384C6.16274 54.453 6.01868 54.1121 5.73055 53.9159C5.44242 53.7196 5.04225 53.6215 4.53002 53.6215H3.31348V56.2709H4.53002Z" fill="white"/>
<path d="M14.0186 62.1429C13.0368 62.1429 12.1778 61.9776 11.4415 61.6471C10.7158 61.3062 10.1556 60.8362 9.76072 60.2372C9.36588 59.6381 9.16846 58.9564 9.16846 58.192C9.16846 57.438 9.36588 56.7615 9.76072 56.1624C10.1556 55.5633 10.7158 55.0934 11.4415 54.7525C12.1778 54.4117 13.0368 54.2412 14.0186 54.2412C15.0004 54.2412 15.8594 54.4117 16.5958 54.7525C17.3321 55.0934 17.8977 55.5633 18.2925 56.1624C18.6874 56.7615 18.8848 57.438 18.8848 58.192C18.8848 58.9564 18.6874 59.6381 18.2925 60.2372C17.8977 60.8362 17.3321 61.3062 16.5958 61.6471C15.8594 61.9776 15.0004 62.1429 14.0186 62.1429ZM14.0186 59.7414C14.4988 59.7414 14.883 59.6019 15.1711 59.3231C15.4593 59.0442 15.6033 58.6672 15.6033 58.192C15.6033 57.7169 15.4593 57.3451 15.1711 57.0765C14.883 56.7976 14.4988 56.6582 14.0186 56.6582C13.5384 56.6582 13.1542 56.7976 12.8661 57.0765C12.5886 57.3451 12.4499 57.7169 12.4499 58.192C12.4499 58.6672 12.5886 59.0442 12.8661 59.3231C13.1542 59.6019 13.5384 59.7414 14.0186 59.7414Z" fill="white"/>
<path d="M19.8526 50.4609H23.054V57.3244L25.327 54.4736H28.9927L26.1274 58.0526L29.4249 61.9105H25.7592L23.054 58.7498V61.9105H19.8526V50.4609Z" fill="white"/>
<path d="M32.0693 53.637C31.5891 53.637 31.1889 53.4872 30.8687 53.1877C30.5486 52.8882 30.3885 52.506 30.3885 52.0412C30.3885 51.5867 30.5486 51.2097 30.8687 50.9102C31.1889 50.6003 31.5891 50.4454 32.0693 50.4454C32.5388 50.4454 32.9337 50.6003 33.2538 50.9102C33.5846 51.22 33.75 51.597 33.75 52.0412C33.75 52.4957 33.5846 52.8778 33.2538 53.1877C32.9337 53.4872 32.5388 53.637 32.0693 53.637ZM30.4686 54.4736H33.67V61.9105H30.4686V54.4736Z" fill="white"/>
<path d="M39.6253 62.1429C38.0779 62.1429 36.872 61.802 36.0077 61.1203C35.1433 60.4386 34.7111 59.4728 34.7111 58.223C34.7111 56.9939 35.1006 56.023 35.8796 55.3103C36.6586 54.5976 37.7791 54.2412 39.2411 54.2412C40.1802 54.2412 40.9805 54.4117 41.6422 54.7525C42.3145 55.0831 42.8214 55.5427 43.1628 56.1314C43.5043 56.7202 43.6751 57.3812 43.6751 58.1146V59.1216H37.7524C38.0086 59.7827 38.7822 60.1132 40.0735 60.1132C40.5857 60.1132 41.1086 60.0771 41.6422 60.0048C42.1864 59.9221 42.6453 59.8085 43.0188 59.6639V61.6006C42.6133 61.7658 42.1064 61.895 41.4981 61.9879C40.8898 62.0912 40.2656 62.1429 39.6253 62.1429ZM40.6497 57.3244C40.5964 56.9939 40.447 56.7408 40.2015 56.5652C39.9561 56.3793 39.6199 56.2864 39.1931 56.2864C38.7662 56.2864 38.4301 56.3793 38.1846 56.5652C37.9499 56.7512 37.8058 57.0042 37.7524 57.3244H40.6497Z" fill="white"/>
<path d="M48.0868 62.1429C47.4465 62.1429 46.7742 62.086 46.0699 61.9724C45.3763 61.8588 44.8267 61.6935 44.4212 61.4766V59.2921C44.8587 59.54 45.3923 59.7517 46.0219 59.9273C46.6622 60.0926 47.2384 60.1752 47.7506 60.1752C48.0601 60.1752 48.2842 60.1597 48.4229 60.1287C48.5617 60.0874 48.631 60.0099 48.631 59.8963C48.631 59.793 48.5617 59.7156 48.4229 59.6639C48.2949 59.6123 48.0494 59.54 47.6866 59.447L46.9503 59.2456C46.2993 59.0597 45.7818 58.8634 45.3976 58.6568C45.0241 58.4399 44.7466 58.1817 44.5652 57.8822C44.3945 57.5723 44.3091 57.185 44.3091 56.7202C44.3091 55.8835 44.6506 55.2638 45.3336 54.861C46.0165 54.4478 46.9503 54.2412 48.1348 54.2412C48.7004 54.2412 49.3087 54.3032 49.9596 54.4272C50.6213 54.5408 51.1121 54.6957 51.4323 54.892V57.0455C51.1015 56.839 50.6586 56.6634 50.1037 56.5188C49.5488 56.3638 49.0419 56.2864 48.583 56.2864C47.9534 56.2864 47.6386 56.3897 47.6386 56.5962C47.6386 56.6892 47.7133 56.7667 47.8627 56.8286C48.0228 56.8906 48.2949 56.9629 48.6791 57.0455L49.3514 57.2005C50.045 57.3761 50.5786 57.5775 50.9521 57.8047C51.3256 58.032 51.587 58.3005 51.7364 58.6104C51.8858 58.9099 51.9605 59.2869 51.9605 59.7414C51.9605 60.4747 51.6244 61.0583 50.9521 61.4921C50.2904 61.9259 49.3354 62.1429 48.0868 62.1429Z" fill="white"/>
<path d="M52.9142 51.0806H58.7568C59.8453 51.0806 60.715 51.344 61.366 51.8708C62.0276 52.3872 62.3584 53.1309 62.3584 54.1018C62.3584 54.5356 62.257 54.9436 62.0543 55.3258C61.8622 55.7079 61.5794 56.0178 61.2059 56.2554C61.7288 56.4826 62.1076 56.7822 62.3424 57.154C62.5878 57.5258 62.7106 58.0113 62.7106 58.6104C62.7106 59.2817 62.5452 59.8705 62.2143 60.3766C61.8835 60.8724 61.4353 61.2546 60.8697 61.5231C60.3148 61.7813 59.6959 61.9105 59.0129 61.9105H52.9142V51.0806ZM57.8924 55.2793C58.2552 55.2793 58.5274 55.2018 58.7088 55.0469C58.9009 54.892 58.9969 54.6441 58.9969 54.3032C58.9969 53.952 58.9062 53.7093 58.7248 53.575C58.5434 53.4304 58.2606 53.3581 57.8764 53.3581H56.2277V55.2793H57.8924ZM58.0845 59.6329C58.522 59.6329 58.8422 59.5555 59.0449 59.4005C59.2477 59.2456 59.3491 58.977 59.3491 58.5949C59.3491 58.223 59.2423 57.9493 59.0289 57.7737C58.8262 57.5981 58.5007 57.5103 58.0525 57.5103H56.2277V59.6329H58.0845Z" fill="white"/>
<path d="M68.263 62.1429C66.7157 62.1429 65.5098 61.802 64.6454 61.1203C63.781 60.4386 63.3488 59.4728 63.3488 58.223C63.3488 56.9939 63.7383 56.023 64.5174 55.3103C65.2964 54.5976 66.4169 54.2412 67.8789 54.2412C68.8179 54.2412 69.6183 54.4117 70.2799 54.7525C70.9522 55.0831 71.4591 55.5427 71.8006 56.1314C72.1421 56.7202 72.3128 57.3812 72.3128 58.1146V59.1216H66.3902C66.6463 59.7827 67.42 60.1132 68.7112 60.1132C69.2235 60.1132 69.7464 60.0771 70.2799 60.0048C70.8242 59.9221 71.283 59.8085 71.6565 59.6639V61.6006C71.251 61.7658 70.7441 61.895 70.1359 61.9879C69.5276 62.0912 68.9033 62.1429 68.263 62.1429ZM69.2875 57.3244C69.2341 56.9939 69.0847 56.7408 68.8393 56.5652C68.5938 56.3793 68.2577 56.2864 67.8308 56.2864C67.404 56.2864 67.0678 56.3793 66.8224 56.5652C66.5876 56.7512 66.4436 57.0042 66.3902 57.3244H69.2875Z" fill="white"/>
<path d="M76.7245 62.1429C76.0843 62.1429 75.412 62.086 74.7076 61.9724C74.014 61.8588 73.4644 61.6935 73.0589 61.4766V59.2921C73.4964 59.54 74.03 59.7517 74.6596 59.9273C75.2999 60.0926 75.8762 60.1752 76.3884 60.1752C76.6979 60.1752 76.922 60.1597 77.0607 60.1287C77.1994 60.0874 77.2688 60.0099 77.2688 59.8963C77.2688 59.793 77.1994 59.7156 77.0607 59.6639C76.9326 59.6123 76.6872 59.54 76.3244 59.447L75.588 59.2456C74.9371 59.0597 74.4195 58.8634 74.0353 58.6568C73.6618 58.4399 73.3844 58.1817 73.203 57.8822C73.0322 57.5723 72.9469 57.185 72.9469 56.7202C72.9469 55.8835 73.2884 55.2638 73.9713 54.861C74.6543 54.4478 75.588 54.2412 76.7726 54.2412C77.3382 54.2412 77.9464 54.3032 78.5974 54.4272C79.259 54.5408 79.7499 54.6957 80.07 54.892V57.0455C79.7392 56.839 79.2964 56.6634 78.7414 56.5188C78.1865 56.3638 77.6796 56.2864 77.2208 56.2864C76.5911 56.2864 76.2763 56.3897 76.2763 56.5962C76.2763 56.6892 76.351 56.7667 76.5004 56.8286C76.6605 56.8906 76.9326 56.9629 77.3168 57.0455L77.9891 57.2005C78.6827 57.3761 79.2163 57.5775 79.5898 57.8047C79.9633 58.032 80.2248 58.3005 80.3742 58.6104C80.5236 58.9099 80.5983 59.2869 80.5983 59.7414C80.5983 60.4747 80.2621 61.0583 79.5898 61.4921C78.9282 61.9259 77.9731 62.1429 76.7245 62.1429Z" fill="white"/>
<path d="M84.759 62.1429C83.7666 62.1429 83.0142 61.8743 82.502 61.3372C81.9898 60.8001 81.7337 60.0719 81.7337 59.1526V56.5652H80.6772V54.4736H81.7337V52.2426H84.9511V54.4736H86.6638V56.5652H84.9511V58.7033C84.9511 59.0752 85.0204 59.3437 85.1592 59.509C85.3086 59.6639 85.554 59.7414 85.8955 59.7414C86.2797 59.7414 86.6478 59.6433 87 59.447V61.74C86.6905 61.8743 86.365 61.9724 86.0236 62.0344C85.6927 62.1067 85.2712 62.1429 84.759 62.1429Z" fill="white"/>
</svg>
