<svg width="131" height="46" viewBox="0 0 131 46" fill="none" xmlns="http://www.w3.org/2000/svg">
<path d="M44.5377 18.2H46.3577V26.46H51.4817V28H44.5377V18.2ZM56.0422 28.098C55.2862 28.098 54.6048 27.9347 53.9982 27.608C53.3915 27.2813 52.9155 26.8287 52.5702 26.25C52.2342 25.662 52.0662 24.9993 52.0662 24.262C52.0662 23.5247 52.2342 22.8667 52.5702 22.288C52.9155 21.7093 53.3915 21.2567 53.9982 20.93C54.6048 20.6033 55.2862 20.44 56.0422 20.44C56.8075 20.44 57.4935 20.6033 58.1002 20.93C58.7068 21.2567 59.1782 21.7093 59.5142 22.288C59.8595 22.8667 60.0322 23.5247 60.0322 24.262C60.0322 24.9993 59.8595 25.662 59.5142 26.25C59.1782 26.8287 58.7068 27.2813 58.1002 27.608C57.4935 27.9347 56.8075 28.098 56.0422 28.098ZM56.0422 26.6C56.6862 26.6 57.2182 26.3853 57.6382 25.956C58.0582 25.5267 58.2682 24.962 58.2682 24.262C58.2682 23.562 58.0582 22.9973 57.6382 22.568C57.2182 22.1387 56.6862 21.924 56.0422 21.924C55.3982 21.924 54.8662 22.1387 54.4462 22.568C54.0355 22.9973 53.8302 23.562 53.8302 24.262C53.8302 24.962 54.0355 25.5267 54.4462 25.956C54.8662 26.3853 55.3982 26.6 56.0422 26.6ZM69.1256 20.524V26.866C69.1256 29.498 67.7816 30.814 65.0936 30.814C64.375 30.814 63.6936 30.7207 63.0496 30.534C62.4056 30.3567 61.8736 30.0953 61.4536 29.75L62.2376 28.434C62.5643 28.7047 62.975 28.9193 63.4696 29.078C63.9736 29.246 64.4823 29.33 64.9956 29.33C65.817 29.33 66.419 29.1433 66.8016 28.77C67.1843 28.3967 67.3756 27.8273 67.3756 27.062V26.67C67.077 26.9967 66.713 27.244 66.2836 27.412C65.8543 27.58 65.383 27.664 64.8696 27.664C64.1603 27.664 63.5163 27.5147 62.9376 27.216C62.3683 26.908 61.9156 26.4787 61.5796 25.928C61.253 25.3773 61.0896 24.7473 61.0896 24.038C61.0896 23.3287 61.253 22.7033 61.5796 22.162C61.9156 21.6113 62.3683 21.1867 62.9376 20.888C63.5163 20.5893 64.1603 20.44 64.8696 20.44C65.411 20.44 65.901 20.5287 66.3396 20.706C66.7876 20.8833 67.161 21.154 67.4596 21.518V20.524H69.1256ZM65.1356 26.18C65.7983 26.18 66.3396 25.984 66.7596 25.592C67.189 25.1907 67.4036 24.6727 67.4036 24.038C67.4036 23.4127 67.189 22.904 66.7596 22.512C66.3396 22.12 65.7983 21.924 65.1356 21.924C64.4636 21.924 63.913 22.12 63.4836 22.512C63.0636 22.904 62.8536 23.4127 62.8536 24.038C62.8536 24.6727 63.0636 25.1907 63.4836 25.592C63.913 25.984 64.4636 26.18 65.1356 26.18ZM75.2955 20.524H77.0455V28H75.2955V20.524ZM76.1775 19.292C75.8601 19.292 75.5941 19.194 75.3795 18.998C75.1648 18.7927 75.0575 18.5407 75.0575 18.242C75.0575 17.9433 75.1648 17.696 75.3795 17.5C75.5941 17.2947 75.8601 17.192 76.1775 17.192C76.4948 17.192 76.7608 17.29 76.9755 17.486C77.1901 17.6727 77.2975 17.9107 77.2975 18.2C77.2975 18.508 77.1901 18.7693 76.9755 18.984C76.7701 19.1893 76.5041 19.292 76.1775 19.292ZM83.5843 20.44C84.527 20.44 85.283 20.7153 85.8523 21.266C86.4217 21.8167 86.7063 22.6333 86.7063 23.716V28H84.9563V23.94C84.9563 23.2867 84.8023 22.7967 84.4943 22.47C84.1863 22.134 83.7477 21.966 83.1783 21.966C82.5343 21.966 82.0257 22.162 81.6523 22.554C81.279 22.9367 81.0923 23.492 81.0923 24.22V28H79.3423V20.524H81.0083V21.49C81.2977 21.1447 81.6617 20.8833 82.1003 20.706C82.539 20.5287 83.0337 20.44 83.5843 20.44Z" fill="white"/>
<path d="M2 1H129V-1H2V1ZM130 2V44H132V2H130ZM129 45H2V47H129V45ZM1 44V2H-1V44H1ZM2 45C1.44772 45 1 44.5523 1 44H-1C-1 45.6569 0.34315 47 2 47V45ZM130 44C130 44.5523 129.552 45 129 45V47C130.657 47 132 45.6569 132 44H130ZM129 1C129.552 1 130 1.44772 130 2H132C132 0.343144 130.657 -1 129 -1V1ZM2 -1C0.343146 -1 -1 0.343145 -1 2H1C1 1.44772 1.44771 1 2 1V-1Z" fill="url(#paint0_linear)"/>
<defs>
<linearGradient id="paint0_linear" x1="0" y1="23" x2="131" y2="23" gradientUnits="userSpaceOnUse">
<stop stop-color="#00B09B"/>
<stop offset="1" stop-color="#96C93D"/>
</linearGradient>
</defs>
</svg>
