<svg width="87" height="63" viewBox="0 0 87 63" fill="none" xmlns="http://www.w3.org/2000/svg">
<path d="M61.6481 8.26093C61.6481 8.26093 60.1634 13.6077 56.9818 16.5307L58.8342 18.2702C58.9615 18.389 59.0133 18.5743 58.9615 18.7406C58.7446 19.4346 57.9669 21.1645 55.6102 21.1645C53.4326 21.1645 52.8058 19.5343 52.6314 18.6836C52.5748 18.4127 52.8655 17.6089 53.3604 17.6089C53.5914 17.5899 54.1804 17.9653 54.4602 18.4174C54.798 18.9634 54.9315 19.8528 56.1758 19.4725C57.9339 18.9355 51.8725 15.6704 51.8725 15.6704C51.8725 15.6704 50.2558 16.754 48.0217 17.5382C47.9839 17.4336 47.9462 17.3338 47.9086 17.2245C47.5221 16.1694 46.9281 15.1476 46.174 14.3158C45.3209 13.3653 44.2698 12.7474 43.0538 12.4148C43.2894 12.4813 43.5675 12.7237 43.7655 12.8663C44.0577 13.0754 44.3217 13.3225 44.5621 13.5887C45.0475 14.1257 45.4246 14.7578 45.698 15.428C46.1693 16.5972 46.4239 18.0325 46.306 19.2967C46.1127 21.3927 45.3869 25.6036 42.6531 28.498C38.8824 32.4903 39.0238 33.3933 40.5792 38.1936C41.6869 41.606 40.862 43.5546 40.2917 44.3958C40.1079 44.6667 39.7166 44.662 39.5375 44.391L38.9484 43.4975C38.8824 43.393 38.8588 43.2694 38.8824 43.1506C39.0332 42.4044 39.316 39.3056 35.451 33.5406C35.3379 33.3742 35.3474 33.1509 35.4746 32.994C36.29 31.9865 39.1275 28.2223 39.4527 24.0352C39.8298 19.1399 35.4934 19.4725 34.8807 15.1951C34.8807 15.1951 30.6952 18.4602 31.0487 27.229C31.3974 35.8314 30.6528 40.7315 25.4821 42.8654C25.303 42.9367 25.1003 42.8892 24.9731 42.7466C24.794 42.547 24.827 42.2333 25.0391 42.0717C26.3117 41.1212 29.8892 37.3713 27.655 26.2309C24.9684 12.8282 37.7652 5.62788 44.2697 5.62788C50.7742 5.62788 56.4303 10.9747 57.7736 5.62788C57.7736 5.62788 54.7665 4.37316 54.5968 0.475932C54.5874 0.205027 54.8042 -0.0135982 55.0729 0.000659987C56.256 0.0481872 59.2867 0.475932 60.2482 3.49391L63.1752 4.01671C63.3355 4.04522 63.4675 4.15454 63.524 4.30662L64.0048 5.59936C64.0472 5.70867 64.1273 5.79898 64.231 5.85126L66.2719 6.85408C66.5217 6.97765 66.6066 7.29133 66.451 7.51946C66.0268 8.15637 64.8391 9.11167 61.6481 8.26093Z" fill="white"/>
<path d="M0 51.0807H5.1543C6.4989 51.0807 7.56604 51.4164 8.35572 52.0877C9.15608 52.7488 9.55626 53.699 9.55626 54.9385C9.55626 56.178 9.15608 57.1334 8.35572 57.8048C7.56604 58.4762 6.4989 58.8118 5.1543 58.8118H3.31348V61.9105H0V51.0807ZM4.53002 56.2709C5.04225 56.2709 5.44242 56.1728 5.73055 55.9766C6.01868 55.7803 6.16274 55.4343 6.16274 54.9385C6.16274 54.453 6.01868 54.1122 5.73055 53.9159C5.44242 53.7197 5.04225 53.6216 4.53002 53.6216H3.31348V56.2709H4.53002Z" fill="white"/>
<path d="M14.0186 62.1429C13.0368 62.1429 12.1778 61.9777 11.4415 61.6471C10.7158 61.3063 10.1556 60.8363 9.76072 60.2372C9.36588 59.6382 9.16846 58.9564 9.16846 58.1921C9.16846 57.4381 9.36588 56.7616 9.76072 56.1625C10.1556 55.5634 10.7158 55.0934 11.4415 54.7526C12.1778 54.4117 13.0368 54.2413 14.0186 54.2413C15.0004 54.2413 15.8594 54.4117 16.5958 54.7526C17.3321 55.0934 17.8977 55.5634 18.2925 56.1625C18.6874 56.7616 18.8848 57.4381 18.8848 58.1921C18.8848 58.9564 18.6874 59.6382 18.2925 60.2372C17.8977 60.8363 17.3321 61.3063 16.5958 61.6471C15.8594 61.9777 15.0004 62.1429 14.0186 62.1429ZM14.0186 59.7414C14.4988 59.7414 14.883 59.602 15.1711 59.3231C15.4593 59.0442 15.6033 58.6672 15.6033 58.1921C15.6033 57.717 15.4593 57.3451 15.1711 57.0766C14.883 56.7977 14.4988 56.6583 14.0186 56.6583C13.5384 56.6583 13.1542 56.7977 12.8661 57.0766C12.5886 57.3451 12.4499 57.717 12.4499 58.1921C12.4499 58.6672 12.5886 59.0442 12.8661 59.3231C13.1542 59.602 13.5384 59.7414 14.0186 59.7414Z" fill="white"/>
<path d="M19.8526 50.4609H23.054V57.3245L25.327 54.4737H28.9927L26.1274 58.0527L29.4249 61.9105H25.7592L23.054 58.7499V61.9105H19.8526V50.4609Z" fill="white"/>
<path d="M32.0693 53.6371C31.5891 53.6371 31.1889 53.4873 30.8687 53.1878C30.5486 52.8882 30.3885 52.5061 30.3885 52.0412C30.3885 51.5868 30.5486 51.2098 30.8687 50.9102C31.1889 50.6004 31.5891 50.4454 32.0693 50.4454C32.5388 50.4454 32.9337 50.6004 33.2538 50.9102C33.5846 51.2201 33.75 51.5971 33.75 52.0412C33.75 52.4957 33.5846 52.8779 33.2538 53.1878C32.9337 53.4873 32.5388 53.6371 32.0693 53.6371ZM30.4686 54.4737H33.67V61.9105H30.4686V54.4737Z" fill="white"/>
<path d="M39.6253 62.1429C38.0779 62.1429 36.872 61.8021 36.0077 61.1204C35.1433 60.4386 34.7111 59.4729 34.7111 58.2231C34.7111 56.994 35.1006 56.023 35.8796 55.3103C36.6586 54.5977 37.7791 54.2413 39.2411 54.2413C40.1802 54.2413 40.9805 54.4117 41.6422 54.7526C42.3145 55.0831 42.8214 55.5427 43.1628 56.1315C43.5043 56.7202 43.6751 57.3813 43.6751 58.1146V59.1217H37.7524C38.0086 59.7828 38.7822 60.1133 40.0735 60.1133C40.5857 60.1133 41.1086 60.0771 41.6422 60.0048C42.1864 59.9222 42.6453 59.8086 43.0188 59.664V61.6006C42.6133 61.7659 42.1064 61.895 41.4981 61.988C40.8898 62.0913 40.2656 62.1429 39.6253 62.1429ZM40.6497 57.3245C40.5964 56.994 40.447 56.7409 40.2015 56.5653C39.9561 56.3794 39.6199 56.2864 39.1931 56.2864C38.7662 56.2864 38.4301 56.3794 38.1846 56.5653C37.9499 56.7512 37.8058 57.0043 37.7524 57.3245H40.6497Z" fill="white"/>
<path d="M48.0868 62.1429C47.4465 62.1429 46.7742 62.0861 46.0699 61.9725C45.3763 61.8589 44.8267 61.6936 44.4212 61.4767V59.2921C44.8587 59.54 45.3923 59.7518 46.0219 59.9274C46.6622 60.0926 47.2384 60.1753 47.7506 60.1753C48.0601 60.1753 48.2842 60.1598 48.4229 60.1288C48.5617 60.0875 48.631 60.01 48.631 59.8964C48.631 59.7931 48.5617 59.7156 48.4229 59.664C48.2949 59.6123 48.0494 59.54 47.6866 59.4471L46.9503 59.2457C46.2993 59.0597 45.7818 58.8635 45.3976 58.6569C45.0241 58.44 44.7466 58.1818 44.5652 57.8822C44.3945 57.5724 44.3091 57.185 44.3091 56.7202C44.3091 55.8836 44.6506 55.2639 45.3336 54.861C46.0165 54.4479 46.9503 54.2413 48.1348 54.2413C48.7004 54.2413 49.3087 54.3033 49.9596 54.4272C50.6213 54.5408 51.1121 54.6958 51.4323 54.892V57.0456C51.1015 56.839 50.6586 56.6634 50.1037 56.5188C49.5488 56.3639 49.0419 56.2864 48.583 56.2864C47.9534 56.2864 47.6386 56.3897 47.6386 56.5963C47.6386 56.6893 47.7133 56.7667 47.8627 56.8287C48.0228 56.8907 48.2949 56.963 48.6791 57.0456L49.3514 57.2005C50.045 57.3761 50.5786 57.5775 50.9521 57.8048C51.3256 58.032 51.587 58.3006 51.7364 58.6104C51.8858 58.91 51.9605 59.287 51.9605 59.7414C51.9605 60.4748 51.6244 61.0584 50.9521 61.4922C50.2904 61.926 49.3354 62.1429 48.0868 62.1429Z" fill="white"/>
<path d="M52.9142 51.0807H58.7568C59.8453 51.0807 60.715 51.344 61.366 51.8708C62.0276 52.3873 62.3584 53.1309 62.3584 54.1019C62.3584 54.5357 62.257 54.9437 62.0543 55.3258C61.8622 55.708 61.5794 56.0179 61.2059 56.2554C61.7288 56.4827 62.1076 56.7822 62.3424 57.1541C62.5878 57.5259 62.7106 58.0114 62.7106 58.6104C62.7106 59.2818 62.5452 59.8706 62.2143 60.3767C61.8835 60.8725 61.4353 61.2546 60.8697 61.5232C60.3148 61.7814 59.6959 61.9105 59.0129 61.9105H52.9142V51.0807ZM57.8924 55.2794C58.2552 55.2794 58.5274 55.2019 58.7088 55.047C58.9009 54.892 58.9969 54.6441 58.9969 54.3033C58.9969 53.9521 58.9062 53.7094 58.7248 53.5751C58.5434 53.4305 58.2606 53.3582 57.8764 53.3582H56.2277V55.2794H57.8924ZM58.0845 59.633C58.522 59.633 58.8422 59.5555 59.0449 59.4006C59.2477 59.2457 59.3491 58.9771 59.3491 58.5949C59.3491 58.2231 59.2423 57.9494 59.0289 57.7738C58.8262 57.5982 58.5007 57.5104 58.0525 57.5104H56.2277V59.633H58.0845Z" fill="white"/>
<path d="M68.263 62.1429C66.7157 62.1429 65.5098 61.8021 64.6454 61.1204C63.781 60.4386 63.3488 59.4729 63.3488 58.2231C63.3488 56.994 63.7383 56.023 64.5174 55.3103C65.2964 54.5977 66.4169 54.2413 67.8789 54.2413C68.8179 54.2413 69.6183 54.4117 70.2799 54.7526C70.9522 55.0831 71.4591 55.5427 71.8006 56.1315C72.1421 56.7202 72.3128 57.3813 72.3128 58.1146V59.1217H66.3902C66.6463 59.7828 67.42 60.1133 68.7112 60.1133C69.2235 60.1133 69.7464 60.0771 70.2799 60.0048C70.8242 59.9222 71.283 59.8086 71.6565 59.664V61.6006C71.251 61.7659 70.7441 61.895 70.1359 61.988C69.5276 62.0913 68.9033 62.1429 68.263 62.1429ZM69.2875 57.3245C69.2341 56.994 69.0847 56.7409 68.8393 56.5653C68.5938 56.3794 68.2577 56.2864 67.8308 56.2864C67.404 56.2864 67.0678 56.3794 66.8224 56.5653C66.5876 56.7512 66.4436 57.0043 66.3902 57.3245H69.2875Z" fill="white"/>
<path d="M76.7245 62.1429C76.0843 62.1429 75.412 62.0861 74.7076 61.9725C74.014 61.8589 73.4644 61.6936 73.0589 61.4767V59.2921C73.4964 59.54 74.03 59.7518 74.6596 59.9274C75.2999 60.0926 75.8762 60.1753 76.3884 60.1753C76.6979 60.1753 76.922 60.1598 77.0607 60.1288C77.1994 60.0875 77.2688 60.01 77.2688 59.8964C77.2688 59.7931 77.1994 59.7156 77.0607 59.664C76.9326 59.6123 76.6872 59.54 76.3244 59.4471L75.588 59.2457C74.9371 59.0597 74.4195 58.8635 74.0353 58.6569C73.6618 58.44 73.3844 58.1818 73.203 57.8822C73.0322 57.5724 72.9469 57.185 72.9469 56.7202C72.9469 55.8836 73.2884 55.2639 73.9713 54.861C74.6543 54.4479 75.588 54.2413 76.7726 54.2413C77.3382 54.2413 77.9464 54.3033 78.5974 54.4272C79.259 54.5408 79.7499 54.6958 80.07 54.892V57.0456C79.7392 56.839 79.2964 56.6634 78.7414 56.5188C78.1865 56.3639 77.6796 56.2864 77.2208 56.2864C76.5911 56.2864 76.2763 56.3897 76.2763 56.5963C76.2763 56.6893 76.351 56.7667 76.5004 56.8287C76.6605 56.8907 76.9326 56.963 77.3168 57.0456L77.9891 57.2005C78.6827 57.3761 79.2163 57.5775 79.5898 57.8048C79.9633 58.032 80.2248 58.3006 80.3742 58.6104C80.5236 58.91 80.5983 59.287 80.5983 59.7414C80.5983 60.4748 80.2621 61.0584 79.5898 61.4922C78.9282 61.926 77.9731 62.1429 76.7245 62.1429Z" fill="white"/>
<path d="M84.759 62.1429C83.7666 62.1429 83.0142 61.8744 82.502 61.3373C81.9898 60.8002 81.7337 60.072 81.7337 59.1527V56.5653H80.6772V54.4737H81.7337V52.2427H84.9511V54.4737H86.6638V56.5653H84.9511V58.7034C84.9511 59.0752 85.0204 59.3438 85.1592 59.509C85.3086 59.664 85.554 59.7414 85.8955 59.7414C86.2797 59.7414 86.6478 59.6433 87 59.4471V61.7401C86.6905 61.8744 86.365 61.9725 86.0236 62.0345C85.6927 62.1068 85.2712 62.1429 84.759 62.1429Z" fill="white"/>
</svg>
