<svg width="629" height="915" viewBox="0 0 629 915" fill="none" xmlns="http://www.w3.org/2000/svg">
<g filter="url(#filter0_f)">
<path d="M498.21 294.456C514.873 237.325 458.529 170.638 372.362 145.505C286.195 120.373 202.835 146.314 186.171 203.445C169.508 260.576 225.852 327.264 312.019 352.396C398.186 377.528 481.546 351.587 498.21 294.456Z" fill="url(#paint0_radial)" style="mix-blend-mode:screen"/>
</g>
<g opacity="0.7" filter="url(#filter1_f)">
<path d="M437.106 743.279C482.11 703.801 470.323 616.774 410.781 548.899C351.239 481.024 266.489 458.003 221.486 497.481C176.482 536.959 188.268 623.986 247.81 691.862C307.352 759.737 392.103 782.757 437.106 743.279Z" fill="url(#paint1_radial)"/>
</g>
<path opacity="0.01" d="M46.3108 313.693L22.1863 562.743C19.3898 591.292 45.7682 616.21 80.8698 618.171L336.974 632.613C369.822 634.449 398.913 615.5 403.755 588.997L444.157 373.712C449.249 346.833 427.838 321.414 394.99 315.613L122.858 267.447C85.3775 260.811 49.3577 282.598 46.3108 313.693Z" stroke="#00C0FF" stroke-width="21" stroke-linecap="round" stroke-linejoin="round"/>
<path opacity="0.01" d="M46.3108 313.693L22.1863 562.743C19.3898 591.292 45.7682 616.21 80.8698 618.171L336.974 632.613C369.822 634.449 398.913 615.5 403.755 588.997L444.157 373.712C449.249 346.833 427.838 321.414 394.99 315.613L122.858 267.447C85.3775 260.811 49.3577 282.598 46.3108 313.693Z" stroke="#00C0FF" stroke-width="20" stroke-linecap="round" stroke-linejoin="round"/>
<path opacity="0.01" d="M46.3108 313.693L22.1863 562.743C19.3898 591.292 45.7682 616.21 80.8698 618.171L336.974 632.613C369.822 634.449 398.913 615.5 403.755 588.997L444.157 373.712C449.249 346.833 427.838 321.414 394.99 315.613L122.858 267.447C85.3775 260.811 49.3577 282.598 46.3108 313.693Z" stroke="#00C0FF" stroke-width="19" stroke-linecap="round" stroke-linejoin="round"/>
<path opacity="0.01" d="M46.3108 313.693L22.1863 562.743C19.3898 591.292 45.7682 616.21 80.8698 618.171L336.974 632.613C369.822 634.449 398.913 615.5 403.755 588.997L444.157 373.712C449.249 346.833 427.838 321.414 394.99 315.613L122.858 267.447C85.3775 260.811 49.3577 282.598 46.3108 313.693Z" stroke="#00C0FF" stroke-width="18" stroke-linecap="round" stroke-linejoin="round"/>
<path opacity="0.01" d="M46.3108 313.693L22.1863 562.743C19.3898 591.292 45.7682 616.21 80.8698 618.171L336.974 632.613C369.822 634.449 398.913 615.5 403.755 588.997L444.157 373.712C449.249 346.833 427.838 321.414 394.99 315.613L122.858 267.447C85.3775 260.811 49.3577 282.598 46.3108 313.693Z" stroke="#00C0FF" stroke-width="17" stroke-linecap="round" stroke-linejoin="round"/>
<path opacity="0.02" d="M46.3108 313.693L22.1863 562.743C19.3898 591.292 45.7682 616.21 80.8698 618.171L336.974 632.613C369.822 634.449 398.913 615.5 403.755 588.997L444.157 373.712C449.249 346.833 427.838 321.414 394.99 315.613L122.858 267.447C85.3775 260.811 49.3577 282.598 46.3108 313.693Z" stroke="#00C0FF" stroke-width="16" stroke-linecap="round" stroke-linejoin="round"/>
<path opacity="0.02" d="M46.3108 313.693L22.1863 562.743C19.3898 591.292 45.7682 616.21 80.8698 618.171L336.974 632.613C369.822 634.449 398.913 615.5 403.755 588.997L444.157 373.712C449.249 346.833 427.838 321.414 394.99 315.613L122.858 267.447C85.3775 260.811 49.3577 282.598 46.3108 313.693Z" stroke="#00C0FF" stroke-width="15" stroke-linecap="round" stroke-linejoin="round"/>
<path opacity="0.02" d="M46.3108 313.693L22.1863 562.743C19.3898 591.292 45.7682 616.21 80.8698 618.171L336.974 632.613C369.822 634.449 398.913 615.5 403.755 588.997L444.157 373.712C449.249 346.833 427.838 321.414 394.99 315.613L122.858 267.447C85.3775 260.811 49.3577 282.598 46.3108 313.693Z" stroke="#00C0FF" stroke-width="14" stroke-linecap="round" stroke-linejoin="round"/>
<path opacity="0.03" d="M46.3108 313.693L22.1863 562.743C19.3898 591.292 45.7682 616.21 80.8698 618.171L336.974 632.613C369.822 634.449 398.913 615.5 403.755 588.997L444.157 373.712C449.249 346.833 427.838 321.414 394.99 315.613L122.858 267.447C85.3775 260.811 49.3577 282.598 46.3108 313.693Z" stroke="#00C0FF" stroke-width="13" stroke-linecap="round" stroke-linejoin="round"/>
<path opacity="0.03" d="M46.3108 313.693L22.1863 562.743C19.3898 591.292 45.7682 616.21 80.8698 618.171L336.974 632.613C369.822 634.449 398.913 615.5 403.755 588.997L444.157 373.712C449.249 346.833 427.838 321.414 394.99 315.613L122.858 267.447C85.3775 260.811 49.3577 282.598 46.3108 313.693Z" stroke="#00C0FF" stroke-width="12" stroke-linecap="round" stroke-linejoin="round"/>
<path opacity="0.04" d="M46.3108 313.693L22.1863 562.743C19.3898 591.292 45.7682 616.21 80.8698 618.171L336.974 632.613C369.822 634.449 398.913 615.5 403.755 588.997L444.157 373.712C449.249 346.833 427.838 321.414 394.99 315.613L122.858 267.447C85.3775 260.811 49.3577 282.598 46.3108 313.693Z" stroke="#00C0FF" stroke-width="11" stroke-linecap="round" stroke-linejoin="round"/>
<path opacity="0.04" d="M46.3108 313.693L22.1863 562.743C19.3898 591.292 45.7682 616.21 80.8698 618.171L336.974 632.613C369.822 634.449 398.913 615.5 403.755 588.997L444.157 373.712C449.249 346.833 427.838 321.414 394.99 315.613L122.858 267.447C85.3775 260.811 49.3577 282.598 46.3108 313.693Z" stroke="#00C0FF" stroke-width="10" stroke-linecap="round" stroke-linejoin="round"/>
<path opacity="0.05" d="M46.3108 313.693L22.1863 562.743C19.3898 591.292 45.7682 616.21 80.8698 618.171L336.974 632.613C369.822 634.449 398.913 615.5 403.755 588.997L444.157 373.712C449.249 346.833 427.838 321.414 394.99 315.613L122.858 267.447C85.3775 260.811 49.3577 282.598 46.3108 313.693Z" stroke="#00C0FF" stroke-width="9" stroke-linecap="round" stroke-linejoin="round"/>
<path opacity="0.06" d="M46.3108 313.693L22.1863 562.743C19.3898 591.292 45.7682 616.21 80.8698 618.171L336.974 632.613C369.822 634.449 398.913 615.5 403.755 588.997L444.157 373.712C449.249 346.833 427.838 321.414 394.99 315.613L122.858 267.447C85.3775 260.811 49.3577 282.598 46.3108 313.693Z" stroke="#00C0FF" stroke-width="8" stroke-linecap="round" stroke-linejoin="round"/>
<path opacity="0.07" d="M46.3108 313.693L22.1863 562.743C19.3898 591.292 45.7682 616.21 80.8698 618.171L336.974 632.613C369.822 634.449 398.913 615.5 403.755 588.997L444.157 373.712C449.249 346.833 427.838 321.414 394.99 315.613L122.858 267.447C85.3775 260.811 49.3577 282.598 46.3108 313.693Z" stroke="#00C0FF" stroke-width="7" stroke-linecap="round" stroke-linejoin="round"/>
<path opacity="0.08" d="M46.3108 313.693L22.1863 562.743C19.3898 591.292 45.7682 616.21 80.8698 618.171L336.974 632.613C369.822 634.449 398.913 615.5 403.755 588.997L444.157 373.712C449.249 346.833 427.838 321.414 394.99 315.613L122.858 267.447C85.3775 260.811 49.3577 282.598 46.3108 313.693Z" stroke="#00C0FF" stroke-width="6" stroke-linecap="round" stroke-linejoin="round"/>
<path opacity="0.1" d="M46.3108 313.693L22.1863 562.743C19.3898 591.292 45.7682 616.21 80.8698 618.171L336.974 632.613C369.822 634.449 398.913 615.5 403.755 588.997L444.157 373.712C449.249 346.833 427.838 321.414 394.99 315.613L122.858 267.447C85.3775 260.811 49.3577 282.598 46.3108 313.693Z" stroke="#00C0FF" stroke-width="5" stroke-linecap="round" stroke-linejoin="round"/>
<path opacity="0.15" d="M46.3108 313.693L22.1863 562.743C19.3898 591.292 45.7682 616.21 80.8698 618.171L336.974 632.613C369.822 634.449 398.913 615.5 403.755 588.997L444.157 373.712C449.249 346.833 427.838 321.414 394.99 315.613L122.858 267.447C85.3775 260.811 49.3577 282.598 46.3108 313.693Z" stroke="#00C0FF" stroke-width="4" stroke-linecap="round" stroke-linejoin="round"/>
<path d="M46.3108 313.693L22.1863 562.743C19.3898 591.292 45.7682 616.21 80.8698 618.171L336.974 632.613C369.822 634.449 398.913 615.5 403.755 588.997L444.157 373.712C449.249 346.833 427.838 321.414 394.99 315.613L122.858 267.447C85.3775 260.811 49.3577 282.598 46.3108 313.693Z" stroke="#00C0FF" stroke-width="3" stroke-linecap="round" stroke-linejoin="round"/>
<path d="M46.3108 313.693L22.1863 562.743C19.3898 591.292 45.7682 616.21 80.8698 618.171L336.974 632.613C369.822 634.449 398.913 615.5 403.755 588.997L444.157 373.712C449.249 346.833 427.838 321.414 394.99 315.613L122.858 267.447C85.3775 260.811 49.3577 282.598 46.3108 313.693Z" stroke="#DDF7FF" stroke-width="1.8" stroke-linecap="round" stroke-linejoin="round"/>
<path d="M46.3108 313.693L22.1863 562.743C19.3898 591.292 45.7682 616.21 80.8698 618.171L336.974 632.613C369.822 634.449 398.913 615.5 403.755 588.997L444.157 373.712C449.249 346.833 427.838 321.414 394.99 315.613L122.858 267.447C85.3775 260.811 49.3577 282.598 46.3108 313.693Z" stroke="white" stroke-width="0.6" stroke-linecap="round" stroke-linejoin="round"/>
<path opacity="0.01" d="M15.1739 336.816L46.686 638.957C48.9816 660.703 71.1445 677.523 97.982 677.815L313.767 680.32C340.313 680.612 362.893 664.668 366.274 643.256L424.707 274.543C429.423 244.742 395.49 220.284 359.93 227.963L54.0319 292.073C29.3648 297.249 12.92 316.156 15.1739 336.816Z" stroke="#FF0027" stroke-width="28" stroke-linecap="round" stroke-linejoin="round"/>
<path opacity="0.01" d="M15.1739 336.816L46.686 638.957C48.9816 660.703 71.1445 677.523 97.982 677.815L313.767 680.32C340.313 680.612 362.893 664.668 366.274 643.256L424.707 274.543C429.423 244.742 395.49 220.284 359.93 227.963L54.0319 292.073C29.3648 297.249 12.92 316.156 15.1739 336.816Z" stroke="#FF0027" stroke-width="26.67" stroke-linecap="round" stroke-linejoin="round"/>
<path opacity="0.01" d="M15.1739 336.816L46.686 638.957C48.9816 660.703 71.1445 677.523 97.982 677.815L313.767 680.32C340.313 680.612 362.893 664.668 366.274 643.256L424.707 274.543C429.423 244.742 395.49 220.284 359.93 227.963L54.0319 292.073C29.3648 297.249 12.92 316.156 15.1739 336.816Z" stroke="#FF0027" stroke-width="25.33" stroke-linecap="round" stroke-linejoin="round"/>
<path opacity="0.01" d="M15.1739 336.816L46.686 638.957C48.9816 660.703 71.1445 677.523 97.982 677.815L313.767 680.32C340.313 680.612 362.893 664.668 366.274 643.256L424.707 274.543C429.423 244.742 395.49 220.284 359.93 227.963L54.0319 292.073C29.3648 297.249 12.92 316.156 15.1739 336.816Z" stroke="#FF0027" stroke-width="24" stroke-linecap="round" stroke-linejoin="round"/>
<path opacity="0.01" d="M15.1739 336.816L46.686 638.957C48.9816 660.703 71.1445 677.523 97.982 677.815L313.767 680.32C340.313 680.612 362.893 664.668 366.274 643.256L424.707 274.543C429.423 244.742 395.49 220.284 359.93 227.963L54.0319 292.073C29.3648 297.249 12.92 316.156 15.1739 336.816Z" stroke="#FF0027" stroke-width="22.67" stroke-linecap="round" stroke-linejoin="round"/>
<path opacity="0.02" d="M15.1739 336.816L46.686 638.957C48.9816 660.703 71.1445 677.523 97.982 677.815L313.767 680.32C340.313 680.612 362.893 664.668 366.274 643.256L424.707 274.543C429.423 244.742 395.49 220.284 359.93 227.963L54.0319 292.073C29.3648 297.249 12.92 316.156 15.1739 336.816Z" stroke="#FF0027" stroke-width="21.33" stroke-linecap="round" stroke-linejoin="round"/>
<path opacity="0.02" d="M15.1739 336.816L46.686 638.957C48.9816 660.703 71.1445 677.523 97.982 677.815L313.767 680.32C340.313 680.612 362.893 664.668 366.274 643.256L424.707 274.543C429.423 244.742 395.49 220.284 359.93 227.963L54.0319 292.073C29.3648 297.249 12.92 316.156 15.1739 336.816Z" stroke="#FF0027" stroke-width="20" stroke-linecap="round" stroke-linejoin="round"/>
<path opacity="0.02" d="M15.1739 336.816L46.686 638.957C48.9816 660.703 71.1445 677.523 97.982 677.815L313.767 680.32C340.313 680.612 362.893 664.668 366.274 643.256L424.707 274.543C429.423 244.742 395.49 220.284 359.93 227.963L54.0319 292.073C29.3648 297.249 12.92 316.156 15.1739 336.816Z" stroke="#FF0027" stroke-width="18.67" stroke-linecap="round" stroke-linejoin="round"/>
<path opacity="0.03" d="M15.1739 336.816L46.686 638.957C48.9816 660.703 71.1445 677.523 97.982 677.815L313.767 680.32C340.313 680.612 362.893 664.668 366.274 643.256L424.707 274.543C429.423 244.742 395.49 220.284 359.93 227.963L54.0319 292.073C29.3648 297.249 12.92 316.156 15.1739 336.816Z" stroke="#FF0027" stroke-width="17.33" stroke-linecap="round" stroke-linejoin="round"/>
<path opacity="0.03" d="M15.1739 336.816L46.686 638.957C48.9816 660.703 71.1445 677.523 97.982 677.815L313.767 680.32C340.313 680.612 362.893 664.668 366.274 643.256L424.707 274.543C429.423 244.742 395.49 220.284 359.93 227.963L54.0319 292.073C29.3648 297.249 12.92 316.156 15.1739 336.816Z" stroke="#FF0027" stroke-width="16" stroke-linecap="round" stroke-linejoin="round"/>
<path opacity="0.04" d="M15.1739 336.816L46.686 638.957C48.9816 660.703 71.1445 677.523 97.982 677.815L313.767 680.32C340.313 680.612 362.893 664.668 366.274 643.256L424.707 274.543C429.423 244.742 395.49 220.284 359.93 227.963L54.0319 292.073C29.3648 297.249 12.92 316.156 15.1739 336.816Z" stroke="#FF0027" stroke-width="14.67" stroke-linecap="round" stroke-linejoin="round"/>
<path opacity="0.04" d="M15.1739 336.816L46.686 638.957C48.9816 660.703 71.1445 677.523 97.982 677.815L313.767 680.32C340.313 680.612 362.893 664.668 366.274 643.256L424.707 274.543C429.423 244.742 395.49 220.284 359.93 227.963L54.0319 292.073C29.3648 297.249 12.92 316.156 15.1739 336.816Z" stroke="#FF0027" stroke-width="13.33" stroke-linecap="round" stroke-linejoin="round"/>
<path opacity="0.05" d="M15.1739 336.816L46.686 638.957C48.9816 660.703 71.1445 677.523 97.982 677.815L313.767 680.32C340.313 680.612 362.893 664.668 366.274 643.256L424.707 274.543C429.423 244.742 395.49 220.284 359.93 227.963L54.0319 292.073C29.3648 297.249 12.92 316.156 15.1739 336.816Z" stroke="#FF0027" stroke-width="12" stroke-linecap="round" stroke-linejoin="round"/>
<path opacity="0.06" d="M15.1739 336.816L46.686 638.957C48.9816 660.703 71.1445 677.523 97.982 677.815L313.767 680.32C340.313 680.612 362.893 664.668 366.274 643.256L424.707 274.543C429.423 244.742 395.49 220.284 359.93 227.963L54.0319 292.073C29.3648 297.249 12.92 316.156 15.1739 336.816Z" stroke="#FF0027" stroke-width="10.67" stroke-linecap="round" stroke-linejoin="round"/>
<path opacity="0.07" d="M15.1739 336.816L46.686 638.957C48.9816 660.703 71.1445 677.523 97.982 677.815L313.767 680.32C340.313 680.612 362.893 664.668 366.274 643.256L424.707 274.543C429.423 244.742 395.49 220.284 359.93 227.963L54.0319 292.073C29.3648 297.249 12.92 316.156 15.1739 336.816Z" stroke="#FF0027" stroke-width="9.33" stroke-linecap="round" stroke-linejoin="round"/>
<path opacity="0.08" d="M15.1739 336.816L46.686 638.957C48.9816 660.703 71.1445 677.523 97.982 677.815L313.767 680.32C340.313 680.612 362.893 664.668 366.274 643.256L424.707 274.543C429.423 244.742 395.49 220.284 359.93 227.963L54.0319 292.073C29.3648 297.249 12.92 316.156 15.1739 336.816Z" stroke="#FF0027" stroke-width="8" stroke-linecap="round" stroke-linejoin="round"/>
<path opacity="0.1" d="M15.1739 336.816L46.686 638.957C48.9816 660.703 71.1445 677.523 97.982 677.815L313.767 680.32C340.313 680.612 362.893 664.668 366.274 643.256L424.707 274.543C429.423 244.742 395.49 220.284 359.93 227.963L54.0319 292.073C29.3648 297.249 12.92 316.156 15.1739 336.816Z" stroke="#FF0027" stroke-width="6.67" stroke-linecap="round" stroke-linejoin="round"/>
<path opacity="0.15" d="M15.1739 336.816L46.686 638.957C48.9816 660.703 71.1445 677.523 97.982 677.815L313.767 680.32C340.313 680.612 362.893 664.668 366.274 643.256L424.707 274.543C429.423 244.742 395.49 220.284 359.93 227.963L54.0319 292.073C29.3648 297.249 12.92 316.156 15.1739 336.816Z" stroke="#FF0027" stroke-width="5.33" stroke-linecap="round" stroke-linejoin="round"/>
<path d="M15.1739 336.816L46.686 638.957C48.9816 660.703 71.1445 677.523 97.982 677.815L313.767 680.32C340.313 680.612 362.893 664.668 366.274 643.256L424.707 274.543C429.423 244.742 395.49 220.284 359.93 227.963L54.0319 292.073C29.3648 297.249 12.92 316.156 15.1739 336.816Z" stroke="#FF0027" stroke-width="4" stroke-linecap="round" stroke-linejoin="round"/>
<path d="M15.1739 336.816L46.686 638.957C48.9816 660.703 71.1445 677.523 97.982 677.815L313.767 680.32C340.313 680.612 362.893 664.668 366.274 643.256L424.707 274.543C429.423 244.742 395.49 220.284 359.93 227.963L54.0319 292.073C29.3648 297.249 12.92 316.156 15.1739 336.816Z" stroke="#FFDDE2" stroke-width="2.4" stroke-linecap="round" stroke-linejoin="round"/>
<path d="M15.1739 336.816L46.686 638.957C48.9816 660.703 71.1445 677.523 97.982 677.815L313.767 680.32C340.313 680.612 362.893 664.668 366.274 643.256L424.707 274.543C429.423 244.742 395.49 220.284 359.93 227.963L54.0319 292.073C29.3648 297.249 12.92 316.156 15.1739 336.816Z" stroke="white" stroke-width="0.8" stroke-linecap="round" stroke-linejoin="round"/>
<defs>
<filter id="filter0_f" x="56" y="0" width="572.381" height="497.901" filterUnits="userSpaceOnUse" color-interpolation-filters="sRGB">
<feFlood flood-opacity="0" result="BackgroundImageFix"/>
<feBlend mode="normal" in="SourceGraphic" in2="BackgroundImageFix" result="shape"/>
<feGaussianBlur stdDeviation="50" result="effect1_foregroundBlur"/>
</filter>
<filter id="filter1_f" x="40" y="326" width="578.592" height="588.761" filterUnits="userSpaceOnUse" color-interpolation-filters="sRGB">
<feFlood flood-opacity="0" result="BackgroundImageFix"/>
<feBlend mode="normal" in="SourceGraphic" in2="BackgroundImageFix" result="shape"/>
<feGaussianBlur stdDeviation="50" result="effect1_foregroundBlur"/>
</filter>
<radialGradient id="paint0_radial" cx="0" cy="0" r="1" gradientUnits="userSpaceOnUse" gradientTransform="translate(342.191 248.951) rotate(16.2602) scale(162.52 107.755)">
<stop stop-color="#FF3856" stop-opacity="0.68"/>
<stop offset="1" stop-color="#002347"/>
</radialGradient>
<radialGradient id="paint1_radial" cx="0" cy="0" r="1" gradientUnits="userSpaceOnUse" gradientTransform="translate(329.296 620.38) rotate(48.7419) scale(163.485 108.395)">
<stop stop-color="#30C1F0" stop-opacity="0.85"/>
<stop offset="1" stop-color="#002347"/>
</radialGradient>
</defs>
</svg>
