<svg width="869" height="823" viewBox="0 0 869 823" fill="none" xmlns="http://www.w3.org/2000/svg">
<g opacity="0.7" filter="url(#filter0_f)">
<path d="M233.271 722.146C306.874 722.146 366.541 632.154 366.541 521.143C366.541 410.132 306.874 320.14 233.271 320.14C159.667 320.14 100 410.132 100 521.143C100 632.154 159.667 722.146 233.271 722.146Z" fill="url(#paint0_radial)"/>
</g>
<g filter="url(#filter1_f)">
<path d="M731.383 340.501C751.992 269.842 682.306 187.364 575.736 156.281C469.166 125.198 366.066 157.28 345.457 227.94C324.848 298.599 394.534 381.077 501.104 412.16C607.675 443.244 710.774 411.161 731.383 340.501Z" fill="url(#paint1_radial)" style="mix-blend-mode:screen"/>
</g>
<path opacity="0.01" d="M243.887 270.546L221.636 523.337C220.579 535.446 224.119 547.509 231.552 557.127C238.985 566.745 249.766 573.212 261.75 575.243L530.642 620.607C542.327 622.568 554.325 620.174 564.362 613.877C574.398 607.581 581.775 597.82 585.094 586.447L650.006 363.154C651.822 356.866 652.344 350.275 651.539 343.779C650.734 337.284 648.619 331.019 645.323 325.365C642.027 319.711 637.618 314.784 632.363 310.882C627.108 306.981 621.116 304.187 614.749 302.669L303.353 227.807C296.596 226.18 289.566 226.03 282.745 227.366C275.924 228.702 269.472 231.494 263.827 235.551C258.183 239.607 253.48 244.833 250.039 250.873C246.598 256.912 244.499 263.622 243.887 270.546V270.546Z" stroke="#00C0FF" stroke-width="21" stroke-linecap="round" stroke-linejoin="round"/>
<path opacity="0.01" d="M243.887 270.546L221.636 523.337C220.579 535.446 224.119 547.509 231.552 557.127C238.985 566.745 249.766 573.212 261.75 575.243L530.642 620.607C542.327 622.568 554.325 620.174 564.362 613.877C574.398 607.581 581.775 597.82 585.094 586.447L650.006 363.154C651.822 356.866 652.344 350.275 651.539 343.779C650.734 337.284 648.619 331.019 645.323 325.365C642.027 319.711 637.618 314.784 632.363 310.882C627.108 306.981 621.116 304.187 614.749 302.669L303.353 227.807C296.596 226.18 289.566 226.03 282.745 227.366C275.924 228.702 269.472 231.494 263.827 235.551C258.183 239.607 253.48 244.833 250.039 250.873C246.598 256.912 244.499 263.622 243.887 270.546V270.546Z" stroke="#00C0FF" stroke-width="20" stroke-linecap="round" stroke-linejoin="round"/>
<path opacity="0.01" d="M243.887 270.546L221.636 523.337C220.579 535.446 224.119 547.509 231.552 557.127C238.985 566.745 249.766 573.212 261.75 575.243L530.642 620.607C542.327 622.568 554.325 620.174 564.362 613.877C574.398 607.581 581.775 597.82 585.094 586.447L650.006 363.154C651.822 356.866 652.344 350.275 651.539 343.779C650.734 337.284 648.619 331.019 645.323 325.365C642.027 319.711 637.618 314.784 632.363 310.882C627.108 306.981 621.116 304.187 614.749 302.669L303.353 227.807C296.596 226.18 289.566 226.03 282.745 227.366C275.924 228.702 269.472 231.494 263.827 235.551C258.183 239.607 253.48 244.833 250.039 250.873C246.598 256.912 244.499 263.622 243.887 270.546V270.546Z" stroke="#00C0FF" stroke-width="19" stroke-linecap="round" stroke-linejoin="round"/>
<path opacity="0.01" d="M243.887 270.546L221.636 523.337C220.579 535.446 224.119 547.509 231.552 557.127C238.985 566.745 249.766 573.212 261.75 575.243L530.642 620.607C542.327 622.568 554.325 620.174 564.362 613.877C574.398 607.581 581.775 597.82 585.094 586.447L650.006 363.154C651.822 356.866 652.344 350.275 651.539 343.779C650.734 337.284 648.619 331.019 645.323 325.365C642.027 319.711 637.618 314.784 632.363 310.882C627.108 306.981 621.116 304.187 614.749 302.669L303.353 227.807C296.596 226.18 289.566 226.03 282.745 227.366C275.924 228.702 269.472 231.494 263.827 235.551C258.183 239.607 253.48 244.833 250.039 250.873C246.598 256.912 244.499 263.622 243.887 270.546V270.546Z" stroke="#00C0FF" stroke-width="18" stroke-linecap="round" stroke-linejoin="round"/>
<path opacity="0.01" d="M243.887 270.546L221.636 523.337C220.579 535.446 224.119 547.509 231.552 557.127C238.985 566.745 249.766 573.212 261.75 575.243L530.642 620.607C542.327 622.568 554.325 620.174 564.362 613.877C574.398 607.581 581.775 597.82 585.094 586.447L650.006 363.154C651.822 356.866 652.344 350.275 651.539 343.779C650.734 337.284 648.619 331.019 645.323 325.365C642.027 319.711 637.618 314.784 632.363 310.882C627.108 306.981 621.116 304.187 614.749 302.669L303.353 227.807C296.596 226.18 289.566 226.03 282.745 227.366C275.924 228.702 269.472 231.494 263.827 235.551C258.183 239.607 253.48 244.833 250.039 250.873C246.598 256.912 244.499 263.622 243.887 270.546V270.546Z" stroke="#00C0FF" stroke-width="17" stroke-linecap="round" stroke-linejoin="round"/>
<path opacity="0.02" d="M243.887 270.546L221.636 523.337C220.579 535.446 224.119 547.509 231.552 557.127C238.985 566.745 249.766 573.212 261.75 575.243L530.642 620.607C542.327 622.568 554.325 620.174 564.362 613.877C574.398 607.581 581.775 597.82 585.094 586.447L650.006 363.154C651.822 356.866 652.344 350.275 651.539 343.779C650.734 337.284 648.619 331.019 645.323 325.365C642.027 319.711 637.618 314.784 632.363 310.882C627.108 306.981 621.116 304.187 614.749 302.669L303.353 227.807C296.596 226.18 289.566 226.03 282.745 227.366C275.924 228.702 269.472 231.494 263.827 235.551C258.183 239.607 253.48 244.833 250.039 250.873C246.598 256.912 244.499 263.622 243.887 270.546V270.546Z" stroke="#00C0FF" stroke-width="16" stroke-linecap="round" stroke-linejoin="round"/>
<path opacity="0.02" d="M243.887 270.546L221.636 523.337C220.579 535.446 224.119 547.509 231.552 557.127C238.985 566.745 249.766 573.212 261.75 575.243L530.642 620.607C542.327 622.568 554.325 620.174 564.362 613.877C574.398 607.581 581.775 597.82 585.094 586.447L650.006 363.154C651.822 356.866 652.344 350.275 651.539 343.779C650.734 337.284 648.619 331.019 645.323 325.365C642.027 319.711 637.618 314.784 632.363 310.882C627.108 306.981 621.116 304.187 614.749 302.669L303.353 227.807C296.596 226.18 289.566 226.03 282.745 227.366C275.924 228.702 269.472 231.494 263.827 235.551C258.183 239.607 253.48 244.833 250.039 250.873C246.598 256.912 244.499 263.622 243.887 270.546V270.546Z" stroke="#00C0FF" stroke-width="15" stroke-linecap="round" stroke-linejoin="round"/>
<path opacity="0.02" d="M243.887 270.546L221.636 523.337C220.579 535.446 224.119 547.509 231.552 557.127C238.985 566.745 249.766 573.212 261.75 575.243L530.642 620.607C542.327 622.568 554.325 620.174 564.362 613.877C574.398 607.581 581.775 597.82 585.094 586.447L650.006 363.154C651.822 356.866 652.344 350.275 651.539 343.779C650.734 337.284 648.619 331.019 645.323 325.365C642.027 319.711 637.618 314.784 632.363 310.882C627.108 306.981 621.116 304.187 614.749 302.669L303.353 227.807C296.596 226.18 289.566 226.03 282.745 227.366C275.924 228.702 269.472 231.494 263.827 235.551C258.183 239.607 253.48 244.833 250.039 250.873C246.598 256.912 244.499 263.622 243.887 270.546V270.546Z" stroke="#00C0FF" stroke-width="14" stroke-linecap="round" stroke-linejoin="round"/>
<path opacity="0.03" d="M243.887 270.546L221.636 523.337C220.579 535.446 224.119 547.509 231.552 557.127C238.985 566.745 249.766 573.212 261.75 575.243L530.642 620.607C542.327 622.568 554.325 620.174 564.362 613.877C574.398 607.581 581.775 597.82 585.094 586.447L650.006 363.154C651.822 356.866 652.344 350.275 651.539 343.779C650.734 337.284 648.619 331.019 645.323 325.365C642.027 319.711 637.618 314.784 632.363 310.882C627.108 306.981 621.116 304.187 614.749 302.669L303.353 227.807C296.596 226.18 289.566 226.03 282.745 227.366C275.924 228.702 269.472 231.494 263.827 235.551C258.183 239.607 253.48 244.833 250.039 250.873C246.598 256.912 244.499 263.622 243.887 270.546V270.546Z" stroke="#00C0FF" stroke-width="13" stroke-linecap="round" stroke-linejoin="round"/>
<path opacity="0.03" d="M243.887 270.546L221.636 523.337C220.579 535.446 224.119 547.509 231.552 557.127C238.985 566.745 249.766 573.212 261.75 575.243L530.642 620.607C542.327 622.568 554.325 620.174 564.362 613.877C574.398 607.581 581.775 597.82 585.094 586.447L650.006 363.154C651.822 356.866 652.344 350.275 651.539 343.779C650.734 337.284 648.619 331.019 645.323 325.365C642.027 319.711 637.618 314.784 632.363 310.882C627.108 306.981 621.116 304.187 614.749 302.669L303.353 227.807C296.596 226.18 289.566 226.03 282.745 227.366C275.924 228.702 269.472 231.494 263.827 235.551C258.183 239.607 253.48 244.833 250.039 250.873C246.598 256.912 244.499 263.622 243.887 270.546V270.546Z" stroke="#00C0FF" stroke-width="12" stroke-linecap="round" stroke-linejoin="round"/>
<path opacity="0.04" d="M243.887 270.546L221.636 523.337C220.579 535.446 224.119 547.509 231.552 557.127C238.985 566.745 249.766 573.212 261.75 575.243L530.642 620.607C542.327 622.568 554.325 620.174 564.362 613.877C574.398 607.581 581.775 597.82 585.094 586.447L650.006 363.154C651.822 356.866 652.344 350.275 651.539 343.779C650.734 337.284 648.619 331.019 645.323 325.365C642.027 319.711 637.618 314.784 632.363 310.882C627.108 306.981 621.116 304.187 614.749 302.669L303.353 227.807C296.596 226.18 289.566 226.03 282.745 227.366C275.924 228.702 269.472 231.494 263.827 235.551C258.183 239.607 253.48 244.833 250.039 250.873C246.598 256.912 244.499 263.622 243.887 270.546V270.546Z" stroke="#00C0FF" stroke-width="11" stroke-linecap="round" stroke-linejoin="round"/>
<path opacity="0.04" d="M243.887 270.546L221.636 523.337C220.579 535.446 224.119 547.509 231.552 557.127C238.985 566.745 249.766 573.212 261.75 575.243L530.642 620.607C542.327 622.568 554.325 620.174 564.362 613.877C574.398 607.581 581.775 597.82 585.094 586.447L650.006 363.154C651.822 356.866 652.344 350.275 651.539 343.779C650.734 337.284 648.619 331.019 645.323 325.365C642.027 319.711 637.618 314.784 632.363 310.882C627.108 306.981 621.116 304.187 614.749 302.669L303.353 227.807C296.596 226.18 289.566 226.03 282.745 227.366C275.924 228.702 269.472 231.494 263.827 235.551C258.183 239.607 253.48 244.833 250.039 250.873C246.598 256.912 244.499 263.622 243.887 270.546V270.546Z" stroke="#00C0FF" stroke-width="10" stroke-linecap="round" stroke-linejoin="round"/>
<path opacity="0.05" d="M243.887 270.546L221.636 523.337C220.579 535.446 224.119 547.509 231.552 557.127C238.985 566.745 249.766 573.212 261.75 575.243L530.642 620.607C542.327 622.568 554.325 620.174 564.362 613.877C574.398 607.581 581.775 597.82 585.094 586.447L650.006 363.154C651.822 356.866 652.344 350.275 651.539 343.779C650.734 337.284 648.619 331.019 645.323 325.365C642.027 319.711 637.618 314.784 632.363 310.882C627.108 306.981 621.116 304.187 614.749 302.669L303.353 227.807C296.596 226.18 289.566 226.03 282.745 227.366C275.924 228.702 269.472 231.494 263.827 235.551C258.183 239.607 253.48 244.833 250.039 250.873C246.598 256.912 244.499 263.622 243.887 270.546V270.546Z" stroke="#00C0FF" stroke-width="9" stroke-linecap="round" stroke-linejoin="round"/>
<path opacity="0.06" d="M243.887 270.546L221.636 523.337C220.579 535.446 224.119 547.509 231.552 557.127C238.985 566.745 249.766 573.212 261.75 575.243L530.642 620.607C542.327 622.568 554.325 620.174 564.362 613.877C574.398 607.581 581.775 597.82 585.094 586.447L650.006 363.154C651.822 356.866 652.344 350.275 651.539 343.779C650.734 337.284 648.619 331.019 645.323 325.365C642.027 319.711 637.618 314.784 632.363 310.882C627.108 306.981 621.116 304.187 614.749 302.669L303.353 227.807C296.596 226.18 289.566 226.03 282.745 227.366C275.924 228.702 269.472 231.494 263.827 235.551C258.183 239.607 253.48 244.833 250.039 250.873C246.598 256.912 244.499 263.622 243.887 270.546V270.546Z" stroke="#00C0FF" stroke-width="8" stroke-linecap="round" stroke-linejoin="round"/>
<path opacity="0.07" d="M243.887 270.546L221.636 523.337C220.579 535.446 224.119 547.509 231.552 557.127C238.985 566.745 249.766 573.212 261.75 575.243L530.642 620.607C542.327 622.568 554.325 620.174 564.362 613.877C574.398 607.581 581.775 597.82 585.094 586.447L650.006 363.154C651.822 356.866 652.344 350.275 651.539 343.779C650.734 337.284 648.619 331.019 645.323 325.365C642.027 319.711 637.618 314.784 632.363 310.882C627.108 306.981 621.116 304.187 614.749 302.669L303.353 227.807C296.596 226.18 289.566 226.03 282.745 227.366C275.924 228.702 269.472 231.494 263.827 235.551C258.183 239.607 253.48 244.833 250.039 250.873C246.598 256.912 244.499 263.622 243.887 270.546V270.546Z" stroke="#00C0FF" stroke-width="7" stroke-linecap="round" stroke-linejoin="round"/>
<path opacity="0.08" d="M243.887 270.546L221.636 523.337C220.579 535.446 224.119 547.509 231.552 557.127C238.985 566.745 249.766 573.212 261.75 575.243L530.642 620.607C542.327 622.568 554.325 620.174 564.362 613.877C574.398 607.581 581.775 597.82 585.094 586.447L650.006 363.154C651.822 356.866 652.344 350.275 651.539 343.779C650.734 337.284 648.619 331.019 645.323 325.365C642.027 319.711 637.618 314.784 632.363 310.882C627.108 306.981 621.116 304.187 614.749 302.669L303.353 227.807C296.596 226.18 289.566 226.03 282.745 227.366C275.924 228.702 269.472 231.494 263.827 235.551C258.183 239.607 253.48 244.833 250.039 250.873C246.598 256.912 244.499 263.622 243.887 270.546V270.546Z" stroke="#00C0FF" stroke-width="6" stroke-linecap="round" stroke-linejoin="round"/>
<path opacity="0.1" d="M243.887 270.546L221.636 523.337C220.579 535.446 224.119 547.509 231.552 557.127C238.985 566.745 249.766 573.212 261.75 575.243L530.642 620.607C542.327 622.568 554.325 620.174 564.362 613.877C574.398 607.581 581.775 597.82 585.094 586.447L650.006 363.154C651.822 356.866 652.344 350.275 651.539 343.779C650.734 337.284 648.619 331.019 645.323 325.365C642.027 319.711 637.618 314.784 632.363 310.882C627.108 306.981 621.116 304.187 614.749 302.669L303.353 227.807C296.596 226.18 289.566 226.03 282.745 227.366C275.924 228.702 269.472 231.494 263.827 235.551C258.183 239.607 253.48 244.833 250.039 250.873C246.598 256.912 244.499 263.622 243.887 270.546V270.546Z" stroke="#00C0FF" stroke-width="5" stroke-linecap="round" stroke-linejoin="round"/>
<path opacity="0.15" d="M243.887 270.546L221.636 523.337C220.579 535.446 224.119 547.509 231.552 557.127C238.985 566.745 249.766 573.212 261.75 575.243L530.642 620.607C542.327 622.568 554.325 620.174 564.362 613.877C574.398 607.581 581.775 597.82 585.094 586.447L650.006 363.154C651.822 356.866 652.344 350.275 651.539 343.779C650.734 337.284 648.619 331.019 645.323 325.365C642.027 319.711 637.618 314.784 632.363 310.882C627.108 306.981 621.116 304.187 614.749 302.669L303.353 227.807C296.596 226.18 289.566 226.03 282.745 227.366C275.924 228.702 269.472 231.494 263.827 235.551C258.183 239.607 253.48 244.833 250.039 250.873C246.598 256.912 244.499 263.622 243.887 270.546V270.546Z" stroke="#00C0FF" stroke-width="4" stroke-linecap="round" stroke-linejoin="round"/>
<path d="M243.887 270.546L221.636 523.337C220.579 535.446 224.119 547.509 231.552 557.127C238.985 566.745 249.766 573.212 261.75 575.243L530.642 620.607C542.327 622.568 554.325 620.174 564.362 613.877C574.398 607.581 581.775 597.82 585.094 586.447L650.006 363.154C651.822 356.866 652.344 350.275 651.539 343.779C650.734 337.284 648.619 331.019 645.323 325.365C642.027 319.711 637.618 314.784 632.363 310.882C627.108 306.981 621.116 304.187 614.749 302.669L303.353 227.807C296.596 226.18 289.566 226.03 282.745 227.366C275.924 228.702 269.472 231.494 263.827 235.551C258.183 239.607 253.48 244.833 250.039 250.873C246.598 256.912 244.499 263.622 243.887 270.546V270.546Z" stroke="#00C0FF" stroke-width="3" stroke-linecap="round" stroke-linejoin="round"/>
<path d="M243.887 270.546L221.636 523.337C220.579 535.446 224.119 547.509 231.552 557.127C238.985 566.745 249.766 573.212 261.75 575.243L530.642 620.607C542.327 622.568 554.325 620.174 564.362 613.877C574.398 607.581 581.775 597.82 585.094 586.447L650.006 363.154C651.822 356.866 652.344 350.275 651.539 343.779C650.734 337.284 648.619 331.019 645.323 325.365C642.027 319.711 637.618 314.784 632.363 310.882C627.108 306.981 621.116 304.187 614.749 302.669L303.353 227.807C296.596 226.18 289.566 226.03 282.745 227.366C275.924 228.702 269.472 231.494 263.827 235.551C258.183 239.607 253.48 244.833 250.039 250.873C246.598 256.912 244.499 263.622 243.887 270.546V270.546Z" stroke="#DDF7FF" stroke-width="1.8" stroke-linecap="round" stroke-linejoin="round"/>
<path d="M243.887 270.546L221.636 523.337C220.579 535.446 224.119 547.509 231.552 557.127C238.985 566.745 249.766 573.212 261.75 575.243L530.642 620.607C542.327 622.568 554.325 620.174 564.362 613.877C574.398 607.581 581.775 597.82 585.094 586.447L650.006 363.154C651.822 356.866 652.344 350.275 651.539 343.779C650.734 337.284 648.619 331.019 645.323 325.365C642.027 319.711 637.618 314.784 632.363 310.882C627.108 306.981 621.116 304.187 614.749 302.669L303.353 227.807C296.596 226.18 289.566 226.03 282.745 227.366C275.924 228.702 269.472 231.494 263.827 235.551C258.183 239.607 253.48 244.833 250.039 250.873C246.598 256.912 244.499 263.622 243.887 270.546V270.546Z" stroke="white" stroke-width="0.6" stroke-linecap="round" stroke-linejoin="round"/>
<path opacity="0.01" d="M249.881 559.181L180.778 326.761C179.131 321.256 178.692 315.46 179.493 309.77C180.294 304.08 182.315 298.63 185.418 293.794C188.52 288.957 192.631 284.849 197.47 281.749C202.308 278.649 207.759 276.631 213.449 275.834L612.556 219.737C618.62 218.883 624.799 219.438 630.614 221.358C636.429 223.278 641.724 226.511 646.088 230.807C650.452 235.103 653.768 240.346 655.779 246.13C657.79 251.914 658.443 258.083 657.685 264.16L618.863 574.577C617.586 584.706 612.477 593.961 604.586 600.438C596.695 606.916 586.622 610.124 576.438 609.403L285.256 587.622C277.165 587.046 269.444 584.014 263.122 578.932C256.801 573.849 252.182 566.959 249.881 559.181V559.181Z" stroke="#FF0027" stroke-width="28" stroke-linecap="round" stroke-linejoin="round"/>
<path opacity="0.01" d="M249.881 559.181L180.778 326.761C179.131 321.256 178.692 315.46 179.493 309.77C180.294 304.08 182.315 298.63 185.418 293.794C188.52 288.957 192.631 284.849 197.47 281.749C202.308 278.649 207.759 276.631 213.449 275.834L612.556 219.737C618.62 218.883 624.799 219.438 630.614 221.358C636.429 223.278 641.724 226.511 646.088 230.807C650.452 235.103 653.768 240.346 655.779 246.13C657.79 251.914 658.443 258.083 657.685 264.16L618.863 574.577C617.586 584.706 612.477 593.961 604.586 600.438C596.695 606.916 586.622 610.124 576.438 609.403L285.256 587.622C277.165 587.046 269.444 584.014 263.122 578.932C256.801 573.849 252.182 566.959 249.881 559.181V559.181Z" stroke="#FF0027" stroke-width="26.67" stroke-linecap="round" stroke-linejoin="round"/>
<path opacity="0.01" d="M249.881 559.181L180.778 326.761C179.131 321.256 178.692 315.46 179.493 309.77C180.294 304.08 182.315 298.63 185.418 293.794C188.52 288.957 192.631 284.849 197.47 281.749C202.308 278.649 207.759 276.631 213.449 275.834L612.556 219.737C618.62 218.883 624.799 219.438 630.614 221.358C636.429 223.278 641.724 226.511 646.088 230.807C650.452 235.103 653.768 240.346 655.779 246.13C657.79 251.914 658.443 258.083 657.685 264.16L618.863 574.577C617.586 584.706 612.477 593.961 604.586 600.438C596.695 606.916 586.622 610.124 576.438 609.403L285.256 587.622C277.165 587.046 269.444 584.014 263.122 578.932C256.801 573.849 252.182 566.959 249.881 559.181V559.181Z" stroke="#FF0027" stroke-width="25.33" stroke-linecap="round" stroke-linejoin="round"/>
<path opacity="0.01" d="M249.881 559.181L180.778 326.761C179.131 321.256 178.692 315.46 179.493 309.77C180.294 304.08 182.315 298.63 185.418 293.794C188.52 288.957 192.631 284.849 197.47 281.749C202.308 278.649 207.759 276.631 213.449 275.834L612.556 219.737C618.62 218.883 624.799 219.438 630.614 221.358C636.429 223.278 641.724 226.511 646.088 230.807C650.452 235.103 653.768 240.346 655.779 246.13C657.79 251.914 658.443 258.083 657.685 264.16L618.863 574.577C617.586 584.706 612.477 593.961 604.586 600.438C596.695 606.916 586.622 610.124 576.438 609.403L285.256 587.622C277.165 587.046 269.444 584.014 263.122 578.932C256.801 573.849 252.182 566.959 249.881 559.181V559.181Z" stroke="#FF0027" stroke-width="24" stroke-linecap="round" stroke-linejoin="round"/>
<path opacity="0.01" d="M249.881 559.181L180.778 326.761C179.131 321.256 178.692 315.46 179.493 309.77C180.294 304.08 182.315 298.63 185.418 293.794C188.52 288.957 192.631 284.849 197.47 281.749C202.308 278.649 207.759 276.631 213.449 275.834L612.556 219.737C618.62 218.883 624.799 219.438 630.614 221.358C636.429 223.278 641.724 226.511 646.088 230.807C650.452 235.103 653.768 240.346 655.779 246.13C657.79 251.914 658.443 258.083 657.685 264.16L618.863 574.577C617.586 584.706 612.477 593.961 604.586 600.438C596.695 606.916 586.622 610.124 576.438 609.403L285.256 587.622C277.165 587.046 269.444 584.014 263.122 578.932C256.801 573.849 252.182 566.959 249.881 559.181V559.181Z" stroke="#FF0027" stroke-width="22.67" stroke-linecap="round" stroke-linejoin="round"/>
<path opacity="0.02" d="M249.881 559.181L180.778 326.761C179.131 321.256 178.692 315.46 179.493 309.77C180.294 304.08 182.315 298.63 185.418 293.794C188.52 288.957 192.631 284.849 197.47 281.749C202.308 278.649 207.759 276.631 213.449 275.834L612.556 219.737C618.62 218.883 624.799 219.438 630.614 221.358C636.429 223.278 641.724 226.511 646.088 230.807C650.452 235.103 653.768 240.346 655.779 246.13C657.79 251.914 658.443 258.083 657.685 264.16L618.863 574.577C617.586 584.706 612.477 593.961 604.586 600.438C596.695 606.916 586.622 610.124 576.438 609.403L285.256 587.622C277.165 587.046 269.444 584.014 263.122 578.932C256.801 573.849 252.182 566.959 249.881 559.181V559.181Z" stroke="#FF0027" stroke-width="21.33" stroke-linecap="round" stroke-linejoin="round"/>
<path opacity="0.02" d="M249.881 559.181L180.778 326.761C179.131 321.256 178.692 315.46 179.493 309.77C180.294 304.08 182.315 298.63 185.418 293.794C188.52 288.957 192.631 284.849 197.47 281.749C202.308 278.649 207.759 276.631 213.449 275.834L612.556 219.737C618.62 218.883 624.799 219.438 630.614 221.358C636.429 223.278 641.724 226.511 646.088 230.807C650.452 235.103 653.768 240.346 655.779 246.13C657.79 251.914 658.443 258.083 657.685 264.16L618.863 574.577C617.586 584.706 612.477 593.961 604.586 600.438C596.695 606.916 586.622 610.124 576.438 609.403L285.256 587.622C277.165 587.046 269.444 584.014 263.122 578.932C256.801 573.849 252.182 566.959 249.881 559.181V559.181Z" stroke="#FF0027" stroke-width="20" stroke-linecap="round" stroke-linejoin="round"/>
<path opacity="0.02" d="M249.881 559.181L180.778 326.761C179.131 321.256 178.692 315.46 179.493 309.77C180.294 304.08 182.315 298.63 185.418 293.794C188.52 288.957 192.631 284.849 197.47 281.749C202.308 278.649 207.759 276.631 213.449 275.834L612.556 219.737C618.62 218.883 624.799 219.438 630.614 221.358C636.429 223.278 641.724 226.511 646.088 230.807C650.452 235.103 653.768 240.346 655.779 246.13C657.79 251.914 658.443 258.083 657.685 264.16L618.863 574.577C617.586 584.706 612.477 593.961 604.586 600.438C596.695 606.916 586.622 610.124 576.438 609.403L285.256 587.622C277.165 587.046 269.444 584.014 263.122 578.932C256.801 573.849 252.182 566.959 249.881 559.181V559.181Z" stroke="#FF0027" stroke-width="18.67" stroke-linecap="round" stroke-linejoin="round"/>
<path opacity="0.03" d="M249.881 559.181L180.778 326.761C179.131 321.256 178.692 315.46 179.493 309.77C180.294 304.08 182.315 298.63 185.418 293.794C188.52 288.957 192.631 284.849 197.47 281.749C202.308 278.649 207.759 276.631 213.449 275.834L612.556 219.737C618.62 218.883 624.799 219.438 630.614 221.358C636.429 223.278 641.724 226.511 646.088 230.807C650.452 235.103 653.768 240.346 655.779 246.13C657.79 251.914 658.443 258.083 657.685 264.16L618.863 574.577C617.586 584.706 612.477 593.961 604.586 600.438C596.695 606.916 586.622 610.124 576.438 609.403L285.256 587.622C277.165 587.046 269.444 584.014 263.122 578.932C256.801 573.849 252.182 566.959 249.881 559.181V559.181Z" stroke="#FF0027" stroke-width="17.33" stroke-linecap="round" stroke-linejoin="round"/>
<path opacity="0.03" d="M249.881 559.181L180.778 326.761C179.131 321.256 178.692 315.46 179.493 309.77C180.294 304.08 182.315 298.63 185.418 293.794C188.52 288.957 192.631 284.849 197.47 281.749C202.308 278.649 207.759 276.631 213.449 275.834L612.556 219.737C618.62 218.883 624.799 219.438 630.614 221.358C636.429 223.278 641.724 226.511 646.088 230.807C650.452 235.103 653.768 240.346 655.779 246.13C657.79 251.914 658.443 258.083 657.685 264.16L618.863 574.577C617.586 584.706 612.477 593.961 604.586 600.438C596.695 606.916 586.622 610.124 576.438 609.403L285.256 587.622C277.165 587.046 269.444 584.014 263.122 578.932C256.801 573.849 252.182 566.959 249.881 559.181V559.181Z" stroke="#FF0027" stroke-width="16" stroke-linecap="round" stroke-linejoin="round"/>
<path opacity="0.04" d="M249.881 559.181L180.778 326.761C179.131 321.256 178.692 315.46 179.493 309.77C180.294 304.08 182.315 298.63 185.418 293.794C188.52 288.957 192.631 284.849 197.47 281.749C202.308 278.649 207.759 276.631 213.449 275.834L612.556 219.737C618.62 218.883 624.799 219.438 630.614 221.358C636.429 223.278 641.724 226.511 646.088 230.807C650.452 235.103 653.768 240.346 655.779 246.13C657.79 251.914 658.443 258.083 657.685 264.16L618.863 574.577C617.586 584.706 612.477 593.961 604.586 600.438C596.695 606.916 586.622 610.124 576.438 609.403L285.256 587.622C277.165 587.046 269.444 584.014 263.122 578.932C256.801 573.849 252.182 566.959 249.881 559.181V559.181Z" stroke="#FF0027" stroke-width="14.67" stroke-linecap="round" stroke-linejoin="round"/>
<path opacity="0.04" d="M249.881 559.181L180.778 326.761C179.131 321.256 178.692 315.46 179.493 309.77C180.294 304.08 182.315 298.63 185.418 293.794C188.52 288.957 192.631 284.849 197.47 281.749C202.308 278.649 207.759 276.631 213.449 275.834L612.556 219.737C618.62 218.883 624.799 219.438 630.614 221.358C636.429 223.278 641.724 226.511 646.088 230.807C650.452 235.103 653.768 240.346 655.779 246.13C657.79 251.914 658.443 258.083 657.685 264.16L618.863 574.577C617.586 584.706 612.477 593.961 604.586 600.438C596.695 606.916 586.622 610.124 576.438 609.403L285.256 587.622C277.165 587.046 269.444 584.014 263.122 578.932C256.801 573.849 252.182 566.959 249.881 559.181V559.181Z" stroke="#FF0027" stroke-width="13.33" stroke-linecap="round" stroke-linejoin="round"/>
<path opacity="0.05" d="M249.881 559.181L180.778 326.761C179.131 321.256 178.692 315.46 179.493 309.77C180.294 304.08 182.315 298.63 185.418 293.794C188.52 288.957 192.631 284.849 197.47 281.749C202.308 278.649 207.759 276.631 213.449 275.834L612.556 219.737C618.62 218.883 624.799 219.438 630.614 221.358C636.429 223.278 641.724 226.511 646.088 230.807C650.452 235.103 653.768 240.346 655.779 246.13C657.79 251.914 658.443 258.083 657.685 264.16L618.863 574.577C617.586 584.706 612.477 593.961 604.586 600.438C596.695 606.916 586.622 610.124 576.438 609.403L285.256 587.622C277.165 587.046 269.444 584.014 263.122 578.932C256.801 573.849 252.182 566.959 249.881 559.181V559.181Z" stroke="#FF0027" stroke-width="12" stroke-linecap="round" stroke-linejoin="round"/>
<path opacity="0.06" d="M249.881 559.181L180.778 326.761C179.131 321.256 178.692 315.46 179.493 309.77C180.294 304.08 182.315 298.63 185.418 293.794C188.52 288.957 192.631 284.849 197.47 281.749C202.308 278.649 207.759 276.631 213.449 275.834L612.556 219.737C618.62 218.883 624.799 219.438 630.614 221.358C636.429 223.278 641.724 226.511 646.088 230.807C650.452 235.103 653.768 240.346 655.779 246.13C657.79 251.914 658.443 258.083 657.685 264.16L618.863 574.577C617.586 584.706 612.477 593.961 604.586 600.438C596.695 606.916 586.622 610.124 576.438 609.403L285.256 587.622C277.165 587.046 269.444 584.014 263.122 578.932C256.801 573.849 252.182 566.959 249.881 559.181V559.181Z" stroke="#FF0027" stroke-width="10.67" stroke-linecap="round" stroke-linejoin="round"/>
<path opacity="0.07" d="M249.881 559.181L180.778 326.761C179.131 321.256 178.692 315.46 179.493 309.77C180.294 304.08 182.315 298.63 185.418 293.794C188.52 288.957 192.631 284.849 197.47 281.749C202.308 278.649 207.759 276.631 213.449 275.834L612.556 219.737C618.62 218.883 624.799 219.438 630.614 221.358C636.429 223.278 641.724 226.511 646.088 230.807C650.452 235.103 653.768 240.346 655.779 246.13C657.79 251.914 658.443 258.083 657.685 264.16L618.863 574.577C617.586 584.706 612.477 593.961 604.586 600.438C596.695 606.916 586.622 610.124 576.438 609.403L285.256 587.622C277.165 587.046 269.444 584.014 263.122 578.932C256.801 573.849 252.182 566.959 249.881 559.181V559.181Z" stroke="#FF0027" stroke-width="9.33" stroke-linecap="round" stroke-linejoin="round"/>
<path opacity="0.08" d="M249.881 559.181L180.778 326.761C179.131 321.256 178.692 315.46 179.493 309.77C180.294 304.08 182.315 298.63 185.418 293.794C188.52 288.957 192.631 284.849 197.47 281.749C202.308 278.649 207.759 276.631 213.449 275.834L612.556 219.737C618.62 218.883 624.799 219.438 630.614 221.358C636.429 223.278 641.724 226.511 646.088 230.807C650.452 235.103 653.768 240.346 655.779 246.13C657.79 251.914 658.443 258.083 657.685 264.16L618.863 574.577C617.586 584.706 612.477 593.961 604.586 600.438C596.695 606.916 586.622 610.124 576.438 609.403L285.256 587.622C277.165 587.046 269.444 584.014 263.122 578.932C256.801 573.849 252.182 566.959 249.881 559.181V559.181Z" stroke="#FF0027" stroke-width="8" stroke-linecap="round" stroke-linejoin="round"/>
<path opacity="0.1" d="M249.881 559.181L180.778 326.761C179.131 321.256 178.692 315.46 179.493 309.77C180.294 304.08 182.315 298.63 185.418 293.794C188.52 288.957 192.631 284.849 197.47 281.749C202.308 278.649 207.759 276.631 213.449 275.834L612.556 219.737C618.62 218.883 624.799 219.438 630.614 221.358C636.429 223.278 641.724 226.511 646.088 230.807C650.452 235.103 653.768 240.346 655.779 246.13C657.79 251.914 658.443 258.083 657.685 264.16L618.863 574.577C617.586 584.706 612.477 593.961 604.586 600.438C596.695 606.916 586.622 610.124 576.438 609.403L285.256 587.622C277.165 587.046 269.444 584.014 263.122 578.932C256.801 573.849 252.182 566.959 249.881 559.181V559.181Z" stroke="#FF0027" stroke-width="6.67" stroke-linecap="round" stroke-linejoin="round"/>
<path opacity="0.15" d="M249.881 559.181L180.778 326.761C179.131 321.256 178.692 315.46 179.493 309.77C180.294 304.08 182.315 298.63 185.418 293.794C188.52 288.957 192.631 284.849 197.47 281.749C202.308 278.649 207.759 276.631 213.449 275.834L612.556 219.737C618.62 218.883 624.799 219.438 630.614 221.358C636.429 223.278 641.724 226.511 646.088 230.807C650.452 235.103 653.768 240.346 655.779 246.13C657.79 251.914 658.443 258.083 657.685 264.16L618.863 574.577C617.586 584.706 612.477 593.961 604.586 600.438C596.695 606.916 586.622 610.124 576.438 609.403L285.256 587.622C277.165 587.046 269.444 584.014 263.122 578.932C256.801 573.849 252.182 566.959 249.881 559.181V559.181Z" stroke="#FF0027" stroke-width="5.33" stroke-linecap="round" stroke-linejoin="round"/>
<path d="M249.881 559.181L180.778 326.761C179.131 321.256 178.692 315.46 179.493 309.77C180.294 304.08 182.315 298.63 185.418 293.794C188.52 288.957 192.631 284.849 197.47 281.749C202.308 278.649 207.759 276.631 213.449 275.834L612.556 219.737C618.62 218.883 624.799 219.438 630.614 221.358C636.429 223.278 641.724 226.511 646.088 230.807C650.452 235.103 653.768 240.346 655.779 246.13C657.79 251.914 658.443 258.083 657.685 264.16L618.863 574.577C617.586 584.706 612.477 593.961 604.586 600.438C596.695 606.916 586.622 610.124 576.438 609.403L285.256 587.622C277.165 587.046 269.444 584.014 263.122 578.932C256.801 573.849 252.182 566.959 249.881 559.181V559.181Z" stroke="#FF0027" stroke-width="4" stroke-linecap="round" stroke-linejoin="round"/>
<path d="M249.881 559.181L180.778 326.761C179.131 321.256 178.692 315.46 179.493 309.77C180.294 304.08 182.315 298.63 185.418 293.794C188.52 288.957 192.631 284.849 197.47 281.749C202.308 278.649 207.759 276.631 213.449 275.834L612.556 219.737C618.62 218.883 624.799 219.438 630.614 221.358C636.429 223.278 641.724 226.511 646.088 230.807C650.452 235.103 653.768 240.346 655.779 246.13C657.79 251.914 658.443 258.083 657.685 264.16L618.863 574.577C617.586 584.706 612.477 593.961 604.586 600.438C596.695 606.916 586.622 610.124 576.438 609.403L285.256 587.622C277.165 587.046 269.444 584.014 263.122 578.932C256.801 573.849 252.182 566.959 249.881 559.181V559.181Z" stroke="#FFDDE2" stroke-width="2.4" stroke-linecap="round" stroke-linejoin="round"/>
<path d="M249.881 559.181L180.778 326.761C179.131 321.256 178.692 315.46 179.493 309.77C180.294 304.08 182.315 298.63 185.418 293.794C188.52 288.957 192.631 284.849 197.47 281.749C202.308 278.649 207.759 276.631 213.449 275.834L612.556 219.737C618.62 218.883 624.799 219.438 630.614 221.358C636.429 223.278 641.724 226.511 646.088 230.807C650.452 235.103 653.768 240.346 655.779 246.13C657.79 251.914 658.443 258.083 657.685 264.16L618.863 574.577C617.586 584.706 612.477 593.961 604.586 600.438C596.695 606.916 586.622 610.124 576.438 609.403L285.256 587.622C277.165 587.046 269.444 584.014 263.122 578.932C256.801 573.849 252.182 566.959 249.881 559.181V559.181Z" stroke="white" stroke-width="0.8" stroke-linecap="round" stroke-linejoin="round"/>
<defs>
<filter id="filter0_f" x="0" y="220.14" width="466.541" height="602.006" filterUnits="userSpaceOnUse" color-interpolation-filters="sRGB">
<feFlood flood-opacity="0" result="BackgroundImageFix"/>
<feBlend mode="normal" in="SourceGraphic" in2="BackgroundImageFix" result="shape"/>
<feGaussianBlur stdDeviation="50" result="effect1_foregroundBlur"/>
</filter>
<filter id="filter1_f" x="208.142" y="-0.000244141" width="660.557" height="568.441" filterUnits="userSpaceOnUse" color-interpolation-filters="sRGB">
<feFlood flood-opacity="0" result="BackgroundImageFix"/>
<feBlend mode="normal" in="SourceGraphic" in2="BackgroundImageFix" result="shape"/>
<feGaussianBlur stdDeviation="50" result="effect1_foregroundBlur"/>
</filter>
<radialGradient id="paint0_radial" cx="0" cy="0" r="1" gradientUnits="userSpaceOnUse" gradientTransform="translate(233.271 521.143) rotate(90) scale(201.003 133.271)">
<stop stop-color="#30C1F0" stop-opacity="0.85"/>
<stop offset="1" stop-color="#002347"/>
</radialGradient>
<radialGradient id="paint1_radial" cx="0" cy="0" r="1" gradientUnits="userSpaceOnUse" gradientTransform="translate(538.42 284.221) rotate(16.2602) scale(201.003 133.271)">
<stop stop-color="#FF3856" stop-opacity="0.68"/>
<stop offset="1" stop-color="#002347"/>
</radialGradient>
</defs>
</svg>
