<svg width="45" height="45" viewBox="0 0 45 45" fill="none" xmlns="http://www.w3.org/2000/svg">
<path d="M20.9637 7.64654L16.8737 3.36451C16.3873 2.85509 15.7315 2.56567 15.0273 2.54959C14.3217 2.53289 13.6549 2.79252 13.1457 3.27899L0.815785 15.0561C0.306458 15.5425 0.0170346 16.1982 0.000950615 16.9024C-0.0151334 17.6066 0.24388 18.2748 0.730355 18.784L8.70133 27.1293V12.92C8.70133 10.0122 11.067 7.64654 13.9748 7.64654H20.9637Z" fill="url(#paint0_linear)"/>
<path d="M43.0112 7.95044L26.4836 3.75937C25.8009 3.58596 25.0916 3.68924 24.4864 4.04959C23.8811 4.40994 23.4526 4.98439 23.2795 5.66695L22.7776 7.64651H31.0254C33.9332 7.64651 36.2989 10.0122 36.2989 12.9199V39.1558C36.578 39.0964 36.8486 38.9915 37.101 38.8412C37.7062 38.4808 38.1348 37.9065 38.308 37.2238L44.9188 11.1544C45.2762 9.74507 44.4204 8.3078 43.0112 7.95044Z" fill="url(#paint1_linear)"/>
<path d="M31.0254 10.2832H13.9746C12.5207 10.2832 11.3379 11.466 11.3379 12.9199V39.8145C11.3379 41.2683 12.5207 42.4512 13.9746 42.4512H31.0254C32.4793 42.4512 33.6621 41.2683 33.6621 39.8145V12.9199C33.6621 11.466 32.4793 10.2832 31.0254 10.2832ZM17.5781 15.2052C18.3062 15.2052 18.8965 15.7954 18.8965 16.5235C18.8965 17.2516 18.3062 17.8419 17.5781 17.8419C16.85 17.8419 16.2598 17.2516 16.2598 16.5235C16.2598 15.7954 16.85 15.2052 17.5781 15.2052ZM22.5 32.6074C22.1856 32.6074 21.8713 32.4955 21.621 32.2717L17.6897 28.755C17.6809 28.7471 17.6723 28.7391 17.6636 28.731C16.6772 27.7995 16.2027 26.3909 16.3942 24.963C16.5763 23.6048 17.3499 22.4392 18.4635 21.8449C19.0045 21.5568 19.5759 21.411 20.1629 21.411C21.0534 21.411 21.8674 21.7503 22.5 22.3187C23.1326 21.7503 23.9466 21.411 24.8371 21.411C25.4241 21.411 25.9955 21.5568 26.5354 21.8443C27.6501 22.4392 28.4236 23.6047 28.6058 24.9629C28.7973 26.3908 28.3228 27.7995 27.3364 28.7309C27.3277 28.7391 27.3191 28.7471 27.3103 28.7549L23.379 32.2716C23.1288 32.4955 22.8144 32.6074 22.5 32.6074ZM27.4219 37.5291C26.6938 37.5291 26.1035 36.9389 26.1035 36.2108C26.1035 35.4827 26.6938 34.8924 27.4219 34.8924C28.15 34.8924 28.7402 35.4827 28.7402 36.2108C28.7402 36.9388 28.15 37.5291 27.4219 37.5291Z" fill="url(#paint2_linear)"/>
<defs>
<linearGradient id="paint0_linear" x1="10.4819" y1="2.54883" x2="10.4819" y2="27.1293" gradientUnits="userSpaceOnUse">
<stop stop-color="#C93F8B"/>
<stop offset="1" stop-color="#A776C8"/>
</linearGradient>
<linearGradient id="paint1_linear" x1="33.8888" y1="3.67725" x2="33.8888" y2="39.1558" gradientUnits="userSpaceOnUse">
<stop stop-color="#C93F8B"/>
<stop offset="1" stop-color="#A776C8"/>
</linearGradient>
<linearGradient id="paint2_linear" x1="22.5" y1="10.2832" x2="22.5" y2="42.4512" gradientUnits="userSpaceOnUse">
<stop stop-color="#C93F8B"/>
<stop offset="1" stop-color="#A776C8"/>
</linearGradient>
</defs>
</svg>
