<svg width="46" height="45" viewBox="0 0 46 45" fill="none" xmlns="http://www.w3.org/2000/svg">
<path d="M24.3477 28.9113C25.897 28.5391 27.043 27.5635 27.043 26.4423C27.043 25.3211 25.897 24.3455 24.3477 23.9733V28.9113Z" fill="url(#paint0_linear)"/>
<path d="M23 7.99805C14.8259 7.99805 8.17578 14.5036 8.17578 22.5C8.17578 30.4964 14.8259 37.002 23 37.002C31.1741 37.002 37.8242 30.4964 37.8242 22.5C37.8242 14.5036 31.1741 7.99805 23 7.99805ZM29.7383 26.4422C29.7383 28.9893 27.4195 31.1191 24.3477 31.609V33.0469C24.3477 33.7756 23.7449 34.3652 23 34.3652C22.2551 34.3652 21.6523 33.7756 21.6523 33.0469V31.609C18.5805 31.1191 16.2617 28.9893 16.2617 26.4422C16.2617 25.7135 16.8645 25.1239 17.6094 25.1239C18.3543 25.1239 18.957 25.7135 18.957 26.4422C18.957 27.5635 20.103 28.5391 21.6523 28.9113V23.6988C18.5805 23.2089 16.2617 21.0792 16.2617 18.5321C16.2617 15.985 18.5805 13.8553 21.6523 13.3654V11.9403C21.6523 11.2116 22.2551 10.6219 23 10.6219C23.7449 10.6219 24.3477 11.2116 24.3477 11.9403V13.3654C27.4195 13.8553 29.7383 15.985 29.7383 18.5321C29.7383 19.2608 29.1355 19.8504 28.3906 19.8504C27.6457 19.8504 27.043 19.2608 27.043 18.5321C27.043 17.4109 25.897 16.4353 24.3477 16.0631V21.2755C27.4195 21.7653 29.7383 23.8951 29.7383 26.4422Z" fill="url(#paint1_linear)"/>
<path d="M21.6523 16.063C20.103 16.4352 18.957 17.4108 18.957 18.532C18.957 19.6532 20.103 20.6288 21.6523 21.001V16.063Z" fill="url(#paint2_linear)"/>
<path d="M23 0C10.3671 0 0 10.1417 0 22.5C0 34.8583 10.3671 45 23 45C35.6329 45 46 34.8583 46 22.5C46 10.1417 35.6329 0 23 0ZM23 39.6387C13.34 39.6387 5.48047 31.95 5.48047 22.5C5.48047 13.05 13.34 5.36133 23 5.36133C32.66 5.36133 40.5195 13.05 40.5195 22.5C40.5195 31.95 32.66 39.6387 23 39.6387Z" fill="url(#paint3_linear)"/>
<defs>
<linearGradient id="paint0_linear" x1="25.6953" y1="23.9733" x2="25.6953" y2="28.9113" gradientUnits="userSpaceOnUse">
<stop stop-color="#FFEA00"/>
<stop offset="1" stop-color="#FF9400"/>
</linearGradient>
<linearGradient id="paint1_linear" x1="23" y1="7.99805" x2="23" y2="37.002" gradientUnits="userSpaceOnUse">
<stop stop-color="#FFEA00"/>
<stop offset="1" stop-color="#FF9400"/>
</linearGradient>
<linearGradient id="paint2_linear" x1="20.3047" y1="16.063" x2="20.3047" y2="21.001" gradientUnits="userSpaceOnUse">
<stop stop-color="#FFEA00"/>
<stop offset="1" stop-color="#FF9400"/>
</linearGradient>
<linearGradient id="paint3_linear" x1="23" y1="0" x2="23" y2="45" gradientUnits="userSpaceOnUse">
<stop stop-color="#FFEA00"/>
<stop offset="1" stop-color="#FF9400"/>
</linearGradient>
</defs>
</svg>
