<svg width="83" height="84" viewBox="0 0 83 84" fill="none" xmlns="http://www.w3.org/2000/svg">
<g clip-path="url(#clip0)">
<path d="M60.7773 81.8864C59.4404 83.2394 57.6237 84 55.7289 84H27.2712C25.3764 84 23.5596 83.2394 22.2227 81.8863L2.07593 61.4969C0.746427 60.1513 0 58.3299 0 56.4311V27.5678C0 25.669 0.746428 23.8475 2.07593 22.502L22.2215 2.11371C23.5585 0.760637 25.3752 0 27.2701 0H55.7299C57.6248 0 59.4415 0.760635 60.7785 2.11371L80.9241 22.502C82.2536 23.8475 83 25.669 83 27.5678V56.4321C83 58.3309 82.2535 60.1525 80.924 61.498L60.7773 81.8864Z" fill="#212329"/>
<path d="M60.7773 81.8864C59.4404 83.2394 57.6237 84 55.7289 84H27.2712C25.3764 84 23.5596 83.2394 22.2227 81.8863L2.07593 61.4968C0.746427 60.1513 0 58.3299 0 56.4311V27.5678C0 25.669 0.746429 23.8475 2.07593 22.502L22.2215 2.11371C23.5585 0.760637 25.3752 0 27.2701 0H55.7299C57.6248 0 59.4415 0.760635 60.7785 2.11371L80.9241 22.502C82.2536 23.8475 83 25.669 83 27.5678V56.4321C83 58.3309 82.2535 60.1525 80.924 61.498L60.7773 81.8864ZM23.6169 78.4779C24.9539 79.831 26.7707 80.5916 28.6655 80.5916H54.3346C56.2294 80.5916 58.0461 79.831 59.3831 78.478L77.5561 60.0869C78.8857 58.7414 79.6322 56.9199 79.6322 55.021V28.9799C79.6322 27.0812 78.8858 25.2598 77.5564 23.9143L59.3831 5.52109C58.0461 4.16795 56.2293 3.40726 54.3344 3.40726H28.6655C26.7707 3.40726 24.9539 4.1679 23.6169 5.52097L5.44376 23.9131C4.11425 25.2586 3.36782 27.0801 3.36782 28.9789V55.02C3.36782 56.9188 4.11425 58.7402 5.44375 60.0858L23.6169 78.4779Z" fill="url(#paint0_linear)"/>
<path d="M37.6083 36.6504C36.9232 36.6504 36.3615 37.2209 36.3615 37.9165C36.3615 38.6122 36.9232 39.1826 37.6083 39.1826C38.2934 39.1826 38.8551 38.6122 38.8551 37.9165C38.8551 37.2139 38.3002 36.6504 37.6083 36.6504ZM37.6083 38.4243C37.3343 38.4243 37.1082 38.1948 37.1082 37.9165C37.1082 37.6383 37.3343 37.4087 37.6083 37.4087C37.8823 37.4087 38.1084 37.6383 38.1084 37.9165C38.1084 38.1948 37.8892 38.4243 37.6083 38.4243ZM58.0646 29.7287C58.5921 29.7287 59.0168 29.2904 59.0168 28.7617C59.0168 28.2261 58.5921 27.7948 58.0646 27.7948C57.537 27.7948 57.1123 28.2261 57.1123 28.7617C57.1054 29.2904 57.537 29.7287 58.0646 29.7287ZM58.0646 28.5461C58.181 28.5461 58.2701 28.6435 58.2701 28.7548C58.2701 28.873 58.1742 28.9635 58.0646 28.9635C57.9481 28.9635 57.859 28.8661 57.859 28.7548C57.8522 28.6435 57.9481 28.5461 58.0646 28.5461ZM46.6033 24.9217C47.535 24.9217 48.2954 24.1496 48.2954 23.2035C48.2954 22.2574 47.535 21.4852 46.6033 21.4852C45.6716 21.4852 44.9112 22.2574 44.9112 23.2035C44.9112 24.1496 45.6716 24.9217 46.6033 24.9217ZM46.6033 22.2504C47.124 22.2504 47.5487 22.6817 47.5487 23.2104C47.5487 23.7391 47.124 24.1704 46.6033 24.1704C46.0826 24.1704 45.6579 23.7391 45.6579 23.2104C45.6579 22.6748 46.0826 22.2504 46.6033 22.2504ZM28.0584 21.5756H28.6065V22.1322C28.6065 22.3409 28.7709 22.5078 28.9764 22.5078C29.1819 22.5078 29.3464 22.3409 29.3464 22.1322V21.5756H29.8944C30.0999 21.5756 30.2643 21.4087 30.2643 21.2C30.2643 20.9913 30.0999 20.8243 29.8944 20.8243H29.3464V20.2678C29.3464 20.0591 29.1819 19.8922 28.9764 19.8922C28.7709 19.8922 28.6065 20.0591 28.6065 20.2678V20.8243H28.0584C27.8529 20.8243 27.6885 20.9913 27.6885 21.2C27.6885 21.4017 27.8529 21.5756 28.0584 21.5756ZM56.3793 39.9687H55.8312V39.4122C55.8312 39.2035 55.6668 39.0365 55.4613 39.0365C55.2558 39.0365 55.0913 39.2035 55.0913 39.4122V39.9687H54.5433C54.3378 39.9687 54.1733 40.1356 54.1733 40.3443C54.1733 40.553 54.3378 40.72 54.5433 40.72H55.0913V41.2765C55.0913 41.4852 55.2558 41.6522 55.4613 41.6522C55.6668 41.6522 55.8312 41.4852 55.8312 41.2765V40.72H56.3793C56.5848 40.72 56.7492 40.553 56.7492 40.3443C56.7492 40.1356 56.5916 39.9687 56.3793 39.9687ZM52.6936 21.2139C52.7689 21.2904 52.8649 21.3252 52.9608 21.3252C53.0567 21.3252 53.1526 21.2904 53.2279 21.2139L53.6184 20.8174L54.0089 21.2139C54.0843 21.2904 54.1802 21.3252 54.2761 21.3252C54.372 21.3252 54.4679 21.2904 54.5433 21.2139C54.6871 21.0678 54.6871 20.8243 54.5433 20.6783L54.1528 20.2817L54.5433 19.8852C54.6871 19.7391 54.6871 19.4956 54.5433 19.3496C54.3994 19.2035 54.1596 19.2035 54.0158 19.3496L53.6253 19.7461L53.2348 19.3496C53.0909 19.2035 52.8512 19.2035 52.7073 19.3496C52.5634 19.4956 52.5634 19.7391 52.7073 19.8852L53.0978 20.2817L52.7073 20.6783C52.6707 20.7119 52.6412 20.7527 52.6206 20.7982C52.6 20.8437 52.5887 20.893 52.5875 20.9431C52.5862 20.9932 52.5949 21.043 52.6132 21.0896C52.6314 21.1361 52.6588 21.1784 52.6936 21.2139ZM30.3192 39.4191C30.1753 39.273 29.9355 39.273 29.7916 39.4191L29.4012 39.8156L29.0107 39.4191C28.8668 39.273 28.627 39.273 28.4832 39.4191C28.3393 39.5652 28.3393 39.8087 28.4832 39.9548L28.8737 40.3513L28.4832 40.7478C28.3393 40.8939 28.3393 41.1374 28.4832 41.2835C28.5585 41.36 28.6544 41.3948 28.7503 41.3948C28.8462 41.3948 28.9422 41.36 29.0175 41.2835L29.408 40.8869L29.7985 41.2835C29.8739 41.36 29.9698 41.3948 30.0657 41.3948C30.1616 41.3948 30.2575 41.36 30.3329 41.2835C30.4767 41.1374 30.4767 40.8939 30.3329 40.7478L29.9424 40.3513L30.3329 39.9548C30.4699 39.8087 30.4699 39.5652 30.3192 39.4191Z" fill="#DBDBDB"/>
<path d="M35.6561 42.5008C35.8642 42.5008 36.0329 42.3295 36.0329 42.1182C36.0329 41.9069 35.8642 41.7356 35.6561 41.7356C35.448 41.7356 35.2793 41.9069 35.2793 42.1182C35.2793 42.3295 35.448 42.5008 35.6561 42.5008Z" fill="#DBDBDB"/>
<path d="M53.6121 30.473C53.8202 30.473 53.9889 30.3017 53.9889 30.0904C53.9889 29.8791 53.8202 29.7078 53.6121 29.7078C53.404 29.7078 53.2354 29.8791 53.2354 30.0904C53.2354 30.3017 53.404 30.473 53.6121 30.473Z" fill="#DBDBDB"/>
<path d="M37.992 20.6644C38.2001 20.6644 38.3688 20.4931 38.3688 20.2818C38.3688 20.0705 38.2001 19.8992 37.992 19.8992C37.7839 19.8992 37.6152 20.0705 37.6152 20.2818C37.6152 20.4931 37.7839 20.6644 37.992 20.6644Z" fill="#DBDBDB"/>
<path d="M34.5806 37.047C29.7371 35.7322 26.7296 33.3253 26.7296 30.7583C26.7296 26.7444 33.7927 23.4818 42.4657 23.4818C42.6713 23.4818 42.8357 23.3148 42.8357 23.1061C42.8357 22.8974 42.6713 22.7305 42.4657 22.7305C33.2241 22.7305 25.9829 26.2574 25.9829 30.7653C25.9829 33.7287 29.1274 36.3583 34.3887 37.7844C34.423 37.7913 34.4504 37.7983 34.4846 37.7983C34.6491 37.7983 34.7998 37.687 34.8477 37.52C34.8957 37.3044 34.7792 37.1026 34.5806 37.047ZM58.5786 30.3757C58.3731 30.3757 58.2087 30.5426 58.2087 30.7513C58.2087 34.7653 51.1456 38.0279 42.4726 38.0279C41.9588 38.0279 41.445 38.0139 40.938 37.9931C40.7462 37.9861 40.5612 38.1461 40.5475 38.3548C40.5407 38.5635 40.6982 38.7374 40.9038 38.7513C41.4244 38.7722 41.9519 38.7861 42.4726 38.7861C51.7142 38.7861 58.9554 35.2592 58.9554 30.7513C58.9485 30.5496 58.7841 30.3757 58.5786 30.3757ZM50.3509 24.4696C52.9953 25.1861 55.1327 26.2435 56.5234 27.5166C56.5919 27.5792 56.681 27.6139 56.77 27.6139C56.8728 27.6139 56.9755 27.5722 57.044 27.4887C57.1811 27.3357 57.1674 27.0922 57.0166 26.9531C55.5369 25.6035 53.2967 24.4905 50.5427 23.7392C50.3441 23.6835 50.1385 23.8018 50.0837 24.0105C50.0358 24.2053 50.1522 24.4139 50.3509 24.4696Z" fill="#DBDBDB"/>
<path d="M34.0326 26.8974C31.8814 28.0453 30.7374 29.5131 30.8196 31.0296C30.8949 32.5531 32.1829 33.8887 34.4367 34.807C36.8002 35.767 39.7529 36.2261 42.7741 36.2261C46.8434 36.2261 51.0292 35.3844 54.0572 33.7705C54.2422 33.6731 54.3107 33.4435 54.2148 33.2557C54.1189 33.0679 53.8928 32.9983 53.7078 33.0957C48.5903 35.8226 40.068 36.2679 34.7039 34.0974C32.7652 33.3113 31.6143 32.1774 31.5526 30.9879C31.4909 29.7983 32.5185 28.5531 34.3682 27.5653C37.6086 25.84 43.0138 25.5548 46.4187 26.9322C47.6107 27.4122 48.3163 28.094 48.3506 28.8035C48.3848 29.5131 47.7545 30.2644 46.6173 30.8696C44.5758 31.9618 41.1642 32.1357 39.0199 31.2731C38.8281 31.1966 38.6088 31.294 38.5335 31.4818C38.4581 31.6766 38.5472 31.8992 38.739 31.9757C41.0614 32.9148 44.7471 32.72 46.9599 31.5444C48.3848 30.7861 49.1452 29.7983 49.0904 28.7687C49.0356 27.7392 48.1861 26.8418 46.6927 26.2366C43.1303 24.7826 37.4442 25.0818 34.0326 26.8974Z" fill="#DBDBDB"/>
<path d="M41.2875 30.0904C41.2875 30.2991 41.452 30.4661 41.6575 30.4661C42.5549 30.4661 43.3839 30.3061 43.9319 30.0278C44.1169 29.9374 44.1923 29.7078 44.0963 29.52C44.0073 29.3322 43.7812 29.2557 43.5962 29.3531C43.1578 29.5757 42.4316 29.7078 41.6575 29.7078C41.452 29.7148 41.2875 29.8817 41.2875 30.0904ZM42.5892 27.8226C42.2946 27.7809 41.9795 27.76 41.6643 27.76C40.6504 27.76 39.7324 27.9617 39.2049 28.3026C39.0337 28.4139 38.9789 28.6504 39.0885 28.8244C39.157 28.9357 39.2803 28.9983 39.4036 28.9983C39.4721 28.9983 39.5406 28.9774 39.6023 28.9426C40.0065 28.6852 40.8148 28.5113 41.6643 28.5113C41.9521 28.5113 42.2329 28.5322 42.4933 28.567C42.6988 28.5948 42.8838 28.4487 42.9112 28.24C42.9317 28.0383 42.7879 27.8504 42.5892 27.8226Z" fill="#DBDBDB"/>
<path d="M15.3233 52.9009H17.7416C17.6731 53.5965 17.3511 54.1878 16.7825 54.6887C16.2071 55.1826 15.5631 55.4261 14.8438 55.4261C14.0011 55.4261 13.2133 55.0991 12.4871 54.4383C11.713 53.7287 11.3225 52.8244 11.3225 51.7322C11.3225 50.6678 11.6719 49.7844 12.3638 49.0817C13.0557 48.3652 13.9189 48.0035 14.9465 48.0035C16.0906 48.0035 17.0565 48.5391 17.8512 49.6174L18.8925 48.6017C18.2828 47.8991 17.6663 47.3844 17.0428 47.0713C16.3852 46.7583 15.6796 46.5983 14.9191 46.5983C13.5079 46.5983 12.309 47.0991 11.3293 48.0939C10.3428 49.0887 9.85645 50.2991 9.85645 51.7252C9.85645 53.1235 10.3428 54.32 11.3088 55.3217C12.2747 56.3165 13.4394 56.8104 14.7958 56.8104C16.1865 56.8104 17.3306 56.2957 18.228 55.2661C18.6254 54.807 18.9062 54.313 19.0775 53.7844C19.2488 53.2139 19.3378 52.56 19.3378 51.8226V51.4957H15.3233V52.9009Z" fill="url(#paint1_linear)"/>
<path d="M23.0918 56.6296H28.4422V55.2314H24.5579V51.9409H28.3257V50.5427H24.5579V48.1774H28.4422V46.7861H23.0918V56.6296Z" fill="url(#paint2_linear)"/>
<path d="M39.3624 53.6244L32.2925 46.1183V56.6296H33.7517V49.7357L40.8216 57.2279V46.7861H39.3624V53.6244Z" fill="url(#paint3_linear)"/>
<path d="M45.0762 56.6296H50.4197V55.2314H46.5354V51.9409H50.3101V50.5427H46.5354V48.1774H50.4197V46.7861H45.0762V56.6296Z" fill="url(#paint4_linear)"/>
<path d="M57.7292 50.7722L56.7632 50.3687C56.0576 50.0765 55.7082 49.687 55.7082 49.207C55.7082 48.8591 55.8452 48.567 56.1124 48.3374C56.3796 48.1009 56.7153 47.9896 57.1263 47.9896C57.4551 47.9896 57.7292 48.0591 57.9347 48.1913C58.1334 48.3096 58.3457 48.567 58.5718 48.9565L59.757 48.24C59.1267 47.1339 58.2567 46.5844 57.14 46.5844C56.3111 46.5844 55.6192 46.8348 55.0642 47.3357C54.5093 47.8296 54.2285 48.4487 54.2285 49.193C54.2285 50.2922 54.893 51.12 56.2152 51.6904L57.1537 52.087C57.3935 52.1913 57.6059 52.3026 57.784 52.4209C57.9621 52.5391 58.106 52.6644 58.2156 52.7965C58.3252 52.9287 58.4074 53.0748 58.4622 53.2348C58.517 53.3948 58.5375 53.5687 58.5375 53.7635C58.5375 54.2365 58.3868 54.633 58.0854 54.9461C57.784 55.2591 57.4072 55.4122 56.9482 55.4122C56.3727 55.4122 55.9343 55.1965 55.6329 54.7722C55.4684 54.5496 55.3451 54.153 55.2835 53.5757L53.8037 53.9096C53.9407 54.8278 54.2764 55.5374 54.8176 56.0452C55.3657 56.5531 56.0576 56.8035 56.9002 56.8035C57.7908 56.8035 58.5307 56.5044 59.1267 55.9131C59.7227 55.3217 60.0173 54.5774 60.0173 53.6661C60.0173 52.9913 59.8323 52.4209 59.4692 51.9548C59.0925 51.4957 58.517 51.0991 57.7292 50.7722Z" fill="url(#paint5_linear)"/>
<path d="M63.6963 46.7861H65.1623V56.6296H63.6963V46.7861Z" fill="url(#paint6_linear)"/>
<path d="M74.6025 51.9548C74.2394 51.4887 73.664 51.0922 72.8762 50.7722L71.9102 50.3687C71.2046 50.0765 70.8552 49.687 70.8552 49.207C70.8552 48.8591 70.9922 48.567 71.2594 48.3374C71.5266 48.1009 71.8622 47.9896 72.2733 47.9896C72.6021 47.9896 72.8762 48.0591 73.0817 48.1913C73.2804 48.3096 73.4927 48.567 73.7188 48.9565L74.904 48.24C74.2669 47.1478 73.3968 46.5913 72.2801 46.5913C71.4512 46.5913 70.7593 46.8417 70.2044 47.3426C69.6495 47.8365 69.3686 48.4557 69.3686 49.2C69.3686 50.2991 70.0331 51.127 71.3553 51.6974L72.2938 52.0939C72.5336 52.1983 72.746 52.3096 72.9241 52.4278C73.1022 52.5461 73.2461 52.6713 73.3557 52.8035C73.4653 52.9357 73.5475 53.0817 73.6023 53.2417C73.6571 53.4017 73.6777 53.5757 73.6777 53.7704C73.6777 54.2435 73.527 54.64 73.2255 54.9531C72.9241 55.2661 72.5473 55.4191 72.0883 55.4191C71.5129 55.4191 71.0744 55.2035 70.773 54.7791C70.6086 54.5565 70.4853 54.16 70.4236 53.5826L68.9438 53.9165C69.0809 54.8348 69.4165 55.5444 69.9578 56.0522C70.5058 56.56 71.1977 56.8104 72.0404 56.8104C72.931 56.8104 73.6708 56.5113 74.2669 55.92C74.8629 55.3287 75.1574 54.5844 75.1574 53.673C75.1506 52.9913 74.9656 52.4209 74.6025 51.9548Z" fill="url(#paint7_linear)"/>
<path d="M25.1606 62.2365V62.2226C25.1606 61.0608 26.017 60.1008 27.209 60.1008C27.942 60.1008 28.3805 60.3652 28.7847 60.7547L28.4695 61.0956C28.127 60.7687 27.7502 60.5321 27.1953 60.5321C26.2979 60.5321 25.6265 61.2695 25.6265 62.2156V62.2295C25.6265 63.1826 26.3047 63.9269 27.1953 63.9269C27.7502 63.9269 28.1133 63.7113 28.5038 63.3356L28.8052 63.6347C28.3805 64.066 27.9215 64.3582 27.1885 64.3582C26.0238 64.3443 25.1606 63.4121 25.1606 62.2365ZM33.4774 60.1356H33.9022L35.745 64.2747H35.2517L34.779 63.1895H32.58L32.1004 64.2747H31.6346L33.4774 60.1356ZM34.6009 62.7721L33.6829 60.6782L32.7581 62.7721H34.6009ZM38.5675 63.6765L38.8484 63.3356C39.2731 63.7252 39.6773 63.92 40.2322 63.92C40.7734 63.92 41.1365 63.6278 41.1365 63.2243V63.2104C41.1365 62.8278 40.931 62.6121 40.0815 62.4313C39.1498 62.2226 38.7251 61.9234 38.7251 61.2487V61.2347C38.7251 60.5878 39.2868 60.1147 40.0541 60.1147C40.6433 60.1147 41.068 60.2817 41.479 60.6226L41.2119 60.9774C40.8351 60.6643 40.4583 60.5321 40.0472 60.5321C39.5197 60.5321 39.1841 60.8243 39.1841 61.193V61.2069C39.1841 61.5965 39.3896 61.8121 40.2802 62.0069C41.1845 62.2087 41.5955 62.5426 41.5955 63.1687V63.1826C41.5955 63.8852 41.02 64.3443 40.2117 64.3443C39.5814 64.3374 39.0539 64.1147 38.5675 63.6765ZM44.9387 60.1704H45.3977V64.2817H44.9387V60.1704ZM48.9532 60.1704H49.3779L51.9264 63.4608V60.1704H52.3717V64.2817H52.0086L49.3985 60.9147V64.2817H48.9532V60.1704ZM55.708 62.2365V62.2226C55.708 61.0887 56.5438 60.1008 57.7769 60.1008C59.01 60.1008 59.8321 61.0817 59.8321 62.2156V62.2295C59.8321 63.3634 58.9963 64.3513 57.7632 64.3513C56.5369 64.3443 55.708 63.3634 55.708 62.2365ZM59.3594 62.2365V62.2226C59.3594 61.2904 58.688 60.5252 57.7632 60.5252C56.8383 60.5252 56.1807 61.2765 56.1807 62.2087V62.2226C56.1807 63.1547 56.852 63.92 57.7769 63.92C58.7017 63.92 59.3594 63.1687 59.3594 62.2365Z" fill="white"/>
</g>
<defs>
<linearGradient id="paint0_linear" x1="15.4552" y1="73.1379" x2="74.0868" y2="16.7778" gradientUnits="userSpaceOnUse">
<stop stop-color="#FF8A00"/>
<stop offset="1" stop-color="#DB36A4"/>
</linearGradient>
<linearGradient id="paint1_linear" x1="15.3339" y1="51.7028" x2="59.0699" y2="51.7028" gradientUnits="userSpaceOnUse">
<stop stop-color="#8F329F"/>
<stop offset="1" stop-color="#3AB0ED"/>
</linearGradient>
<linearGradient id="paint2_linear" x1="15.3336" y1="51.706" x2="59.0697" y2="51.706" gradientUnits="userSpaceOnUse">
<stop stop-color="#8F329F"/>
<stop offset="1" stop-color="#3AB0ED"/>
</linearGradient>
<linearGradient id="paint3_linear" x1="15.3338" y1="51.6709" x2="59.0699" y2="51.6709" gradientUnits="userSpaceOnUse">
<stop stop-color="#8F329F"/>
<stop offset="1" stop-color="#3AB0ED"/>
</linearGradient>
<linearGradient id="paint4_linear" x1="15.334" y1="51.706" x2="59.0702" y2="51.706" gradientUnits="userSpaceOnUse">
<stop stop-color="#8F329F"/>
<stop offset="1" stop-color="#3AB0ED"/>
</linearGradient>
<linearGradient id="paint5_linear" x1="15.3338" y1="51.6996" x2="59.0699" y2="51.6996" gradientUnits="userSpaceOnUse">
<stop stop-color="#8F329F"/>
<stop offset="1" stop-color="#3AB0ED"/>
</linearGradient>
<linearGradient id="paint6_linear" x1="15.3338" y1="51.706" x2="59.07" y2="51.706" gradientUnits="userSpaceOnUse">
<stop stop-color="#8F329F"/>
<stop offset="1" stop-color="#3AB0ED"/>
</linearGradient>
<linearGradient id="paint7_linear" x1="15.3339" y1="51.6996" x2="59.0699" y2="51.6996" gradientUnits="userSpaceOnUse">
<stop stop-color="#8F329F"/>
<stop offset="1" stop-color="#3AB0ED"/>
</linearGradient>
<clipPath id="clip0">
<rect width="83" height="84" rx="2" fill="white"/>
</clipPath>
</defs>
</svg>
