<svg width="83" height="84" viewBox="0 0 83 84" fill="none" xmlns="http://www.w3.org/2000/svg">
<g clip-path="url(#clip0)">
<path d="M60.7773 81.8864C59.4404 83.2394 57.6237 84 55.7289 84H27.2712C25.3764 84 23.5596 83.2394 22.2227 81.8863L2.07593 61.4969C0.746427 60.1513 0 58.3299 0 56.4311V27.5678C0 25.669 0.746428 23.8475 2.07593 22.502L22.2215 2.11371C23.5585 0.760637 25.3752 0 27.2701 0H55.7299C57.6248 0 59.4415 0.760635 60.7785 2.11371L80.9241 22.502C82.2536 23.8475 83 25.669 83 27.5678V56.4321C83 58.3309 82.2535 60.1525 80.924 61.498L60.7773 81.8864Z" fill="#212329"/>
<path d="M60.7773 81.8864C59.4404 83.2394 57.6237 84 55.7289 84H27.2712C25.3764 84 23.5596 83.2394 22.2227 81.8863L2.07593 61.4968C0.746427 60.1513 0 58.3299 0 56.4311V27.5678C0 25.669 0.746429 23.8475 2.07593 22.502L22.2215 2.11371C23.5585 0.760637 25.3752 0 27.2701 0H55.7299C57.6248 0 59.4415 0.760635 60.7785 2.11371L80.9241 22.502C82.2536 23.8475 83 25.669 83 27.5678V56.4321C83 58.3309 82.2535 60.1525 80.924 61.498L60.7773 81.8864ZM23.6169 78.4779C24.9539 79.831 26.7707 80.5916 28.6655 80.5916H54.3346C56.2294 80.5916 58.0461 79.831 59.3831 78.478L77.5561 60.0869C78.8857 58.7414 79.6322 56.9199 79.6322 55.021V28.9799C79.6322 27.0812 78.8858 25.2598 77.5564 23.9143L59.3831 5.52109C58.0461 4.16795 56.2293 3.40726 54.3344 3.40726H28.6655C26.7707 3.40726 24.9539 4.1679 23.6169 5.52097L5.44376 23.9131C4.11425 25.2586 3.36782 27.0801 3.36782 28.9789V55.02C3.36782 56.9188 4.11425 58.7402 5.44375 60.0858L23.6169 78.4779Z" fill="url(#paint0_linear)"/>
<g clip-path="url(#clip1)">
<path d="M11 34H72.0873V50H11V34Z" fill="#F11E22"/>
<path d="M22.817 37.3579C22.817 37.3579 21.0817 37.5063 19.071 37.5251C18.9783 37.5267 18.7943 37.5251 18.7016 37.5251C16.2461 37.5063 14.9556 37.3579 14.9556 37.3579C14.9556 37.3579 14.5444 40.4126 14.8181 42.0782C15.0917 43.7437 16.949 45.2031 18.8698 46.1734C20.7907 45.2031 22.6791 43.7406 22.9543 42.0766C23.2279 40.4126 22.8167 37.3579 22.8167 37.3579H22.817Z" fill="white"/>
<path d="M22.1109 39.9893H21.5963C21.5777 39.9893 21.5593 39.997 21.5391 40.0143L21.2655 40.844L21.2579 40.8597C21.2594 40.8597 21.2564 40.8721 21.2502 40.8925L21.0711 41.4347C21.0711 41.4347 21.0463 41.4455 21.034 41.4504H21.031C21.0511 41.4411 20.6167 41.4504 20.6167 41.4504H19.8503L19.8347 41.4427L20.0295 40.813C20.0218 40.7911 20.0124 40.7802 20.0047 40.7802H19.4825C19.4654 40.7802 19.4455 40.788 19.4269 40.8053C19.0606 41.9382 18.8674 42.5521 18.8457 42.6458C18.8457 42.6566 18.8503 42.6615 18.8613 42.6615H19.4161C19.4332 42.6615 19.4687 42.5833 19.5198 42.4256C19.6002 42.1335 19.6543 41.9867 19.6806 41.9867H20.8704C20.8812 41.9867 20.886 41.9913 20.886 42.0024L20.6943 42.6367C20.6943 42.6525 20.6989 42.6602 20.7099 42.6602H21.2648C21.288 42.6602 21.325 42.5681 21.3776 42.3836C21.8845 40.8241 22.1379 40.0367 22.1379 40.0195V40.0117C22.1272 39.9978 22.1193 39.9898 22.1116 39.9898L22.1109 39.9893ZM21.5731 40.0375L21.5685 40.0641C21.567 40.0579 21.567 40.0533 21.5654 40.0468C21.57 40.0468 21.5731 40.0437 21.5731 40.0375Z" fill="#E4282A"/>
<path d="M21.0803 40.4845L18.6186 40.0125C18.5953 40.0313 18.3342 40.3655 17.8319 41.014C17.3437 41.6672 17.0346 42.0687 16.9047 42.2217L16.7949 41.6094C16.6852 40.9469 16.6883 40.8313 16.6543 40.8313H16.064L16.0747 40.8845L16.3853 42.7361H17.1193L18.8455 40.5079L21.08 40.4845H21.0803Z" fill="#E4282A"/>
<path d="M39.229 39.978H36.7502C35.789 39.978 35.1972 40.0733 34.9731 40.264C34.7737 40.4436 34.6099 40.7014 34.5017 40.9342C34.1262 41.9045 33.9593 42.3685 33.8991 42.9827C33.8899 43.1468 33.9361 43.2343 34.0923 43.3453C34.2901 43.4859 34.7383 43.5545 35.6298 43.5545H36.078C36.7148 43.5545 37.2122 43.5202 37.5723 43.4498C37.9695 43.306 38.0113 43.2606 38.1688 43.0872C38.3296 42.8544 38.5057 42.5793 38.8117 41.5623V41.5483C38.8117 41.5311 38.8025 41.5202 38.7824 41.5187L35.5341 41.5218L35.3485 42.1592H35.35C35.3485 42.1623 35.3485 42.1654 35.347 42.1685C35.3516 42.209 35.3671 42.2294 35.3934 42.2294H37.557L37.5432 42.2591C37.483 42.4591 37.4907 42.4714 37.3934 42.5592C37.262 42.6544 37.0951 42.6967 36.4971 42.6967C35.899 42.6859 35.5251 42.681 35.3766 42.681H35.3628C35.1928 42.6482 35.1078 42.5935 35.1078 42.5153C35.1078 42.4699 35.1742 42.1388 35.1742 42.1388C35.3534 41.4247 35.4524 41.1827 35.6007 41.0216C35.763 40.9218 36.0736 40.8702 36.5279 40.8702H38.886L38.9912 40.8544C39.0175 40.8387 39.1132 40.5669 39.274 40.0405C39.274 39.9984 39.2584 39.978 39.229 39.978Z" fill="white"/>
<path d="M48.1712 40.0701C48.185 40.0701 48.2006 40.0905 48.2146 40.131C48.0633 40.6123 47.9798 40.8528 47.9627 40.8528C47.9303 40.8732 47.9009 40.8825 47.8731 40.8825H45.6108C45.1549 40.8825 44.9216 40.8794 44.8675 40.9903C44.8428 41.045 44.8366 41.1279 44.8366 41.2138C44.8366 41.3232 45.0143 41.3795 45.3714 41.3795C46.7003 41.4234 47.365 41.4732 47.365 41.5294C47.5643 41.6293 47.6633 41.7748 47.6633 41.9653C47.6633 42.045 47.4949 42.6107 47.158 43.6652C47.0296 44.1137 46.8706 44.4293 46.6804 44.6136C46.4579 44.8151 46.1411 44.9152 45.7284 44.9152C45.4689 44.9356 45.1026 44.9449 44.6266 44.9449H42.7846C42.7708 44.9449 42.7568 44.9245 42.7412 44.884C42.8895 44.4058 42.9791 44.156 43.0102 44.131L43.0845 44.117H45.1197C45.6945 44.117 45.9821 44.0765 45.9821 43.9968C46.0332 43.9968 46.2077 43.4905 46.5028 42.4765V42.4156C46.5028 42.325 46.4239 42.2812 46.2649 42.2812C44.6871 42.2342 43.8989 42.1686 43.8989 42.0843C43.7598 42.003 43.6904 41.8827 43.6904 41.7248V41.6951C43.7415 41.2373 43.8897 40.8357 44.1371 40.492C44.341 40.2107 44.7984 40.0701 45.5061 40.0701H48.1717H48.1712Z" fill="white"/>
<path d="M34.239 40.0608H31.0326C30.6941 40.0484 30.518 40.0608 30.5071 40.0967C30.4915 40.1106 30.4808 40.1295 30.4746 40.1514L29.4269 43.4108C29.4223 43.4247 29.4315 43.4451 29.4563 43.4701C29.7546 43.4889 29.9678 43.4936 30.0992 43.4825H33.1079C33.1311 43.4825 33.1512 43.4779 33.1696 43.4686C33.2161 43.4686 33.3041 43.2231 33.4323 42.7326V42.7153C33.4323 42.698 33.4215 42.6871 33.4014 42.684H30.5936L30.7574 42.1496H33.5035C33.5267 42.1496 33.5469 42.1449 33.5652 42.1357C33.6117 42.1357 33.6997 41.8902 33.8279 41.3997V41.3824C33.8279 41.3651 33.8171 41.3542 33.797 41.3511L30.9861 41.3184L31.1314 40.859H33.9471C33.9703 40.859 33.9904 40.8544 34.0088 40.8451C34.0553 40.8451 34.1433 40.5997 34.2715 40.1091V40.0933C34.2699 40.0745 34.2607 40.0652 34.239 40.0606V40.0608Z" fill="white"/>
<path d="M58.9705 40.0608H55.764C55.4256 40.0484 55.2495 40.0608 55.2385 40.0967C55.2229 40.1106 55.2122 40.1295 55.2061 40.1514L54.1584 43.4108C54.1538 43.4247 54.163 43.4451 54.1877 43.4701C54.4861 43.4889 54.6992 43.4936 54.8306 43.4825H57.8393C57.8625 43.4825 57.8827 43.4779 57.9011 43.4686C57.9475 43.4686 58.0356 43.2231 58.1637 42.7326V42.7153C58.1637 42.698 58.153 42.6871 58.1328 42.684H55.325L55.4889 42.1496H58.2349C58.2581 42.1496 58.2783 42.1449 58.2967 42.1357C58.3431 42.1357 58.4312 41.8902 58.5593 41.3997V41.3824C58.5593 41.3651 58.5486 41.3542 58.5284 41.3511L55.7176 41.3184L55.8628 40.859H58.6785C58.7017 40.859 58.7219 40.8544 58.7403 40.8451C58.7867 40.8451 58.8748 40.5997 59.0029 40.1091V40.0933C59.0014 40.0745 58.9922 40.0652 58.9705 40.0606V40.0608Z" fill="white"/>
<path d="M59.4355 40.0671L59.3753 40.1141C58.6519 42.3626 58.3184 43.4 58.3184 43.4266V43.4406C58.3339 43.4702 58.3492 43.486 58.3633 43.486H59.2688L59.3431 43.472C59.374 43.4659 59.4125 43.3673 59.5565 42.933C59.606 42.7861 59.6323 42.7033 59.7078 42.7033H61.471C61.5003 42.7033 61.6272 42.6875 61.6501 42.7502C61.6672 42.7691 61.7119 43.0142 61.7831 43.4862H63.0008C62.9607 43.2362 62.9112 42.9598 62.8556 42.6581C62.8556 42.4424 62.7599 42.2955 62.5697 42.216V42.2003C62.8091 42.1317 62.9901 41.9957 63.1136 41.7895C63.353 41.2847 63.4738 40.8989 63.4738 40.6315C63.4615 40.4439 63.412 40.3595 63.3826 40.3113C63.3178 40.2019 63.2451 40.0581 62.4942 40.0535L59.4355 40.0671ZM59.9763 41.8047C59.9763 41.8047 59.9146 41.8109 59.9455 41.7079C60.0057 41.5141 60.0366 41.4408 60.0659 41.3469C60.1448 41.1015 60.1849 40.9657 60.2775 40.9657H61.8755C62.1259 40.9657 62.2525 41.0173 62.2525 41.1188V41.1797C62.1892 41.4437 62.1366 41.6093 62.0577 41.6656C61.8954 41.7812 61.6297 41.8047 60.7752 41.8047H59.9763Z" fill="white"/>
<path d="M64.8088 40.0046H67.7541C68.0693 40.0046 68.2625 40.1249 68.3337 40.3657C68.3539 40.4359 68.3631 40.4955 68.3631 40.5468C68.3631 40.8733 68.1592 41.5703 67.7526 42.6359C67.5841 42.9827 67.3955 43.2077 67.1885 43.3125C67.0387 43.4532 66.4034 43.5233 65.2832 43.5233H65.1952C64.0655 43.5233 63.4305 43.4686 63.2899 43.3592C63.1615 43.239 63.0967 43.0779 63.0967 42.8764C63.0967 42.6263 63.2853 41.9747 63.6607 40.9218C63.9264 40.311 64.3083 40.0046 64.809 40.0046H64.8088ZM64.3019 42.3063C64.3019 42.4859 64.4657 42.575 64.7932 42.575C64.8922 42.5858 65.0497 42.5907 65.2707 42.5907H65.6725C66.2797 42.5907 66.6229 42.5344 66.7 42.4235C66.8128 42.2828 66.907 42.0921 66.9828 41.8532C67.091 41.536 67.1451 41.2906 67.1451 41.1156C67.1451 41.0046 67.0757 40.9344 66.9366 40.9048C66.8192 40.8844 66.6554 40.8751 66.4453 40.8751H65.7623C65.175 40.8751 64.8427 40.9313 64.7656 41.0423C64.6281 41.2003 64.4798 41.5861 64.3205 42.2003C64.3067 42.2408 64.3019 42.2769 64.3019 42.3066V42.3063Z" fill="white"/>
<path d="M55.4069 38.467H54.4411C54.4071 38.467 54.3716 38.4828 54.3344 38.514L53.8198 40.0719L53.8043 40.1001C53.8073 40.1001 53.8012 40.1236 53.7887 40.1625L53.4518 41.1814C53.4518 41.1814 53.4053 41.2017 53.3806 41.211L53.3745 41.2126C53.413 41.1937 52.597 41.2126 52.597 41.2126H51.1568L51.1259 41.1987L51.4921 40.0159C51.4766 39.9754 51.4613 39.955 51.4457 39.955H50.4643C50.4319 39.955 50.3964 39.9708 50.3592 40.002C49.6731 42.13 49.3099 43.2817 49.2681 43.4583C49.2681 43.4771 49.2788 43.4864 49.2989 43.4864H50.3421C50.3745 43.4864 50.4408 43.3396 50.5383 43.0443C50.6882 42.4959 50.7903 42.2208 50.8413 42.2208H53.0758C53.0945 42.2208 53.1037 42.2317 53.1037 42.2521L52.742 43.4428C52.742 43.4725 52.7527 43.4882 52.7729 43.4882H53.8129C53.8563 43.4882 53.9258 43.3148 54.0245 42.9695C54.975 40.0415 55.4508 38.5618 55.4508 38.5305V38.5166C55.4337 38.4838 55.4199 38.4681 55.4058 38.4681L55.4069 38.467Z" fill="white"/>
<path d="M43.1167 41.1671C42.9883 40.4265 42.9066 40.0562 42.8678 40.0562H41.2111C41.202 40.0562 41.0983 40.1702 40.9005 40.3999C39.5871 41.9514 38.7216 42.978 38.3013 43.4812H39.5624C39.7586 43.2484 39.921 43.0623 40.0322 42.9452H42.2142C42.239 42.9483 42.2405 42.956 42.2451 43.0234C42.2931 43.378 42.3007 43.4874 42.3456 43.4874H43.4753L43.5542 43.4858C43.3487 42.3545 43.2298 41.6858 43.117 41.1671H43.1167ZM40.6547 42.1452L41.7009 40.8936L41.8679 40.906L42.0828 42.1387C42.0843 42.1403 40.6905 42.1511 40.6547 42.1449V42.1452Z" fill="white"/>
<path d="M34.1383 39.4173L29.2611 38.3579C29.2177 38.3938 28.7249 39.0204 27.7823 40.2407C26.8645 41.4673 26.2833 42.2235 26.0391 42.5109L25.8351 41.3595C25.6297 40.114 25.6327 39.897 25.571 39.897H24.46L24.4786 39.9969L25.0628 43.4782H26.5511L29.8272 39.4392L34.1388 39.4173H34.1383Z" fill="white"/>
</g>
</g>
<defs>
<linearGradient id="paint0_linear" x1="15.4552" y1="73.1379" x2="74.0868" y2="16.7778" gradientUnits="userSpaceOnUse">
<stop stop-color="#FF8A00"/>
<stop offset="1" stop-color="#DB36A4"/>
</linearGradient>
<clipPath id="clip0">
<rect width="83" height="84" rx="2" fill="white"/>
</clipPath>
<clipPath id="clip1">
<rect width="61" height="16" fill="white" transform="translate(11 34)"/>
</clipPath>
</defs>
</svg>
