<svg width="20" height="20" viewBox="0 0 20 20" fill="none" xmlns="http://www.w3.org/2000/svg">
<path d="M9.31283 12.3294C9.31283 11.9435 9.37401 11.6047 9.49636 11.3129C9.62812 11.0211 9.78812 10.7717 9.97636 10.5647C10.1646 10.3576 10.4093 10.1223 10.7105 9.85879C11.1152 9.50114 11.4117 9.19056 11.5999 8.92703C11.7975 8.65409 11.8964 8.32467 11.8964 7.93879C11.8964 7.42114 11.694 7.00703 11.2893 6.69644C10.8846 6.37644 10.3293 6.21644 9.62342 6.21644C8.45636 6.21644 7.55753 6.59761 6.92695 7.35997L6.17871 6.79526C6.97871 5.81644 8.15048 5.32703 9.69401 5.32703C10.6822 5.32703 11.4681 5.5482 12.0517 5.99056C12.6446 6.43291 12.9411 7.03056 12.9411 7.7835C12.9411 8.16938 12.8752 8.51291 12.7434 8.81409C12.6211 9.10585 12.4658 9.35526 12.2775 9.56232C12.0987 9.76938 11.8587 10.0094 11.5575 10.2823C11.1528 10.6494 10.8517 10.9788 10.654 11.2706C10.4564 11.5529 10.3575 11.9058 10.3575 12.3294H9.31283ZM9.83518 15.3647C9.62812 15.3647 9.45401 15.2941 9.31283 15.1529C9.17165 15.0023 9.10106 14.8282 9.10106 14.6306C9.10106 14.4235 9.17165 14.2541 9.31283 14.1223C9.45401 13.9811 9.62812 13.9106 9.83518 13.9106C10.0517 13.9106 10.2305 13.9811 10.3717 14.1223C10.5128 14.2541 10.5834 14.4235 10.5834 14.6306C10.5834 14.8282 10.5081 15.0023 10.3575 15.1529C10.2164 15.2941 10.0422 15.3647 9.83518 15.3647Z" fill="white"/>
<path fill-rule="evenodd" clip-rule="evenodd" d="M10 19.4118C15.198 19.4118 19.4118 15.198 19.4118 10C19.4118 4.80203 15.198 0.588235 10 0.588235C4.80203 0.588235 0.588235 4.80203 0.588235 10C0.588235 15.198 4.80203 19.4118 10 19.4118ZM10 20C15.5228 20 20 15.5228 20 10C20 4.47715 15.5228 0 10 0C4.47715 0 0 4.47715 0 10C0 15.5228 4.47715 20 10 20Z" fill="white"/>
</svg>
