<svg width="141" height="21" viewBox="0 0 141 21" fill="none" xmlns="http://www.w3.org/2000/svg">
<rect width="141" height="21" rx="10.5" fill="#002C59"/>
<rect width="110" height="21" rx="10.5" fill="#E7D325"/>
<g clip-path="url(#clip0)">
<path d="M87.3073 4.77954H87.2827C85.4773 4.77954 84.4679 6.10079 84.0001 6.99529C83.5241 6.10076 82.5229 4.77954 80.7175 4.77954H80.6847C78.7315 4.79597 77.1037 6.46187 77.0052 8.57094C76.8821 11.156 78.9449 12.8957 82.0305 15.5218C82.564 15.9814 83.1302 16.4656 83.7293 16.9826L84.0001 17.2206L84.271 16.9826C84.8618 16.4656 85.4363 15.9814 85.9697 15.5218C89.0553 12.8957 91.1179 11.156 90.9948 8.57094C90.8963 6.46184 89.2604 4.79595 87.3073 4.77954Z" fill="white"/>
<path d="M90.9947 8.57094C91.1178 11.156 89.0552 12.8957 85.9696 15.5218C85.4361 15.9814 84.8617 16.4656 84.2708 16.9826L84 17.2206V6.99529C84.4678 6.10076 85.4772 4.77954 87.2826 4.77954H87.3072C89.2604 4.79595 90.8962 6.46184 90.9947 8.57094Z" fill="white"/>
</g>
<path d="M59.6274 13.774H57.8914V16H56.1274V13.774H50.7514V12.514L55.5814 6.2H57.5274L52.9774 12.234H56.1834V10.26H57.8914V12.234H59.6274V13.774ZM61.7588 16.098C61.4414 16.098 61.1708 15.9907 60.9468 15.776C60.7228 15.552 60.6108 15.272 60.6108 14.936C60.6108 14.5907 60.7181 14.3107 60.9328 14.096C61.1568 13.8813 61.4321 13.774 61.7588 13.774C62.0854 13.774 62.3561 13.8813 62.5708 14.096C62.7948 14.3107 62.9068 14.5907 62.9068 14.936C62.9068 15.272 62.7948 15.552 62.5708 15.776C62.3468 15.9907 62.0761 16.098 61.7588 16.098ZM68.0087 16.14C67.2247 16.14 66.5247 15.944 65.9087 15.552C65.2927 15.1507 64.8074 14.572 64.4527 13.816C64.098 13.0507 63.9207 12.1453 63.9207 11.1C63.9207 10.0547 64.098 9.154 64.4527 8.398C64.8074 7.63267 65.2927 7.054 65.9087 6.662C66.5247 6.26067 67.2247 6.06 68.0087 6.06C68.7927 6.06 69.4927 6.26067 70.1087 6.662C70.734 7.054 71.224 7.63267 71.5787 8.398C71.9334 9.154 72.1107 10.0547 72.1107 11.1C72.1107 12.1453 71.9334 13.0507 71.5787 13.816C71.224 14.572 70.734 15.1507 70.1087 15.552C69.4927 15.944 68.7927 16.14 68.0087 16.14ZM68.0087 14.558C68.7087 14.558 69.2594 14.2687 69.6607 13.69C70.0714 13.1113 70.2767 12.248 70.2767 11.1C70.2767 9.952 70.0714 9.08867 69.6607 8.51C69.2594 7.93133 68.7087 7.642 68.0087 7.642C67.318 7.642 66.7674 7.93133 66.3567 8.51C65.9554 9.08867 65.7547 9.952 65.7547 11.1C65.7547 12.248 65.9554 13.1113 66.3567 13.69C66.7674 14.2687 67.318 14.558 68.0087 14.558Z" fill="white"/>
<defs>
<clipPath id="clip0">
<rect width="14" height="14" fill="white" transform="translate(77 4)"/>
</clipPath>
</defs>
</svg>
