<svg width="972" height="1018" viewBox="0 0 972 1018" fill="none" xmlns="http://www.w3.org/2000/svg">
<g filter="url(#filter0_f)">
<path d="M463.396 838.568C688.871 838.568 871.655 691.294 871.655 509.622C871.655 327.951 688.871 180.677 463.396 180.677C237.921 180.677 55.1372 327.951 55.1372 509.622C55.1372 691.294 237.921 838.568 463.396 838.568Z" fill="url(#paint0_radial)"/>
</g>
<path opacity="0.01" d="M538.468 651.212L594.974 509.045L538.468 366.879" stroke="#FF2748" stroke-width="23.5" stroke-linecap="round" stroke-linejoin="round"/>
<path opacity="0.01" d="M538.468 651.212L594.974 509.045L538.468 366.879" stroke="#FF2748" stroke-width="22.38" stroke-linecap="round" stroke-linejoin="round"/>
<path opacity="0.01" d="M538.468 651.212L594.974 509.045L538.468 366.879" stroke="#FF2748" stroke-width="21.26" stroke-linecap="round" stroke-linejoin="round"/>
<path opacity="0.01" d="M538.468 651.212L594.974 509.045L538.468 366.879" stroke="#FF2748" stroke-width="20.15" stroke-linecap="round" stroke-linejoin="round"/>
<path opacity="0.01" d="M538.468 651.212L594.974 509.045L538.468 366.879" stroke="#FF2748" stroke-width="19.03" stroke-linecap="round" stroke-linejoin="round"/>
<path opacity="0.02" d="M538.468 651.212L594.974 509.045L538.468 366.879" stroke="#FF2748" stroke-width="17.91" stroke-linecap="round" stroke-linejoin="round"/>
<path opacity="0.02" d="M538.468 651.212L594.974 509.045L538.468 366.879" stroke="#FF2748" stroke-width="16.79" stroke-linecap="round" stroke-linejoin="round"/>
<path opacity="0.02" d="M538.468 651.212L594.974 509.045L538.468 366.879" stroke="#FF2748" stroke-width="15.67" stroke-linecap="round" stroke-linejoin="round"/>
<path opacity="0.03" d="M538.468 651.212L594.974 509.045L538.468 366.879" stroke="#FF2748" stroke-width="14.55" stroke-linecap="round" stroke-linejoin="round"/>
<path opacity="0.03" d="M538.468 651.212L594.974 509.045L538.468 366.879" stroke="#FF2748" stroke-width="13.43" stroke-linecap="round" stroke-linejoin="round"/>
<path opacity="0.04" d="M538.468 651.212L594.974 509.045L538.468 366.879" stroke="#FF2748" stroke-width="12.31" stroke-linecap="round" stroke-linejoin="round"/>
<path opacity="0.04" d="M538.468 651.212L594.974 509.045L538.468 366.879" stroke="#FF2748" stroke-width="11.19" stroke-linecap="round" stroke-linejoin="round"/>
<path opacity="0.05" d="M538.468 651.212L594.974 509.045L538.468 366.879" stroke="#FF2748" stroke-width="10.07" stroke-linecap="round" stroke-linejoin="round"/>
<path opacity="0.06" d="M538.468 651.212L594.974 509.045L538.468 366.879" stroke="#FF2748" stroke-width="8.95" stroke-linecap="round" stroke-linejoin="round"/>
<path opacity="0.07" d="M538.468 651.212L594.974 509.045L538.468 366.879" stroke="#FF2748" stroke-width="7.83" stroke-linecap="round" stroke-linejoin="round"/>
<path opacity="0.08" d="M538.468 651.212L594.974 509.045L538.468 366.879" stroke="#FF2748" stroke-width="6.72" stroke-linecap="round" stroke-linejoin="round"/>
<path opacity="0.1" d="M538.468 651.212L594.974 509.045L538.468 366.879" stroke="#FF2748" stroke-width="5.6" stroke-linecap="round" stroke-linejoin="round"/>
<path opacity="0.15" d="M538.468 651.212L594.974 509.045L538.468 366.879" stroke="#FF2748" stroke-width="4.48" stroke-linecap="round" stroke-linejoin="round"/>
<path d="M538.468 651.212L594.974 509.045L538.468 366.879" stroke="#FF2748" stroke-width="3.36" stroke-linecap="round" stroke-linejoin="round"/>
<path d="M538.468 651.212L594.974 509.045L538.468 366.879" stroke="#FFE2E6" stroke-width="2.01" stroke-linecap="round" stroke-linejoin="round"/>
<path d="M538.468 651.212L594.974 509.045L538.468 366.879" stroke="white" stroke-width="0.67" stroke-linecap="round" stroke-linejoin="round"/>
<path opacity="0.01" d="M503.19 667.371L571.865 509.045L503.19 350.745" stroke="#FF2748" stroke-width="23.5" stroke-linecap="round" stroke-linejoin="round"/>
<path opacity="0.01" d="M503.19 667.371L571.865 509.045L503.19 350.745" stroke="#FF2748" stroke-width="22.38" stroke-linecap="round" stroke-linejoin="round"/>
<path opacity="0.01" d="M503.19 667.371L571.865 509.045L503.19 350.745" stroke="#FF2748" stroke-width="21.26" stroke-linecap="round" stroke-linejoin="round"/>
<path opacity="0.01" d="M503.19 667.371L571.865 509.045L503.19 350.745" stroke="#FF2748" stroke-width="20.15" stroke-linecap="round" stroke-linejoin="round"/>
<path opacity="0.01" d="M503.19 667.371L571.865 509.045L503.19 350.745" stroke="#FF2748" stroke-width="19.03" stroke-linecap="round" stroke-linejoin="round"/>
<path opacity="0.02" d="M503.19 667.371L571.865 509.045L503.19 350.745" stroke="#FF2748" stroke-width="17.91" stroke-linecap="round" stroke-linejoin="round"/>
<path opacity="0.02" d="M503.19 667.371L571.865 509.045L503.19 350.745" stroke="#FF2748" stroke-width="16.79" stroke-linecap="round" stroke-linejoin="round"/>
<path opacity="0.02" d="M503.19 667.371L571.865 509.045L503.19 350.745" stroke="#FF2748" stroke-width="15.67" stroke-linecap="round" stroke-linejoin="round"/>
<path opacity="0.03" d="M503.19 667.371L571.865 509.045L503.19 350.745" stroke="#FF2748" stroke-width="14.55" stroke-linecap="round" stroke-linejoin="round"/>
<path opacity="0.03" d="M503.19 667.371L571.865 509.045L503.19 350.745" stroke="#FF2748" stroke-width="13.43" stroke-linecap="round" stroke-linejoin="round"/>
<path opacity="0.04" d="M503.19 667.371L571.865 509.045L503.19 350.745" stroke="#FF2748" stroke-width="12.31" stroke-linecap="round" stroke-linejoin="round"/>
<path opacity="0.04" d="M503.19 667.371L571.865 509.045L503.19 350.745" stroke="#FF2748" stroke-width="11.19" stroke-linecap="round" stroke-linejoin="round"/>
<path opacity="0.05" d="M503.19 667.371L571.865 509.045L503.19 350.745" stroke="#FF2748" stroke-width="10.07" stroke-linecap="round" stroke-linejoin="round"/>
<path opacity="0.06" d="M503.19 667.371L571.865 509.045L503.19 350.745" stroke="#FF2748" stroke-width="8.95" stroke-linecap="round" stroke-linejoin="round"/>
<path opacity="0.07" d="M503.19 667.371L571.865 509.045L503.19 350.745" stroke="#FF2748" stroke-width="7.83" stroke-linecap="round" stroke-linejoin="round"/>
<path opacity="0.08" d="M503.19 667.371L571.865 509.045L503.19 350.745" stroke="#FF2748" stroke-width="6.72" stroke-linecap="round" stroke-linejoin="round"/>
<path opacity="0.1" d="M503.19 667.371L571.865 509.045L503.19 350.745" stroke="#FF2748" stroke-width="5.6" stroke-linecap="round" stroke-linejoin="round"/>
<path opacity="0.15" d="M503.19 667.371L571.865 509.045L503.19 350.745" stroke="#FF2748" stroke-width="4.48" stroke-linecap="round" stroke-linejoin="round"/>
<path d="M503.19 667.371L571.865 509.045L503.19 350.745" stroke="#FF2748" stroke-width="3.36" stroke-linecap="round" stroke-linejoin="round"/>
<path d="M503.19 667.371L571.865 509.045L503.19 350.745" stroke="#FFE2E6" stroke-width="2.01" stroke-linecap="round" stroke-linejoin="round"/>
<path d="M503.19 667.371L571.865 509.045L503.19 350.745" stroke="white" stroke-width="0.67" stroke-linecap="round" stroke-linejoin="round"/>
<path opacity="0.01" d="M458.879 687.644L544.114 509.045L458.879 330.446" stroke="#FF2748" stroke-width="23.5" stroke-linecap="round" stroke-linejoin="round"/>
<path opacity="0.01" d="M458.879 687.644L544.114 509.045L458.879 330.446" stroke="#FF2748" stroke-width="22.38" stroke-linecap="round" stroke-linejoin="round"/>
<path opacity="0.01" d="M458.879 687.644L544.114 509.045L458.879 330.446" stroke="#FF2748" stroke-width="21.26" stroke-linecap="round" stroke-linejoin="round"/>
<path opacity="0.01" d="M458.879 687.644L544.114 509.045L458.879 330.446" stroke="#FF2748" stroke-width="20.15" stroke-linecap="round" stroke-linejoin="round"/>
<path opacity="0.01" d="M458.879 687.644L544.114 509.045L458.879 330.446" stroke="#FF2748" stroke-width="19.03" stroke-linecap="round" stroke-linejoin="round"/>
<path opacity="0.02" d="M458.879 687.644L544.114 509.045L458.879 330.446" stroke="#FF2748" stroke-width="17.91" stroke-linecap="round" stroke-linejoin="round"/>
<path opacity="0.02" d="M458.879 687.644L544.114 509.045L458.879 330.446" stroke="#FF2748" stroke-width="16.79" stroke-linecap="round" stroke-linejoin="round"/>
<path opacity="0.02" d="M458.879 687.644L544.114 509.045L458.879 330.446" stroke="#FF2748" stroke-width="15.67" stroke-linecap="round" stroke-linejoin="round"/>
<path opacity="0.03" d="M458.879 687.644L544.114 509.045L458.879 330.446" stroke="#FF2748" stroke-width="14.55" stroke-linecap="round" stroke-linejoin="round"/>
<path opacity="0.03" d="M458.879 687.644L544.114 509.045L458.879 330.446" stroke="#FF2748" stroke-width="13.43" stroke-linecap="round" stroke-linejoin="round"/>
<path opacity="0.04" d="M458.879 687.644L544.114 509.045L458.879 330.446" stroke="#FF2748" stroke-width="12.31" stroke-linecap="round" stroke-linejoin="round"/>
<path opacity="0.04" d="M458.879 687.644L544.114 509.045L458.879 330.446" stroke="#FF2748" stroke-width="11.19" stroke-linecap="round" stroke-linejoin="round"/>
<path opacity="0.05" d="M458.879 687.644L544.114 509.045L458.879 330.446" stroke="#FF2748" stroke-width="10.07" stroke-linecap="round" stroke-linejoin="round"/>
<path opacity="0.06" d="M458.879 687.644L544.114 509.045L458.879 330.446" stroke="#FF2748" stroke-width="8.95" stroke-linecap="round" stroke-linejoin="round"/>
<path opacity="0.07" d="M458.879 687.644L544.114 509.045L458.879 330.446" stroke="#FF2748" stroke-width="7.83" stroke-linecap="round" stroke-linejoin="round"/>
<path opacity="0.08" d="M458.879 687.644L544.114 509.045L458.879 330.446" stroke="#FF2748" stroke-width="6.72" stroke-linecap="round" stroke-linejoin="round"/>
<path opacity="0.1" d="M458.879 687.644L544.114 509.045L458.879 330.446" stroke="#FF2748" stroke-width="5.6" stroke-linecap="round" stroke-linejoin="round"/>
<path opacity="0.15" d="M458.879 687.644L544.114 509.045L458.879 330.446" stroke="#FF2748" stroke-width="4.48" stroke-linecap="round" stroke-linejoin="round"/>
<path d="M458.879 687.644L544.114 509.045L458.879 330.446" stroke="#FF2748" stroke-width="3.36" stroke-linecap="round" stroke-linejoin="round"/>
<path d="M458.879 687.644L544.114 509.045L458.879 330.446" stroke="#FFE2E6" stroke-width="2.01" stroke-linecap="round" stroke-linejoin="round"/>
<path d="M458.879 687.644L544.114 509.045L458.879 330.446" stroke="white" stroke-width="0.67" stroke-linecap="round" stroke-linejoin="round"/>
<path opacity="0.01" d="M401.521 713.89L510.165 509.045L401.521 304.201" stroke="#FF2748" stroke-width="23.5" stroke-linecap="round" stroke-linejoin="round"/>
<path opacity="0.01" d="M401.521 713.89L510.165 509.045L401.521 304.201" stroke="#FF2748" stroke-width="22.38" stroke-linecap="round" stroke-linejoin="round"/>
<path opacity="0.01" d="M401.521 713.89L510.165 509.045L401.521 304.201" stroke="#FF2748" stroke-width="21.26" stroke-linecap="round" stroke-linejoin="round"/>
<path opacity="0.01" d="M401.521 713.89L510.165 509.045L401.521 304.201" stroke="#FF2748" stroke-width="20.15" stroke-linecap="round" stroke-linejoin="round"/>
<path opacity="0.01" d="M401.521 713.89L510.165 509.045L401.521 304.201" stroke="#FF2748" stroke-width="19.03" stroke-linecap="round" stroke-linejoin="round"/>
<path opacity="0.02" d="M401.521 713.89L510.165 509.045L401.521 304.201" stroke="#FF2748" stroke-width="17.91" stroke-linecap="round" stroke-linejoin="round"/>
<path opacity="0.02" d="M401.521 713.89L510.165 509.045L401.521 304.201" stroke="#FF2748" stroke-width="16.79" stroke-linecap="round" stroke-linejoin="round"/>
<path opacity="0.02" d="M401.521 713.89L510.165 509.045L401.521 304.201" stroke="#FF2748" stroke-width="15.67" stroke-linecap="round" stroke-linejoin="round"/>
<path opacity="0.03" d="M401.521 713.89L510.165 509.045L401.521 304.201" stroke="#FF2748" stroke-width="14.55" stroke-linecap="round" stroke-linejoin="round"/>
<path opacity="0.03" d="M401.521 713.89L510.165 509.045L401.521 304.201" stroke="#FF2748" stroke-width="13.43" stroke-linecap="round" stroke-linejoin="round"/>
<path opacity="0.04" d="M401.521 713.89L510.165 509.045L401.521 304.201" stroke="#FF2748" stroke-width="12.31" stroke-linecap="round" stroke-linejoin="round"/>
<path opacity="0.04" d="M401.521 713.89L510.165 509.045L401.521 304.201" stroke="#FF2748" stroke-width="11.19" stroke-linecap="round" stroke-linejoin="round"/>
<path opacity="0.05" d="M401.521 713.89L510.165 509.045L401.521 304.201" stroke="#FF2748" stroke-width="10.07" stroke-linecap="round" stroke-linejoin="round"/>
<path opacity="0.06" d="M401.521 713.89L510.165 509.045L401.521 304.201" stroke="#FF2748" stroke-width="8.95" stroke-linecap="round" stroke-linejoin="round"/>
<path opacity="0.07" d="M401.521 713.89L510.165 509.045L401.521 304.201" stroke="#FF2748" stroke-width="7.83" stroke-linecap="round" stroke-linejoin="round"/>
<path opacity="0.08" d="M401.521 713.89L510.165 509.045L401.521 304.201" stroke="#FF2748" stroke-width="6.72" stroke-linecap="round" stroke-linejoin="round"/>
<path opacity="0.1" d="M401.521 713.89L510.165 509.045L401.521 304.201" stroke="#FF2748" stroke-width="5.6" stroke-linecap="round" stroke-linejoin="round"/>
<path opacity="0.15" d="M401.521 713.89L510.165 509.045L401.521 304.201" stroke="#FF2748" stroke-width="4.48" stroke-linecap="round" stroke-linejoin="round"/>
<path d="M401.521 713.89L510.165 509.045L401.521 304.201" stroke="#FF2748" stroke-width="3.36" stroke-linecap="round" stroke-linejoin="round"/>
<path d="M401.521 713.89L510.165 509.045L401.521 304.201" stroke="#FFE2E6" stroke-width="2.01" stroke-linecap="round" stroke-linejoin="round"/>
<path d="M401.521 713.89L510.165 509.045L401.521 304.201" stroke="white" stroke-width="0.67" stroke-linecap="round" stroke-linejoin="round"/>
<path opacity="0.01" d="M324.415 749.193L467.736 509.045L324.415 268.897" stroke="#FF2748" stroke-width="23.5" stroke-linecap="round" stroke-linejoin="round"/>
<path opacity="0.01" d="M324.415 749.193L467.736 509.045L324.415 268.897" stroke="#FF2748" stroke-width="22.38" stroke-linecap="round" stroke-linejoin="round"/>
<path opacity="0.01" d="M324.415 749.193L467.736 509.045L324.415 268.897" stroke="#FF2748" stroke-width="21.26" stroke-linecap="round" stroke-linejoin="round"/>
<path opacity="0.01" d="M324.415 749.193L467.736 509.045L324.415 268.897" stroke="#FF2748" stroke-width="20.15" stroke-linecap="round" stroke-linejoin="round"/>
<path opacity="0.01" d="M324.415 749.193L467.736 509.045L324.415 268.897" stroke="#FF2748" stroke-width="19.03" stroke-linecap="round" stroke-linejoin="round"/>
<path opacity="0.02" d="M324.415 749.193L467.736 509.045L324.415 268.897" stroke="#FF2748" stroke-width="17.91" stroke-linecap="round" stroke-linejoin="round"/>
<path opacity="0.02" d="M324.415 749.193L467.736 509.045L324.415 268.897" stroke="#FF2748" stroke-width="16.79" stroke-linecap="round" stroke-linejoin="round"/>
<path opacity="0.02" d="M324.415 749.193L467.736 509.045L324.415 268.897" stroke="#FF2748" stroke-width="15.67" stroke-linecap="round" stroke-linejoin="round"/>
<path opacity="0.03" d="M324.415 749.193L467.736 509.045L324.415 268.897" stroke="#FF2748" stroke-width="14.55" stroke-linecap="round" stroke-linejoin="round"/>
<path opacity="0.03" d="M324.415 749.193L467.736 509.045L324.415 268.897" stroke="#FF2748" stroke-width="13.43" stroke-linecap="round" stroke-linejoin="round"/>
<path opacity="0.04" d="M324.415 749.193L467.736 509.045L324.415 268.897" stroke="#FF2748" stroke-width="12.31" stroke-linecap="round" stroke-linejoin="round"/>
<path opacity="0.04" d="M324.415 749.193L467.736 509.045L324.415 268.897" stroke="#FF2748" stroke-width="11.19" stroke-linecap="round" stroke-linejoin="round"/>
<path opacity="0.05" d="M324.415 749.193L467.736 509.045L324.415 268.897" stroke="#FF2748" stroke-width="10.07" stroke-linecap="round" stroke-linejoin="round"/>
<path opacity="0.06" d="M324.415 749.193L467.736 509.045L324.415 268.897" stroke="#FF2748" stroke-width="8.95" stroke-linecap="round" stroke-linejoin="round"/>
<path opacity="0.07" d="M324.415 749.193L467.736 509.045L324.415 268.897" stroke="#FF2748" stroke-width="7.83" stroke-linecap="round" stroke-linejoin="round"/>
<path opacity="0.08" d="M324.415 749.193L467.736 509.045L324.415 268.897" stroke="#FF2748" stroke-width="6.72" stroke-linecap="round" stroke-linejoin="round"/>
<path opacity="0.1" d="M324.415 749.193L467.736 509.045L324.415 268.897" stroke="#FF2748" stroke-width="5.6" stroke-linecap="round" stroke-linejoin="round"/>
<path opacity="0.15" d="M324.415 749.193L467.736 509.045L324.415 268.897" stroke="#FF2748" stroke-width="4.48" stroke-linecap="round" stroke-linejoin="round"/>
<path d="M324.415 749.193L467.736 509.045L324.415 268.897" stroke="#FF2748" stroke-width="3.36" stroke-linecap="round" stroke-linejoin="round"/>
<path d="M324.415 749.193L467.736 509.045L324.415 268.897" stroke="#FFE2E6" stroke-width="2.01" stroke-linecap="round" stroke-linejoin="round"/>
<path d="M324.415 749.193L467.736 509.045L324.415 268.897" stroke="white" stroke-width="0.67" stroke-linecap="round" stroke-linejoin="round"/>
<path opacity="0.01" d="M215.194 799.2L413.138 509.045L215.194 218.891" stroke="#FF2748" stroke-width="23.5" stroke-linecap="round" stroke-linejoin="round"/>
<path opacity="0.01" d="M215.194 799.2L413.138 509.045L215.194 218.891" stroke="#FF2748" stroke-width="22.38" stroke-linecap="round" stroke-linejoin="round"/>
<path opacity="0.01" d="M215.194 799.2L413.138 509.045L215.194 218.891" stroke="#FF2748" stroke-width="21.26" stroke-linecap="round" stroke-linejoin="round"/>
<path opacity="0.01" d="M215.194 799.2L413.138 509.045L215.194 218.891" stroke="#FF2748" stroke-width="20.15" stroke-linecap="round" stroke-linejoin="round"/>
<path opacity="0.01" d="M215.194 799.2L413.138 509.045L215.194 218.891" stroke="#FF2748" stroke-width="19.03" stroke-linecap="round" stroke-linejoin="round"/>
<path opacity="0.02" d="M215.194 799.2L413.138 509.045L215.194 218.891" stroke="#FF2748" stroke-width="17.91" stroke-linecap="round" stroke-linejoin="round"/>
<path opacity="0.02" d="M215.194 799.2L413.138 509.045L215.194 218.891" stroke="#FF2748" stroke-width="16.79" stroke-linecap="round" stroke-linejoin="round"/>
<path opacity="0.02" d="M215.194 799.2L413.138 509.045L215.194 218.891" stroke="#FF2748" stroke-width="15.67" stroke-linecap="round" stroke-linejoin="round"/>
<path opacity="0.03" d="M215.194 799.2L413.138 509.045L215.194 218.891" stroke="#FF2748" stroke-width="14.55" stroke-linecap="round" stroke-linejoin="round"/>
<path opacity="0.03" d="M215.194 799.2L413.138 509.045L215.194 218.891" stroke="#FF2748" stroke-width="13.43" stroke-linecap="round" stroke-linejoin="round"/>
<path opacity="0.04" d="M215.194 799.2L413.138 509.045L215.194 218.891" stroke="#FF2748" stroke-width="12.31" stroke-linecap="round" stroke-linejoin="round"/>
<path opacity="0.04" d="M215.194 799.2L413.138 509.045L215.194 218.891" stroke="#FF2748" stroke-width="11.19" stroke-linecap="round" stroke-linejoin="round"/>
<path opacity="0.05" d="M215.194 799.2L413.138 509.045L215.194 218.891" stroke="#FF2748" stroke-width="10.07" stroke-linecap="round" stroke-linejoin="round"/>
<path opacity="0.06" d="M215.194 799.2L413.138 509.045L215.194 218.891" stroke="#FF2748" stroke-width="8.95" stroke-linecap="round" stroke-linejoin="round"/>
<path opacity="0.07" d="M215.194 799.2L413.138 509.045L215.194 218.891" stroke="#FF2748" stroke-width="7.83" stroke-linecap="round" stroke-linejoin="round"/>
<path opacity="0.08" d="M215.194 799.2L413.138 509.045L215.194 218.891" stroke="#FF2748" stroke-width="6.72" stroke-linecap="round" stroke-linejoin="round"/>
<path opacity="0.1" d="M215.194 799.2L413.138 509.045L215.194 218.891" stroke="#FF2748" stroke-width="5.6" stroke-linecap="round" stroke-linejoin="round"/>
<path opacity="0.15" d="M215.194 799.2L413.138 509.045L215.194 218.891" stroke="#FF2748" stroke-width="4.48" stroke-linecap="round" stroke-linejoin="round"/>
<path d="M215.194 799.2L413.138 509.045L215.194 218.891" stroke="#FF2748" stroke-width="3.36" stroke-linecap="round" stroke-linejoin="round"/>
<path d="M215.194 799.2L413.138 509.045L215.194 218.891" stroke="#FFE2E6" stroke-width="2.01" stroke-linecap="round" stroke-linejoin="round"/>
<path d="M215.194 799.2L413.138 509.045L215.194 218.891" stroke="white" stroke-width="0.67" stroke-linecap="round" stroke-linejoin="round"/>
<path opacity="0.01" d="M48.5371 875.502L340.323 509.045L48.5371 142.614" stroke="#FF2748" stroke-width="23.5" stroke-linecap="round" stroke-linejoin="round"/>
<path opacity="0.01" d="M48.5371 875.502L340.323 509.045L48.5371 142.614" stroke="#FF2748" stroke-width="22.38" stroke-linecap="round" stroke-linejoin="round"/>
<path opacity="0.01" d="M48.5371 875.502L340.323 509.045L48.5371 142.614" stroke="#FF2748" stroke-width="21.26" stroke-linecap="round" stroke-linejoin="round"/>
<path opacity="0.01" d="M48.5371 875.502L340.323 509.045L48.5371 142.614" stroke="#FF2748" stroke-width="20.15" stroke-linecap="round" stroke-linejoin="round"/>
<path opacity="0.01" d="M48.5371 875.502L340.323 509.045L48.5371 142.614" stroke="#FF2748" stroke-width="19.03" stroke-linecap="round" stroke-linejoin="round"/>
<path opacity="0.02" d="M48.5371 875.502L340.323 509.045L48.5371 142.614" stroke="#FF2748" stroke-width="17.91" stroke-linecap="round" stroke-linejoin="round"/>
<path opacity="0.02" d="M48.5371 875.502L340.323 509.045L48.5371 142.614" stroke="#FF2748" stroke-width="16.79" stroke-linecap="round" stroke-linejoin="round"/>
<path opacity="0.02" d="M48.5371 875.502L340.323 509.045L48.5371 142.614" stroke="#FF2748" stroke-width="15.67" stroke-linecap="round" stroke-linejoin="round"/>
<path opacity="0.03" d="M48.5371 875.502L340.323 509.045L48.5371 142.614" stroke="#FF2748" stroke-width="14.55" stroke-linecap="round" stroke-linejoin="round"/>
<path opacity="0.03" d="M48.5371 875.502L340.323 509.045L48.5371 142.614" stroke="#FF2748" stroke-width="13.43" stroke-linecap="round" stroke-linejoin="round"/>
<path opacity="0.04" d="M48.5371 875.502L340.323 509.045L48.5371 142.614" stroke="#FF2748" stroke-width="12.31" stroke-linecap="round" stroke-linejoin="round"/>
<path opacity="0.04" d="M48.5371 875.502L340.323 509.045L48.5371 142.614" stroke="#FF2748" stroke-width="11.19" stroke-linecap="round" stroke-linejoin="round"/>
<path opacity="0.05" d="M48.5371 875.502L340.323 509.045L48.5371 142.614" stroke="#FF2748" stroke-width="10.07" stroke-linecap="round" stroke-linejoin="round"/>
<path opacity="0.06" d="M48.5371 875.502L340.323 509.045L48.5371 142.614" stroke="#FF2748" stroke-width="8.95" stroke-linecap="round" stroke-linejoin="round"/>
<path opacity="0.07" d="M48.5371 875.502L340.323 509.045L48.5371 142.614" stroke="#FF2748" stroke-width="7.83" stroke-linecap="round" stroke-linejoin="round"/>
<path opacity="0.08" d="M48.5371 875.502L340.323 509.045L48.5371 142.614" stroke="#FF2748" stroke-width="6.72" stroke-linecap="round" stroke-linejoin="round"/>
<path opacity="0.1" d="M48.5371 875.502L340.323 509.045L48.5371 142.614" stroke="#FF2748" stroke-width="5.6" stroke-linecap="round" stroke-linejoin="round"/>
<path opacity="0.15" d="M48.5371 875.502L340.323 509.045L48.5371 142.614" stroke="#FF2748" stroke-width="4.48" stroke-linecap="round" stroke-linejoin="round"/>
<path d="M48.5371 875.502L340.323 509.045L48.5371 142.614" stroke="#FF2748" stroke-width="3.36" stroke-linecap="round" stroke-linejoin="round"/>
<path d="M48.5371 875.502L340.323 509.045L48.5371 142.614" stroke="#FFE2E6" stroke-width="2.01" stroke-linecap="round" stroke-linejoin="round"/>
<path d="M48.5371 875.502L340.323 509.045L48.5371 142.614" stroke="white" stroke-width="0.67" stroke-linecap="round" stroke-linejoin="round"/>
<path opacity="0.01" d="M-237 1006.2L238.252 509.045L-237 11.8884" stroke="#FF2748" stroke-width="23.5" stroke-linecap="round" stroke-linejoin="round"/>
<path opacity="0.01" d="M-237 1006.2L238.252 509.045L-237 11.8884" stroke="#FF2748" stroke-width="22.38" stroke-linecap="round" stroke-linejoin="round"/>
<path opacity="0.01" d="M-237 1006.2L238.252 509.045L-237 11.8884" stroke="#FF2748" stroke-width="21.26" stroke-linecap="round" stroke-linejoin="round"/>
<path opacity="0.01" d="M-237 1006.2L238.252 509.045L-237 11.8884" stroke="#FF2748" stroke-width="20.15" stroke-linecap="round" stroke-linejoin="round"/>
<path opacity="0.01" d="M-237 1006.2L238.252 509.045L-237 11.8884" stroke="#FF2748" stroke-width="19.03" stroke-linecap="round" stroke-linejoin="round"/>
<path opacity="0.02" d="M-237 1006.2L238.252 509.045L-237 11.8884" stroke="#FF2748" stroke-width="17.91" stroke-linecap="round" stroke-linejoin="round"/>
<path opacity="0.02" d="M-237 1006.2L238.252 509.045L-237 11.8884" stroke="#FF2748" stroke-width="16.79" stroke-linecap="round" stroke-linejoin="round"/>
<path opacity="0.02" d="M-237 1006.2L238.252 509.045L-237 11.8884" stroke="#FF2748" stroke-width="15.67" stroke-linecap="round" stroke-linejoin="round"/>
<path opacity="0.03" d="M-237 1006.2L238.252 509.045L-237 11.8884" stroke="#FF2748" stroke-width="14.55" stroke-linecap="round" stroke-linejoin="round"/>
<path opacity="0.03" d="M-237 1006.2L238.252 509.045L-237 11.8884" stroke="#FF2748" stroke-width="13.43" stroke-linecap="round" stroke-linejoin="round"/>
<path opacity="0.04" d="M-237 1006.2L238.252 509.045L-237 11.8884" stroke="#FF2748" stroke-width="12.31" stroke-linecap="round" stroke-linejoin="round"/>
<path opacity="0.04" d="M-237 1006.2L238.252 509.045L-237 11.8884" stroke="#FF2748" stroke-width="11.19" stroke-linecap="round" stroke-linejoin="round"/>
<path opacity="0.05" d="M-237 1006.2L238.252 509.045L-237 11.8884" stroke="#FF2748" stroke-width="10.07" stroke-linecap="round" stroke-linejoin="round"/>
<path opacity="0.06" d="M-237 1006.2L238.252 509.045L-237 11.8884" stroke="#FF2748" stroke-width="8.95" stroke-linecap="round" stroke-linejoin="round"/>
<path opacity="0.07" d="M-237 1006.2L238.252 509.045L-237 11.8884" stroke="#FF2748" stroke-width="7.83" stroke-linecap="round" stroke-linejoin="round"/>
<path opacity="0.08" d="M-237 1006.2L238.252 509.045L-237 11.8884" stroke="#FF2748" stroke-width="6.72" stroke-linecap="round" stroke-linejoin="round"/>
<path opacity="0.1" d="M-237 1006.2L238.252 509.045L-237 11.8884" stroke="#FF2748" stroke-width="5.6" stroke-linecap="round" stroke-linejoin="round"/>
<path opacity="0.15" d="M-237 1006.2L238.252 509.045L-237 11.8884" stroke="#FF2748" stroke-width="4.48" stroke-linecap="round" stroke-linejoin="round"/>
<path d="M-237 1006.2L238.252 509.045L-237 11.8884" stroke="#FF2748" stroke-width="3.36" stroke-linecap="round" stroke-linejoin="round"/>
<path d="M-237 1006.2L238.252 509.045L-237 11.8884" stroke="#FFE2E6" stroke-width="2.01" stroke-linecap="round" stroke-linejoin="round"/>
<path d="M-237 1006.2L238.252 509.045L-237 11.8884" stroke="white" stroke-width="0.67" stroke-linecap="round" stroke-linejoin="round"/>
<defs>
<filter id="filter0_f" x="-44.8628" y="80.6769" width="1016.52" height="857.891" filterUnits="userSpaceOnUse" color-interpolation-filters="sRGB">
<feFlood flood-opacity="0" result="BackgroundImageFix"/>
<feBlend mode="normal" in="SourceGraphic" in2="BackgroundImageFix" result="shape"/>
<feGaussianBlur stdDeviation="50" result="effect1_foregroundBlur"/>
</filter>
<radialGradient id="paint0_radial" cx="0" cy="0" r="1" gradientUnits="userSpaceOnUse" gradientTransform="translate(463.396 509.622) rotate(90.1195) scale(189.878 235.66)">
<stop stop-color="#FF3756" stop-opacity="0.51"/>
<stop offset="1" stop-color="#002347"/>
</radialGradient>
</defs>
</svg>
