<svg width="928" height="1018" viewBox="0 0 928 1018" fill="none" xmlns="http://www.w3.org/2000/svg">
<g filter="url(#filter0_f)">
<path d="M508.949 838.568C734.424 838.568 917.207 691.294 917.207 509.622C917.207 327.951 734.424 180.677 508.949 180.677C283.474 180.677 100.69 327.951 100.69 509.622C100.69 691.294 283.474 838.568 508.949 838.568Z" fill="url(#paint0_radial)"/>
</g>
<path opacity="0.01" d="M388.535 651.212L332.005 509.045L388.535 366.879" stroke="#0055D7" stroke-width="23.5" stroke-linecap="round" stroke-linejoin="round"/>
<path opacity="0.01" d="M388.535 651.212L332.005 509.045L388.535 366.879" stroke="#0055D7" stroke-width="22.38" stroke-linecap="round" stroke-linejoin="round"/>
<path opacity="0.01" d="M388.535 651.212L332.005 509.045L388.535 366.879" stroke="#0055D7" stroke-width="21.26" stroke-linecap="round" stroke-linejoin="round"/>
<path opacity="0.01" d="M388.535 651.212L332.005 509.045L388.535 366.879" stroke="#0055D7" stroke-width="20.15" stroke-linecap="round" stroke-linejoin="round"/>
<path opacity="0.01" d="M388.535 651.212L332.005 509.045L388.535 366.879" stroke="#0055D7" stroke-width="19.03" stroke-linecap="round" stroke-linejoin="round"/>
<path opacity="0.02" d="M388.535 651.212L332.005 509.045L388.535 366.879" stroke="#0055D7" stroke-width="17.91" stroke-linecap="round" stroke-linejoin="round"/>
<path opacity="0.02" d="M388.535 651.212L332.005 509.045L388.535 366.879" stroke="#0055D7" stroke-width="16.79" stroke-linecap="round" stroke-linejoin="round"/>
<path opacity="0.02" d="M388.535 651.212L332.005 509.045L388.535 366.879" stroke="#0055D7" stroke-width="15.67" stroke-linecap="round" stroke-linejoin="round"/>
<path opacity="0.03" d="M388.535 651.212L332.005 509.045L388.535 366.879" stroke="#0055D7" stroke-width="14.55" stroke-linecap="round" stroke-linejoin="round"/>
<path opacity="0.03" d="M388.535 651.212L332.005 509.045L388.535 366.879" stroke="#0055D7" stroke-width="13.43" stroke-linecap="round" stroke-linejoin="round"/>
<path opacity="0.04" d="M388.535 651.212L332.005 509.045L388.535 366.879" stroke="#0055D7" stroke-width="12.31" stroke-linecap="round" stroke-linejoin="round"/>
<path opacity="0.04" d="M388.535 651.212L332.005 509.045L388.535 366.879" stroke="#0055D7" stroke-width="11.19" stroke-linecap="round" stroke-linejoin="round"/>
<path opacity="0.05" d="M388.535 651.212L332.005 509.045L388.535 366.879" stroke="#0055D7" stroke-width="10.07" stroke-linecap="round" stroke-linejoin="round"/>
<path opacity="0.06" d="M388.535 651.212L332.005 509.045L388.535 366.879" stroke="#0055D7" stroke-width="8.95" stroke-linecap="round" stroke-linejoin="round"/>
<path opacity="0.07" d="M388.535 651.212L332.005 509.045L388.535 366.879" stroke="#0055D7" stroke-width="7.83" stroke-linecap="round" stroke-linejoin="round"/>
<path opacity="0.08" d="M388.535 651.212L332.005 509.045L388.535 366.879" stroke="#0055D7" stroke-width="6.72" stroke-linecap="round" stroke-linejoin="round"/>
<path opacity="0.1" d="M388.535 651.212L332.005 509.045L388.535 366.879" stroke="#0055D7" stroke-width="5.6" stroke-linecap="round" stroke-linejoin="round"/>
<path opacity="0.15" d="M388.535 651.212L332.005 509.045L388.535 366.879" stroke="#0055D7" stroke-width="4.48" stroke-linecap="round" stroke-linejoin="round"/>
<path d="M388.535 651.212L332.005 509.045L388.535 366.879" stroke="#0055D7" stroke-width="3.36" stroke-linecap="round" stroke-linejoin="round"/>
<path d="M388.535 651.212L332.005 509.045L388.535 366.879" stroke="#DDE8FA" stroke-width="2.01" stroke-linecap="round" stroke-linejoin="round"/>
<path d="M388.535 651.212L332.005 509.045L388.535 366.879" stroke="white" stroke-width="0.67" stroke-linecap="round" stroke-linejoin="round"/>
<path opacity="0.01" d="M423.814 667.371L355.14 509.045L423.814 350.745" stroke="#0055D7" stroke-width="23.5" stroke-linecap="round" stroke-linejoin="round"/>
<path opacity="0.01" d="M423.814 667.371L355.14 509.045L423.814 350.745" stroke="#0055D7" stroke-width="22.38" stroke-linecap="round" stroke-linejoin="round"/>
<path opacity="0.01" d="M423.814 667.371L355.14 509.045L423.814 350.745" stroke="#0055D7" stroke-width="21.26" stroke-linecap="round" stroke-linejoin="round"/>
<path opacity="0.01" d="M423.814 667.371L355.14 509.045L423.814 350.745" stroke="#0055D7" stroke-width="20.15" stroke-linecap="round" stroke-linejoin="round"/>
<path opacity="0.01" d="M423.814 667.371L355.14 509.045L423.814 350.745" stroke="#0055D7" stroke-width="19.03" stroke-linecap="round" stroke-linejoin="round"/>
<path opacity="0.02" d="M423.814 667.371L355.14 509.045L423.814 350.745" stroke="#0055D7" stroke-width="17.91" stroke-linecap="round" stroke-linejoin="round"/>
<path opacity="0.02" d="M423.814 667.371L355.14 509.045L423.814 350.745" stroke="#0055D7" stroke-width="16.79" stroke-linecap="round" stroke-linejoin="round"/>
<path opacity="0.02" d="M423.814 667.371L355.14 509.045L423.814 350.745" stroke="#0055D7" stroke-width="15.67" stroke-linecap="round" stroke-linejoin="round"/>
<path opacity="0.03" d="M423.814 667.371L355.14 509.045L423.814 350.745" stroke="#0055D7" stroke-width="14.55" stroke-linecap="round" stroke-linejoin="round"/>
<path opacity="0.03" d="M423.814 667.371L355.14 509.045L423.814 350.745" stroke="#0055D7" stroke-width="13.43" stroke-linecap="round" stroke-linejoin="round"/>
<path opacity="0.04" d="M423.814 667.371L355.14 509.045L423.814 350.745" stroke="#0055D7" stroke-width="12.31" stroke-linecap="round" stroke-linejoin="round"/>
<path opacity="0.04" d="M423.814 667.371L355.14 509.045L423.814 350.745" stroke="#0055D7" stroke-width="11.19" stroke-linecap="round" stroke-linejoin="round"/>
<path opacity="0.05" d="M423.814 667.371L355.14 509.045L423.814 350.745" stroke="#0055D7" stroke-width="10.07" stroke-linecap="round" stroke-linejoin="round"/>
<path opacity="0.06" d="M423.814 667.371L355.14 509.045L423.814 350.745" stroke="#0055D7" stroke-width="8.95" stroke-linecap="round" stroke-linejoin="round"/>
<path opacity="0.07" d="M423.814 667.371L355.14 509.045L423.814 350.745" stroke="#0055D7" stroke-width="7.83" stroke-linecap="round" stroke-linejoin="round"/>
<path opacity="0.08" d="M423.814 667.371L355.14 509.045L423.814 350.745" stroke="#0055D7" stroke-width="6.72" stroke-linecap="round" stroke-linejoin="round"/>
<path opacity="0.1" d="M423.814 667.371L355.14 509.045L423.814 350.745" stroke="#0055D7" stroke-width="5.6" stroke-linecap="round" stroke-linejoin="round"/>
<path opacity="0.15" d="M423.814 667.371L355.14 509.045L423.814 350.745" stroke="#0055D7" stroke-width="4.48" stroke-linecap="round" stroke-linejoin="round"/>
<path d="M423.814 667.371L355.14 509.045L423.814 350.745" stroke="#0055D7" stroke-width="3.36" stroke-linecap="round" stroke-linejoin="round"/>
<path d="M423.814 667.371L355.14 509.045L423.814 350.745" stroke="#DDE8FA" stroke-width="2.01" stroke-linecap="round" stroke-linejoin="round"/>
<path d="M423.814 667.371L355.14 509.045L423.814 350.745" stroke="white" stroke-width="0.67" stroke-linecap="round" stroke-linejoin="round"/>
<path opacity="0.01" d="M468.126 687.644L382.891 509.045L468.126 330.446" stroke="#0055D7" stroke-width="23.5" stroke-linecap="round" stroke-linejoin="round"/>
<path opacity="0.01" d="M468.126 687.644L382.891 509.045L468.126 330.446" stroke="#0055D7" stroke-width="22.38" stroke-linecap="round" stroke-linejoin="round"/>
<path opacity="0.01" d="M468.126 687.644L382.891 509.045L468.126 330.446" stroke="#0055D7" stroke-width="21.26" stroke-linecap="round" stroke-linejoin="round"/>
<path opacity="0.01" d="M468.126 687.644L382.891 509.045L468.126 330.446" stroke="#0055D7" stroke-width="20.15" stroke-linecap="round" stroke-linejoin="round"/>
<path opacity="0.01" d="M468.126 687.644L382.891 509.045L468.126 330.446" stroke="#0055D7" stroke-width="19.03" stroke-linecap="round" stroke-linejoin="round"/>
<path opacity="0.02" d="M468.126 687.644L382.891 509.045L468.126 330.446" stroke="#0055D7" stroke-width="17.91" stroke-linecap="round" stroke-linejoin="round"/>
<path opacity="0.02" d="M468.126 687.644L382.891 509.045L468.126 330.446" stroke="#0055D7" stroke-width="16.79" stroke-linecap="round" stroke-linejoin="round"/>
<path opacity="0.02" d="M468.126 687.644L382.891 509.045L468.126 330.446" stroke="#0055D7" stroke-width="15.67" stroke-linecap="round" stroke-linejoin="round"/>
<path opacity="0.03" d="M468.126 687.644L382.891 509.045L468.126 330.446" stroke="#0055D7" stroke-width="14.55" stroke-linecap="round" stroke-linejoin="round"/>
<path opacity="0.03" d="M468.126 687.644L382.891 509.045L468.126 330.446" stroke="#0055D7" stroke-width="13.43" stroke-linecap="round" stroke-linejoin="round"/>
<path opacity="0.04" d="M468.126 687.644L382.891 509.045L468.126 330.446" stroke="#0055D7" stroke-width="12.31" stroke-linecap="round" stroke-linejoin="round"/>
<path opacity="0.04" d="M468.126 687.644L382.891 509.045L468.126 330.446" stroke="#0055D7" stroke-width="11.19" stroke-linecap="round" stroke-linejoin="round"/>
<path opacity="0.05" d="M468.126 687.644L382.891 509.045L468.126 330.446" stroke="#0055D7" stroke-width="10.07" stroke-linecap="round" stroke-linejoin="round"/>
<path opacity="0.06" d="M468.126 687.644L382.891 509.045L468.126 330.446" stroke="#0055D7" stroke-width="8.95" stroke-linecap="round" stroke-linejoin="round"/>
<path opacity="0.07" d="M468.126 687.644L382.891 509.045L468.126 330.446" stroke="#0055D7" stroke-width="7.83" stroke-linecap="round" stroke-linejoin="round"/>
<path opacity="0.08" d="M468.126 687.644L382.891 509.045L468.126 330.446" stroke="#0055D7" stroke-width="6.72" stroke-linecap="round" stroke-linejoin="round"/>
<path opacity="0.1" d="M468.126 687.644L382.891 509.045L468.126 330.446" stroke="#0055D7" stroke-width="5.6" stroke-linecap="round" stroke-linejoin="round"/>
<path opacity="0.15" d="M468.126 687.644L382.891 509.045L468.126 330.446" stroke="#0055D7" stroke-width="4.48" stroke-linecap="round" stroke-linejoin="round"/>
<path d="M468.126 687.644L382.891 509.045L468.126 330.446" stroke="#0055D7" stroke-width="3.36" stroke-linecap="round" stroke-linejoin="round"/>
<path d="M468.126 687.644L382.891 509.045L468.126 330.446" stroke="#DDE8FA" stroke-width="2.01" stroke-linecap="round" stroke-linejoin="round"/>
<path d="M468.126 687.644L382.891 509.045L468.126 330.446" stroke="white" stroke-width="0.67" stroke-linecap="round" stroke-linejoin="round"/>
<path opacity="0.01" d="M525.483 713.89L416.838 509.045L525.483 304.201" stroke="#0055D7" stroke-width="23.5" stroke-linecap="round" stroke-linejoin="round"/>
<path opacity="0.01" d="M525.483 713.89L416.838 509.045L525.483 304.201" stroke="#0055D7" stroke-width="22.38" stroke-linecap="round" stroke-linejoin="round"/>
<path opacity="0.01" d="M525.483 713.89L416.838 509.045L525.483 304.201" stroke="#0055D7" stroke-width="21.26" stroke-linecap="round" stroke-linejoin="round"/>
<path opacity="0.01" d="M525.483 713.89L416.838 509.045L525.483 304.201" stroke="#0055D7" stroke-width="20.15" stroke-linecap="round" stroke-linejoin="round"/>
<path opacity="0.01" d="M525.483 713.89L416.838 509.045L525.483 304.201" stroke="#0055D7" stroke-width="19.03" stroke-linecap="round" stroke-linejoin="round"/>
<path opacity="0.02" d="M525.483 713.89L416.838 509.045L525.483 304.201" stroke="#0055D7" stroke-width="17.91" stroke-linecap="round" stroke-linejoin="round"/>
<path opacity="0.02" d="M525.483 713.89L416.838 509.045L525.483 304.201" stroke="#0055D7" stroke-width="16.79" stroke-linecap="round" stroke-linejoin="round"/>
<path opacity="0.02" d="M525.483 713.89L416.838 509.045L525.483 304.201" stroke="#0055D7" stroke-width="15.67" stroke-linecap="round" stroke-linejoin="round"/>
<path opacity="0.03" d="M525.483 713.89L416.838 509.045L525.483 304.201" stroke="#0055D7" stroke-width="14.55" stroke-linecap="round" stroke-linejoin="round"/>
<path opacity="0.03" d="M525.483 713.89L416.838 509.045L525.483 304.201" stroke="#0055D7" stroke-width="13.43" stroke-linecap="round" stroke-linejoin="round"/>
<path opacity="0.04" d="M525.483 713.89L416.838 509.045L525.483 304.201" stroke="#0055D7" stroke-width="12.31" stroke-linecap="round" stroke-linejoin="round"/>
<path opacity="0.04" d="M525.483 713.89L416.838 509.045L525.483 304.201" stroke="#0055D7" stroke-width="11.19" stroke-linecap="round" stroke-linejoin="round"/>
<path opacity="0.05" d="M525.483 713.89L416.838 509.045L525.483 304.201" stroke="#0055D7" stroke-width="10.07" stroke-linecap="round" stroke-linejoin="round"/>
<path opacity="0.06" d="M525.483 713.89L416.838 509.045L525.483 304.201" stroke="#0055D7" stroke-width="8.95" stroke-linecap="round" stroke-linejoin="round"/>
<path opacity="0.07" d="M525.483 713.89L416.838 509.045L525.483 304.201" stroke="#0055D7" stroke-width="7.83" stroke-linecap="round" stroke-linejoin="round"/>
<path opacity="0.08" d="M525.483 713.89L416.838 509.045L525.483 304.201" stroke="#0055D7" stroke-width="6.72" stroke-linecap="round" stroke-linejoin="round"/>
<path opacity="0.1" d="M525.483 713.89L416.838 509.045L525.483 304.201" stroke="#0055D7" stroke-width="5.6" stroke-linecap="round" stroke-linejoin="round"/>
<path opacity="0.15" d="M525.483 713.89L416.838 509.045L525.483 304.201" stroke="#0055D7" stroke-width="4.48" stroke-linecap="round" stroke-linejoin="round"/>
<path d="M525.483 713.89L416.838 509.045L525.483 304.201" stroke="#0055D7" stroke-width="3.36" stroke-linecap="round" stroke-linejoin="round"/>
<path d="M525.483 713.89L416.838 509.045L525.483 304.201" stroke="#DDE8FA" stroke-width="2.01" stroke-linecap="round" stroke-linejoin="round"/>
<path d="M525.483 713.89L416.838 509.045L525.483 304.201" stroke="white" stroke-width="0.67" stroke-linecap="round" stroke-linejoin="round"/>
<path opacity="0.01" d="M602.589 749.193L459.268 509.045L602.589 268.897" stroke="#0055D7" stroke-width="23.5" stroke-linecap="round" stroke-linejoin="round"/>
<path opacity="0.01" d="M602.589 749.193L459.268 509.045L602.589 268.897" stroke="#0055D7" stroke-width="22.38" stroke-linecap="round" stroke-linejoin="round"/>
<path opacity="0.01" d="M602.589 749.193L459.268 509.045L602.589 268.897" stroke="#0055D7" stroke-width="21.26" stroke-linecap="round" stroke-linejoin="round"/>
<path opacity="0.01" d="M602.589 749.193L459.268 509.045L602.589 268.897" stroke="#0055D7" stroke-width="20.15" stroke-linecap="round" stroke-linejoin="round"/>
<path opacity="0.01" d="M602.589 749.193L459.268 509.045L602.589 268.897" stroke="#0055D7" stroke-width="19.03" stroke-linecap="round" stroke-linejoin="round"/>
<path opacity="0.02" d="M602.589 749.193L459.268 509.045L602.589 268.897" stroke="#0055D7" stroke-width="17.91" stroke-linecap="round" stroke-linejoin="round"/>
<path opacity="0.02" d="M602.589 749.193L459.268 509.045L602.589 268.897" stroke="#0055D7" stroke-width="16.79" stroke-linecap="round" stroke-linejoin="round"/>
<path opacity="0.02" d="M602.589 749.193L459.268 509.045L602.589 268.897" stroke="#0055D7" stroke-width="15.67" stroke-linecap="round" stroke-linejoin="round"/>
<path opacity="0.03" d="M602.589 749.193L459.268 509.045L602.589 268.897" stroke="#0055D7" stroke-width="14.55" stroke-linecap="round" stroke-linejoin="round"/>
<path opacity="0.03" d="M602.589 749.193L459.268 509.045L602.589 268.897" stroke="#0055D7" stroke-width="13.43" stroke-linecap="round" stroke-linejoin="round"/>
<path opacity="0.04" d="M602.589 749.193L459.268 509.045L602.589 268.897" stroke="#0055D7" stroke-width="12.31" stroke-linecap="round" stroke-linejoin="round"/>
<path opacity="0.04" d="M602.589 749.193L459.268 509.045L602.589 268.897" stroke="#0055D7" stroke-width="11.19" stroke-linecap="round" stroke-linejoin="round"/>
<path opacity="0.05" d="M602.589 749.193L459.268 509.045L602.589 268.897" stroke="#0055D7" stroke-width="10.07" stroke-linecap="round" stroke-linejoin="round"/>
<path opacity="0.06" d="M602.589 749.193L459.268 509.045L602.589 268.897" stroke="#0055D7" stroke-width="8.95" stroke-linecap="round" stroke-linejoin="round"/>
<path opacity="0.07" d="M602.589 749.193L459.268 509.045L602.589 268.897" stroke="#0055D7" stroke-width="7.83" stroke-linecap="round" stroke-linejoin="round"/>
<path opacity="0.08" d="M602.589 749.193L459.268 509.045L602.589 268.897" stroke="#0055D7" stroke-width="6.72" stroke-linecap="round" stroke-linejoin="round"/>
<path opacity="0.1" d="M602.589 749.193L459.268 509.045L602.589 268.897" stroke="#0055D7" stroke-width="5.6" stroke-linecap="round" stroke-linejoin="round"/>
<path opacity="0.15" d="M602.589 749.193L459.268 509.045L602.589 268.897" stroke="#0055D7" stroke-width="4.48" stroke-linecap="round" stroke-linejoin="round"/>
<path d="M602.589 749.193L459.268 509.045L602.589 268.897" stroke="#0055D7" stroke-width="3.36" stroke-linecap="round" stroke-linejoin="round"/>
<path d="M602.589 749.193L459.268 509.045L602.589 268.897" stroke="#DDE8FA" stroke-width="2.01" stroke-linecap="round" stroke-linejoin="round"/>
<path d="M602.589 749.193L459.268 509.045L602.589 268.897" stroke="white" stroke-width="0.67" stroke-linecap="round" stroke-linejoin="round"/>
<path opacity="0.01" d="M711.812 799.2L513.868 509.045L711.812 218.891" stroke="#0055D7" stroke-width="23.5" stroke-linecap="round" stroke-linejoin="round"/>
<path opacity="0.01" d="M711.812 799.2L513.868 509.045L711.812 218.891" stroke="#0055D7" stroke-width="22.38" stroke-linecap="round" stroke-linejoin="round"/>
<path opacity="0.01" d="M711.812 799.2L513.868 509.045L711.812 218.891" stroke="#0055D7" stroke-width="21.26" stroke-linecap="round" stroke-linejoin="round"/>
<path opacity="0.01" d="M711.812 799.2L513.868 509.045L711.812 218.891" stroke="#0055D7" stroke-width="20.15" stroke-linecap="round" stroke-linejoin="round"/>
<path opacity="0.01" d="M711.812 799.2L513.868 509.045L711.812 218.891" stroke="#0055D7" stroke-width="19.03" stroke-linecap="round" stroke-linejoin="round"/>
<path opacity="0.02" d="M711.812 799.2L513.868 509.045L711.812 218.891" stroke="#0055D7" stroke-width="17.91" stroke-linecap="round" stroke-linejoin="round"/>
<path opacity="0.02" d="M711.812 799.2L513.868 509.045L711.812 218.891" stroke="#0055D7" stroke-width="16.79" stroke-linecap="round" stroke-linejoin="round"/>
<path opacity="0.02" d="M711.812 799.2L513.868 509.045L711.812 218.891" stroke="#0055D7" stroke-width="15.67" stroke-linecap="round" stroke-linejoin="round"/>
<path opacity="0.03" d="M711.812 799.2L513.868 509.045L711.812 218.891" stroke="#0055D7" stroke-width="14.55" stroke-linecap="round" stroke-linejoin="round"/>
<path opacity="0.03" d="M711.812 799.2L513.868 509.045L711.812 218.891" stroke="#0055D7" stroke-width="13.43" stroke-linecap="round" stroke-linejoin="round"/>
<path opacity="0.04" d="M711.812 799.2L513.868 509.045L711.812 218.891" stroke="#0055D7" stroke-width="12.31" stroke-linecap="round" stroke-linejoin="round"/>
<path opacity="0.04" d="M711.812 799.2L513.868 509.045L711.812 218.891" stroke="#0055D7" stroke-width="11.19" stroke-linecap="round" stroke-linejoin="round"/>
<path opacity="0.05" d="M711.812 799.2L513.868 509.045L711.812 218.891" stroke="#0055D7" stroke-width="10.07" stroke-linecap="round" stroke-linejoin="round"/>
<path opacity="0.06" d="M711.812 799.2L513.868 509.045L711.812 218.891" stroke="#0055D7" stroke-width="8.95" stroke-linecap="round" stroke-linejoin="round"/>
<path opacity="0.07" d="M711.812 799.2L513.868 509.045L711.812 218.891" stroke="#0055D7" stroke-width="7.83" stroke-linecap="round" stroke-linejoin="round"/>
<path opacity="0.08" d="M711.812 799.2L513.868 509.045L711.812 218.891" stroke="#0055D7" stroke-width="6.72" stroke-linecap="round" stroke-linejoin="round"/>
<path opacity="0.1" d="M711.812 799.2L513.868 509.045L711.812 218.891" stroke="#0055D7" stroke-width="5.6" stroke-linecap="round" stroke-linejoin="round"/>
<path opacity="0.15" d="M711.812 799.2L513.868 509.045L711.812 218.891" stroke="#0055D7" stroke-width="4.48" stroke-linecap="round" stroke-linejoin="round"/>
<path d="M711.812 799.2L513.868 509.045L711.812 218.891" stroke="#0055D7" stroke-width="3.36" stroke-linecap="round" stroke-linejoin="round"/>
<path d="M711.812 799.2L513.868 509.045L711.812 218.891" stroke="#DDE8FA" stroke-width="2.01" stroke-linecap="round" stroke-linejoin="round"/>
<path d="M711.812 799.2L513.868 509.045L711.812 218.891" stroke="white" stroke-width="0.67" stroke-linecap="round" stroke-linejoin="round"/>
<path opacity="0.01" d="M878.442 875.502L586.681 509.045L878.442 142.614" stroke="#0055D7" stroke-width="23.5" stroke-linecap="round" stroke-linejoin="round"/>
<path opacity="0.01" d="M878.442 875.502L586.681 509.045L878.442 142.614" stroke="#0055D7" stroke-width="22.38" stroke-linecap="round" stroke-linejoin="round"/>
<path opacity="0.01" d="M878.442 875.502L586.681 509.045L878.442 142.614" stroke="#0055D7" stroke-width="21.26" stroke-linecap="round" stroke-linejoin="round"/>
<path opacity="0.01" d="M878.442 875.502L586.681 509.045L878.442 142.614" stroke="#0055D7" stroke-width="20.15" stroke-linecap="round" stroke-linejoin="round"/>
<path opacity="0.01" d="M878.442 875.502L586.681 509.045L878.442 142.614" stroke="#0055D7" stroke-width="19.03" stroke-linecap="round" stroke-linejoin="round"/>
<path opacity="0.02" d="M878.442 875.502L586.681 509.045L878.442 142.614" stroke="#0055D7" stroke-width="17.91" stroke-linecap="round" stroke-linejoin="round"/>
<path opacity="0.02" d="M878.442 875.502L586.681 509.045L878.442 142.614" stroke="#0055D7" stroke-width="16.79" stroke-linecap="round" stroke-linejoin="round"/>
<path opacity="0.02" d="M878.442 875.502L586.681 509.045L878.442 142.614" stroke="#0055D7" stroke-width="15.67" stroke-linecap="round" stroke-linejoin="round"/>
<path opacity="0.03" d="M878.442 875.502L586.681 509.045L878.442 142.614" stroke="#0055D7" stroke-width="14.55" stroke-linecap="round" stroke-linejoin="round"/>
<path opacity="0.03" d="M878.442 875.502L586.681 509.045L878.442 142.614" stroke="#0055D7" stroke-width="13.43" stroke-linecap="round" stroke-linejoin="round"/>
<path opacity="0.04" d="M878.442 875.502L586.681 509.045L878.442 142.614" stroke="#0055D7" stroke-width="12.31" stroke-linecap="round" stroke-linejoin="round"/>
<path opacity="0.04" d="M878.442 875.502L586.681 509.045L878.442 142.614" stroke="#0055D7" stroke-width="11.19" stroke-linecap="round" stroke-linejoin="round"/>
<path opacity="0.05" d="M878.442 875.502L586.681 509.045L878.442 142.614" stroke="#0055D7" stroke-width="10.07" stroke-linecap="round" stroke-linejoin="round"/>
<path opacity="0.06" d="M878.442 875.502L586.681 509.045L878.442 142.614" stroke="#0055D7" stroke-width="8.95" stroke-linecap="round" stroke-linejoin="round"/>
<path opacity="0.07" d="M878.442 875.502L586.681 509.045L878.442 142.614" stroke="#0055D7" stroke-width="7.83" stroke-linecap="round" stroke-linejoin="round"/>
<path opacity="0.08" d="M878.442 875.502L586.681 509.045L878.442 142.614" stroke="#0055D7" stroke-width="6.72" stroke-linecap="round" stroke-linejoin="round"/>
<path opacity="0.1" d="M878.442 875.502L586.681 509.045L878.442 142.614" stroke="#0055D7" stroke-width="5.6" stroke-linecap="round" stroke-linejoin="round"/>
<path opacity="0.15" d="M878.442 875.502L586.681 509.045L878.442 142.614" stroke="#0055D7" stroke-width="4.48" stroke-linecap="round" stroke-linejoin="round"/>
<path d="M878.442 875.502L586.681 509.045L878.442 142.614" stroke="#0055D7" stroke-width="3.36" stroke-linecap="round" stroke-linejoin="round"/>
<path d="M878.442 875.502L586.681 509.045L878.442 142.614" stroke="#DDE8FA" stroke-width="2.01" stroke-linecap="round" stroke-linejoin="round"/>
<path d="M878.442 875.502L586.681 509.045L878.442 142.614" stroke="white" stroke-width="0.67" stroke-linecap="round" stroke-linejoin="round"/>
<path opacity="0.01" d="M1164 1006.2L688.752 509.045L1164 11.8884" stroke="#0055D7" stroke-width="23.5" stroke-linecap="round" stroke-linejoin="round"/>
<path opacity="0.01" d="M1164 1006.2L688.752 509.045L1164 11.8884" stroke="#0055D7" stroke-width="22.38" stroke-linecap="round" stroke-linejoin="round"/>
<path opacity="0.01" d="M1164 1006.2L688.752 509.045L1164 11.8884" stroke="#0055D7" stroke-width="21.26" stroke-linecap="round" stroke-linejoin="round"/>
<path opacity="0.01" d="M1164 1006.2L688.752 509.045L1164 11.8884" stroke="#0055D7" stroke-width="20.15" stroke-linecap="round" stroke-linejoin="round"/>
<path opacity="0.01" d="M1164 1006.2L688.752 509.045L1164 11.8884" stroke="#0055D7" stroke-width="19.03" stroke-linecap="round" stroke-linejoin="round"/>
<path opacity="0.02" d="M1164 1006.2L688.752 509.045L1164 11.8884" stroke="#0055D7" stroke-width="17.91" stroke-linecap="round" stroke-linejoin="round"/>
<path opacity="0.02" d="M1164 1006.2L688.752 509.045L1164 11.8884" stroke="#0055D7" stroke-width="16.79" stroke-linecap="round" stroke-linejoin="round"/>
<path opacity="0.02" d="M1164 1006.2L688.752 509.045L1164 11.8884" stroke="#0055D7" stroke-width="15.67" stroke-linecap="round" stroke-linejoin="round"/>
<path opacity="0.03" d="M1164 1006.2L688.752 509.045L1164 11.8884" stroke="#0055D7" stroke-width="14.55" stroke-linecap="round" stroke-linejoin="round"/>
<path opacity="0.03" d="M1164 1006.2L688.752 509.045L1164 11.8884" stroke="#0055D7" stroke-width="13.43" stroke-linecap="round" stroke-linejoin="round"/>
<path opacity="0.04" d="M1164 1006.2L688.752 509.045L1164 11.8884" stroke="#0055D7" stroke-width="12.31" stroke-linecap="round" stroke-linejoin="round"/>
<path opacity="0.04" d="M1164 1006.2L688.752 509.045L1164 11.8884" stroke="#0055D7" stroke-width="11.19" stroke-linecap="round" stroke-linejoin="round"/>
<path opacity="0.05" d="M1164 1006.2L688.752 509.045L1164 11.8884" stroke="#0055D7" stroke-width="10.07" stroke-linecap="round" stroke-linejoin="round"/>
<path opacity="0.06" d="M1164 1006.2L688.752 509.045L1164 11.8884" stroke="#0055D7" stroke-width="8.95" stroke-linecap="round" stroke-linejoin="round"/>
<path opacity="0.07" d="M1164 1006.2L688.752 509.045L1164 11.8884" stroke="#0055D7" stroke-width="7.83" stroke-linecap="round" stroke-linejoin="round"/>
<path opacity="0.08" d="M1164 1006.2L688.752 509.045L1164 11.8884" stroke="#0055D7" stroke-width="6.72" stroke-linecap="round" stroke-linejoin="round"/>
<path opacity="0.1" d="M1164 1006.2L688.752 509.045L1164 11.8884" stroke="#0055D7" stroke-width="5.6" stroke-linecap="round" stroke-linejoin="round"/>
<path opacity="0.15" d="M1164 1006.2L688.752 509.045L1164 11.8884" stroke="#0055D7" stroke-width="4.48" stroke-linecap="round" stroke-linejoin="round"/>
<path d="M1164 1006.2L688.752 509.045L1164 11.8884" stroke="#0055D7" stroke-width="3.36" stroke-linecap="round" stroke-linejoin="round"/>
<path d="M1164 1006.2L688.752 509.045L1164 11.8884" stroke="#DDE8FA" stroke-width="2.01" stroke-linecap="round" stroke-linejoin="round"/>
<path d="M1164 1006.2L688.752 509.045L1164 11.8884" stroke="white" stroke-width="0.67" stroke-linecap="round" stroke-linejoin="round"/>
<defs>
<filter id="filter0_f" x="0.689941" y="80.6769" width="1016.52" height="857.891" filterUnits="userSpaceOnUse" color-interpolation-filters="sRGB">
<feFlood flood-opacity="0" result="BackgroundImageFix"/>
<feBlend mode="normal" in="SourceGraphic" in2="BackgroundImageFix" result="shape"/>
<feGaussianBlur stdDeviation="50" result="effect1_foregroundBlur"/>
</filter>
<radialGradient id="paint0_radial" cx="0" cy="0" r="1" gradientUnits="userSpaceOnUse" gradientTransform="translate(508.949 509.622) rotate(89.9886) scale(256.878 318.814)">
<stop stop-color="#0055D7" stop-opacity="0.69"/>
<stop offset="1" stop-color="#002347"/>
</radialGradient>
</defs>
</svg>
