<svg width="384" height="391" viewBox="0 0 384 391" fill="none" xmlns="http://www.w3.org/2000/svg">
<g filter="url(#filter0_f)">
<path d="M281.5 41H315.5C326.833 40.3334 348 47.6 342 82C336.03 116.23 311.081 247.693 299.176 310.077C299.056 310.704 299.071 311.319 299.16 311.951C300.394 320.718 296.334 336.729 270.5 337.5C243.7 338.3 135.333 337.833 84.5 337.5" stroke="#FF65F0" stroke-width="20"/>
</g>
<path fill-rule="evenodd" clip-rule="evenodd" d="M326.007 30.34H289.03V25.7973H326.248L326.367 25.8098C334.088 26.6226 342.356 30.4292 348.232 37.2199C354.158 44.0687 357.543 53.8313 355.63 66.2698C351.992 89.9145 324.355 244.59 310.975 319.067C310.675 324.099 308.769 331.489 303.962 337.7C299.034 344.067 291.126 349.086 279.188 349.086H83.0947V344.543H279.188C289.66 344.543 296.264 340.224 300.37 334.919C304.552 329.517 306.214 322.982 306.447 318.678L306.455 318.538L306.48 318.399C319.86 243.925 347.512 89.164 351.14 65.579C352.861 54.3955 349.811 45.9874 344.796 40.1923C339.761 34.3732 332.638 31.0675 326.007 30.34Z" fill="#DA19A9"/>
<path fill-rule="evenodd" clip-rule="evenodd" d="M326.088 28.8258H289.03V27.3116H326.168L326.208 27.3157C333.576 28.0914 341.481 31.7326 347.086 38.2108C352.708 44.7083 355.982 54.0194 354.133 66.0396C350.497 89.6691 322.845 244.43 309.468 318.889C309.2 323.68 307.378 330.812 302.764 336.773C298.11 342.786 290.637 347.571 279.187 347.571H83.0942V346.057H279.187C290.148 346.057 297.186 341.505 301.567 335.846C305.972 330.154 307.713 323.307 307.959 318.76L307.961 318.713L307.969 318.667C321.347 244.209 349.004 89.419 352.636 65.8093C354.421 54.2075 351.259 45.3479 345.941 39.2016C340.616 33.0474 333.093 29.5732 326.088 28.8258Z" fill="#FFFBFE"/>
<path fill-rule="evenodd" clip-rule="evenodd" d="M318.232 37.9467H282.672V33.404H318.47L318.588 33.4162C326.028 34.1918 334 37.824 339.669 44.3118C345.39 50.859 348.657 60.1935 346.811 72.0772C343.312 94.5973 316.733 241.901 303.864 312.833C303.572 317.647 301.732 324.705 297.095 330.637C292.336 336.726 284.707 341.514 273.206 341.514H84.6089V336.972H273.206C283.258 336.972 289.586 332.867 293.516 327.84C297.522 322.715 299.114 316.517 299.336 312.44L299.344 312.298L299.369 312.158C312.238 241.228 338.833 93.8396 342.322 71.3798C343.971 60.7663 341.049 52.7954 336.248 47.3008C331.424 41.78 324.594 38.6388 318.232 37.9467Z" fill="#DA19A9"/>
<path fill-rule="evenodd" clip-rule="evenodd" d="M318.312 36.4324H282.671V34.9182H318.391L318.43 34.9223C325.522 35.6615 333.131 39.1316 338.528 45.3081C343.942 51.5044 347.095 60.3844 345.314 71.8447C341.818 94.3495 315.223 241.739 302.357 312.653C302.098 317.222 300.344 324.022 295.902 329.705C291.419 335.44 284.223 340 273.205 340H84.6084V338.486H273.205C283.741 338.486 290.502 334.153 294.709 328.772C298.94 323.359 300.612 316.846 300.848 312.522L300.85 312.475L300.859 312.429C313.725 241.516 340.325 94.097 343.818 71.6123C345.533 60.5754 342.496 52.1499 337.388 46.3044C332.273 40.4505 325.045 37.144 318.312 36.4324Z" fill="#FFFBFE"/>
<path fill-rule="evenodd" clip-rule="evenodd" d="M309.616 44.7252H274.674V40.1825H309.846L309.96 40.1939C317.257 40.9276 325.095 44.3651 330.68 50.5304C336.324 56.7604 339.556 65.6592 337.732 76.9841C334.294 98.3294 308.18 237.924 295.535 305.152C295.244 309.749 293.423 316.466 288.852 322.106C284.157 327.9 276.654 332.429 265.373 332.429H83.8516V327.886H265.373C275.27 327.886 281.481 323.987 285.323 319.246C289.24 314.412 290.792 308.572 291.009 304.744L291.017 304.597L291.044 304.453C303.689 237.227 329.819 97.5446 333.247 76.2618C334.857 66.2651 332.008 58.7628 327.313 53.5803C322.588 48.364 315.881 45.382 309.616 44.7252Z" fill="#DA19A9"/>
<path fill-rule="evenodd" clip-rule="evenodd" d="M309.694 43.211H274.674V41.6968H309.77L309.808 41.7006C316.772 42.4007 324.25 45.6878 329.557 51.5471C334.885 57.4279 337.99 65.8613 336.237 76.7434C332.801 98.0727 306.671 237.756 294.029 304.965C293.773 309.307 292.046 315.76 287.676 321.152C283.265 326.596 276.193 330.915 265.373 330.915H83.0942V329.401H265.373C275.731 329.401 282.373 325.291 286.499 320.199C290.651 315.076 292.289 308.915 292.52 304.83L292.523 304.781L292.532 304.733C305.174 237.525 331.31 97.8112 334.742 76.5026C336.423 66.0632 333.446 58.0954 328.435 52.5637C323.414 47.021 316.314 43.8857 309.694 43.211Z" fill="#FFFBFE"/>
<path fill-rule="evenodd" clip-rule="evenodd" d="M301.311 53.8106H267.402V49.2679H301.533L301.643 49.2786C308.717 49.9653 316.334 53.1837 321.774 58.9802C327.278 64.846 330.441 73.2429 328.658 83.9241C325.322 103.924 299.983 234.689 287.712 297.673C287.424 302.021 285.641 308.345 281.188 313.65C276.608 319.106 269.314 323.344 258.376 323.344H84.6084V318.801H258.376C267.99 318.801 274.004 315.143 277.709 310.729C281.487 306.228 282.979 300.796 283.187 297.251L283.196 297.099L283.225 296.95C295.496 233.968 320.852 103.112 324.178 83.1766C325.728 73.8829 322.989 66.9145 318.461 62.0886C313.894 57.2219 307.397 54.4265 301.311 53.8106Z" fill="#DA19A9"/>
<path fill-rule="evenodd" clip-rule="evenodd" d="M301.386 52.2964H267.402V50.7822H301.46L301.497 50.7857C308.252 51.4414 315.512 54.5203 320.67 60.0163C325.849 65.5355 328.87 73.4562 327.165 83.6749C323.831 103.658 298.475 234.514 286.207 297.48C285.957 301.562 284.275 307.618 280.029 312.676C275.74 317.785 268.873 321.829 258.377 321.829H83.8516V320.315H258.377C268.432 320.315 274.872 316.464 278.869 311.702C282.89 306.912 284.475 301.153 284.699 297.34L284.702 297.289L284.711 297.239C296.979 234.275 322.341 103.387 325.672 83.4257C327.299 73.6696 324.419 66.225 319.565 61.0525C314.699 55.8666 307.812 52.9286 301.386 52.2964Z" fill="#FFFBFE"/>
<g filter="url(#filter1_f)">
<path d="M84 296V336V366.5C84 368.9 81 371.5 79.5 372.5L19.5 333L70 298.5L78 294.5L84 296Z" stroke="#FF65F0" stroke-width="5"/>
</g>
<path fill-rule="evenodd" clip-rule="evenodd" d="M76.5517 298.468L24.6426 331.386C22.7671 332.575 22.7671 335.312 24.6426 336.501L76.5517 369.419C78.5681 370.697 81.202 369.249 81.202 366.861L81.202 301.026C81.202 298.638 78.5681 297.19 76.5517 298.468ZM23.0207 328.828C19.2698 331.207 19.2698 336.68 23.0207 339.059L74.9299 371.976C78.9625 374.533 84.2305 371.636 84.2305 366.861L84.2305 301.026C84.2305 296.251 78.9625 293.353 74.9299 295.911L23.0207 328.828Z" fill="#DA18A9"/>
<path fill-rule="evenodd" clip-rule="evenodd" d="M75.751 297.273L23.6968 330.101C20.8708 331.883 20.8708 336.004 23.6968 337.786L75.751 370.613C78.7759 372.521 82.7169 370.347 82.7169 366.771L82.7169 301.116C82.7169 297.539 78.7759 295.366 75.751 297.273ZM22.0813 327.539C17.3713 330.51 17.3713 337.377 22.0813 340.347L74.1355 373.175C79.1771 376.354 85.7453 372.731 85.7453 366.771L85.7453 301.116C85.7453 295.155 79.1771 291.532 74.1355 294.712L22.0813 327.539Z" fill="#DA18A9"/>
<path fill-rule="evenodd" clip-rule="evenodd" d="M75.7408 297.189L23.8317 330.107C21.0184 331.891 21.0184 335.996 23.8317 337.78L75.7408 370.697C78.7653 372.615 82.7163 370.442 82.7163 366.861L82.7163 301.026C82.7163 297.444 78.7653 295.272 75.7408 297.189ZM23.0207 328.828C19.2698 331.207 19.2698 336.68 23.0207 339.059L74.9299 371.976C78.9625 374.533 84.2305 371.636 84.2305 366.861L84.2305 301.026C84.2305 296.251 78.9625 293.353 74.9299 295.911L23.0207 328.828Z" fill="white"/>
<defs>
<filter id="filter0_f" x="54.4346" y="0.960449" width="328.61" height="376.981" filterUnits="userSpaceOnUse" color-interpolation-filters="sRGB">
<feFlood flood-opacity="0" result="BackgroundImageFix"/>
<feBlend mode="normal" in="SourceGraphic" in2="BackgroundImageFix" result="shape"/>
<feGaussianBlur stdDeviation="15" result="effect1_foregroundBlur"/>
</filter>
<filter id="filter1_f" x="0.0117188" y="276.85" width="101.488" height="113.648" filterUnits="userSpaceOnUse" color-interpolation-filters="sRGB">
<feFlood flood-opacity="0" result="BackgroundImageFix"/>
<feBlend mode="normal" in="SourceGraphic" in2="BackgroundImageFix" result="shape"/>
<feGaussianBlur stdDeviation="7.5" result="effect1_foregroundBlur"/>
</filter>
</defs>
</svg>
