<svg width="141" height="21" viewBox="0 0 141 21" fill="none" xmlns="http://www.w3.org/2000/svg">
<rect width="141" height="21" rx="10.5" fill="#E7D325"/>
<g clip-path="url(#clip0)">
<path d="M87.3073 4.77954H87.2827C85.4773 4.77954 84.4679 6.10079 84.0001 6.99529C83.5241 6.10076 82.5229 4.77954 80.7175 4.77954H80.6847C78.7315 4.79597 77.1037 6.46187 77.0052 8.57094C76.8821 11.156 78.9449 12.8957 82.0305 15.5218C82.564 15.9814 83.1302 16.4656 83.7293 16.9826L84.0001 17.2206L84.271 16.9826C84.8618 16.4656 85.4363 15.9814 85.9697 15.5218C89.0553 12.8957 91.1179 11.156 90.9948 8.57094C90.8963 6.46184 89.2604 4.79595 87.3073 4.77954Z" fill="white"/>
<path d="M90.9947 8.57094C91.1178 11.156 89.0552 12.8957 85.9696 15.5218C85.4361 15.9814 84.8617 16.4656 84.2708 16.9826L84 17.2206V6.99529C84.4678 6.10076 85.4772 4.77954 87.2826 4.77954H87.3072C89.2604 4.79595 90.8962 6.46184 90.9947 8.57094Z" fill="white"/>
</g>
<path d="M54.7572 9.994C56.1385 9.994 57.1605 10.2647 57.8232 10.806C58.4859 11.338 58.8172 12.066 58.8172 12.99C58.8172 13.578 58.6725 14.11 58.3832 14.586C58.0939 15.062 57.6599 15.44 57.0812 15.72C56.5025 16 55.7885 16.14 54.9392 16.14C54.2392 16.14 53.5625 16.042 52.9092 15.846C52.2559 15.6407 51.7052 15.3607 51.2572 15.006L52.0272 13.592C52.3912 13.8907 52.8252 14.1287 53.3292 14.306C53.8425 14.474 54.3699 14.558 54.9112 14.558C55.5552 14.558 56.0592 14.4273 56.4232 14.166C56.7965 13.8953 56.9832 13.5267 56.9832 13.06C56.9832 12.556 56.7825 12.178 56.3812 11.926C55.9892 11.6647 55.3125 11.534 54.3512 11.534H51.9852L52.4892 6.2H58.2432V7.726H54.0292L53.8192 9.994H54.7572ZM60.959 16.098C60.6416 16.098 60.371 15.9907 60.147 15.776C59.923 15.552 59.811 15.272 59.811 14.936C59.811 14.5907 59.9183 14.3107 60.133 14.096C60.357 13.8813 60.6323 13.774 60.959 13.774C61.2856 13.774 61.5563 13.8813 61.771 14.096C61.995 14.3107 62.107 14.5907 62.107 14.936C62.107 15.272 61.995 15.552 61.771 15.776C61.547 15.9907 61.2763 16.098 60.959 16.098ZM67.2089 16.14C66.4249 16.14 65.7249 15.944 65.1089 15.552C64.4929 15.1507 64.0075 14.572 63.6529 13.816C63.2982 13.0507 63.1209 12.1453 63.1209 11.1C63.1209 10.0547 63.2982 9.154 63.6529 8.398C64.0075 7.63267 64.4929 7.054 65.1089 6.662C65.7249 6.26067 66.4249 6.06 67.2089 6.06C67.9929 6.06 68.6929 6.26067 69.3089 6.662C69.9342 7.054 70.4242 7.63267 70.7789 8.398C71.1335 9.154 71.3109 10.0547 71.3109 11.1C71.3109 12.1453 71.1335 13.0507 70.7789 13.816C70.4242 14.572 69.9342 15.1507 69.3089 15.552C68.6929 15.944 67.9929 16.14 67.2089 16.14ZM67.2089 14.558C67.9089 14.558 68.4595 14.2687 68.8609 13.69C69.2715 13.1113 69.4769 12.248 69.4769 11.1C69.4769 9.952 69.2715 9.08867 68.8609 8.51C68.4595 7.93133 67.9089 7.642 67.2089 7.642C66.5182 7.642 65.9675 7.93133 65.5569 8.51C65.1555 9.08867 64.9549 9.952 64.9549 11.1C64.9549 12.248 65.1555 13.1113 65.5569 13.69C65.9675 14.2687 66.5182 14.558 67.2089 14.558Z" fill="white"/>
<defs>
<clipPath id="clip0">
<rect width="14" height="14" fill="white" transform="translate(77 4)"/>
</clipPath>
</defs>
</svg>
